<svg xmlns="http://www.w3.org/2000/svg" viewBox="0 0 609.06 198.42"><defs><style>.cls-1{fill:#a7deec;}</style></defs><g id="Layer_2" data-name="Layer 2"><g id="Layer_1-2" data-name="Layer 1"><path class="cls-1" d="M598.7,49.53c-19.39-23.77-32.1-20.71-51.58-3-13-10.75-20.7-12.22-39.32-5.39C497.17,27,490.48,24,468.05,29.46,431.22-32.89,378,20.18,379.9,39.17c-2.09-3.56-31.79-8.74-44.2,9.94-.64,1-1.25,2.12-1.89,3.32-12.65.42-19.5,1.61-29,14.68-.53-.76-1-1.49-1.53-2.19-8.7-11.46-15.09-12.4-27-12.49-.25-.46-.5-.91-.75-1.34a28.52,28.52,0,0,0-9.06-9.55C252,32,231.19,36.18,229.8,39.27c1.94-19-51.32-72.05-88.16-9.71-22.42-5.43-29.12-2.46-39.74,11.65-18.63-6.83-27.17-4.71-40.17,6C41.28,20,11.65,41.51,12.47,49.63c0,0-7.76-1.16-12.47,0V198.42H609.06V49.53C604.35,48.36,603.41,48.69,598.7,49.53Z"/></g></g></svg>