<svg width="275" height="201" viewBox="0 0 275 201" fill="none" xmlns="http://www.w3.org/2000/svg">
<path d="M79.705 46.2428C79.705 59.0124 90.0485 69.3642 102.808 69.3642C115.567 69.3642 125.911 59.0124 125.911 46.2428C125.911 33.4732 115.567 23.1214 102.808 23.1214C90.0485 23.1214 79.705 33.4732 79.705 46.2428Z" fill="#9DDFE9"/>
<path d="M17.3272 23.1214C17.3272 35.891 27.6707 46.2428 40.4301 46.2428C53.1895 46.2428 63.533 35.891 63.533 23.1214C63.533 10.3518 53.1895 0 40.4301 0C27.6707 0 17.3272 10.3518 17.3272 23.1214Z" fill="#9DDFE9"/>
<path d="M4.57764e-05 50.8671C4.57764e-05 63.6366 10.3436 73.9884 23.1029 73.9884C35.8623 73.9884 46.2058 63.6366 46.2058 50.8671C46.2058 38.0975 35.8623 27.7457 23.1029 27.7457C10.3436 27.7457 4.57764e-05 38.0975 4.57764e-05 50.8671Z" fill="#9DDFE9"/>
<path d="M31.1889 36.9942C31.1889 54.8716 45.6699 69.3642 63.533 69.3642C81.3961 69.3642 95.877 54.8716 95.877 36.9942C95.877 19.1168 81.3961 4.62428 63.533 4.62428C45.6699 4.62428 31.1889 19.1168 31.1889 36.9942Z" fill="#9DDFE9"/>
<path d="M232.718 129.073C232.672 131.795 231.386 134.384 229.142 136.271C226.898 138.158 223.881 139.189 220.754 139.136L208.962 138.937L209.482 108.15L221.273 108.349C224.4 108.402 227.381 109.534 229.56 111.496C231.739 113.458 232.937 116.089 232.891 118.811L232.718 129.073ZM103.1 121.75C103.162 118.107 103.751 114.627 104.81 111.257C114.168 105.41 131.215 101.695 150.612 102.023C164.054 102.25 176.343 104.408 191.795 107.851C194.922 107.904 197.903 109.036 200.082 110.998C202.261 112.96 203.459 115.591 203.413 118.313L203.24 128.575C203.194 131.297 201.908 133.886 199.664 135.773C197.42 137.66 194.403 138.691 191.275 138.638C175.716 141.557 163.361 143.299 149.919 143.072C130.523 142.744 113.611 138.455 104.456 132.295C103.51 128.892 103.039 125.393 103.1 121.75ZM145.062 81.3984C163.81 81.7152 191.596 91.68 198.968 105.611C188.32 100.555 167.383 97.1734 150.698 96.8915C134.014 96.6096 118.87 99.3819 108.057 104.075C115.895 90.401 126.314 81.0817 145.062 81.3984ZM143.677 163.497C124.929 163.18 114.831 153.514 107.458 139.583C118.106 144.639 133.148 147.921 149.833 148.203C166.517 148.485 187.557 145.812 198.369 141.119C190.531 154.793 162.426 163.814 143.677 163.497Z" fill="#199ED2"/>
<path d="M189.431 172.2L124.683 172.2L124.683 189.532C124.683 193.877 128.206 197.4 132.552 197.4L181.563 197.4C185.909 197.4 189.431 193.877 189.431 189.532L189.431 172.2Z" fill="#0F556F"/>
<path d="M103.422 129.334L106.698 139.8C144.8 158.226 165.88 152.841 198.424 141.6L203.82 129C166.61 139.47 144.648 151.21 103.422 129.334Z" fill="white"/>
<path d="M104.899 111L108.496 103.8C147.198 86.6716 168.081 93.4412 200.228 105.776L203.976 116.659C168.478 106.777 149.022 93.4146 104.899 111Z" fill="white"/>
<rect x="124.683" y="179.4" width="3.59712" height="3.6" fill="#199ED2"/>
<rect x="128.28" y="175.8" width="3.59712" height="3.6" fill="#199ED2"/>
<rect x="131.878" y="179.4" width="3.59712" height="3.6" fill="#199ED2"/>
<rect x="135.475" y="175.8" width="3.59712" height="3.6" fill="#199ED2"/>
<rect x="139.072" y="179.4" width="3.59712" height="3.6" fill="#199ED2"/>
<rect x="142.669" y="175.8" width="3.59712" height="3.6" fill="#199ED2"/>
<rect x="146.266" y="179.4" width="3.59712" height="3.6" fill="#199ED2"/>
<rect x="149.863" y="175.8" width="3.59712" height="3.6" fill="#199ED2"/>
<rect x="153.46" y="179.4" width="3.59712" height="3.6" fill="#199ED2"/>
<rect x="157.057" y="175.8" width="3.59712" height="3.6" fill="#199ED2"/>
<rect x="160.655" y="179.4" width="3.59712" height="3.6" fill="#199ED2"/>
<rect x="167.849" y="179.4" width="3.59712" height="3.6" fill="#199ED2"/>
<rect x="175.043" y="179.4" width="3.59712" height="3.6" fill="#199ED2"/>
<rect x="182.237" y="179.4" width="3.59712" height="3.6" fill="#199ED2"/>
<rect x="164.252" y="175.8" width="3.59712" height="3.6" fill="#199ED2"/>
<rect x="171.446" y="175.8" width="3.59712" height="3.6" fill="#199ED2"/>
<rect x="178.64" y="175.8" width="3.59712" height="3.6" fill="#199ED2"/>
<rect x="185.834" y="175.8" width="3.59712" height="3.6" fill="#199ED2"/>
<path d="M110.24 107.617L110.837 143.019L107.968 143.068C103.623 143.141 100.041 139.679 99.9681 135.334L99.6363 115.666C99.563 111.321 103.026 107.739 107.371 107.666L110.24 107.617Z" fill="#0F556F"/>
<rect x="207.417" y="100.2" width="28.777" height="43.2" fill="#00AEFF"/>
<path d="M222.351 148.546C222.351 156.981 215.518 163.819 207.09 163.819C198.662 163.819 191.829 156.981 191.829 148.546C191.829 140.111 198.662 133.273 207.09 133.273C215.518 133.273 222.351 140.111 222.351 148.546Z" fill="#66CAD9"/>
<path d="M263.554 133.273C263.554 141.708 256.722 148.546 248.294 148.546C239.866 148.546 233.033 141.708 233.033 133.273C233.033 124.838 239.866 118 248.294 118C256.722 118 263.554 124.838 263.554 133.273Z" fill="#66CAD9"/>
<path d="M275 151.6C275 160.035 268.167 166.873 259.739 166.873C251.311 166.873 244.479 160.035 244.479 151.6C244.479 143.165 251.311 136.327 259.739 136.327C268.167 136.327 275 143.165 275 151.6Z" fill="#66CAD9"/>
<path d="M254.398 142.437C254.398 154.245 244.833 163.819 233.033 163.819C221.234 163.819 211.668 154.245 211.668 142.437C211.668 130.628 221.234 121.055 233.033 121.055C244.833 121.055 254.398 130.628 254.398 142.437Z" fill="#66CAD9"/>
</svg>
