<svg width="640" height="534" viewBox="0 0 640 534" fill="none" xmlns="http://www.w3.org/2000/svg">
<g opacity="0.25">
<path d="M243.404 306.852C242.666 305.427 241.764 304.239 241.436 302.892C241.272 302.101 241.845 300.992 242.379 300.239C243.362 298.932 244.387 297.468 245.74 296.636C247.912 295.289 249.347 293.429 250.822 291.488C252.012 289.944 253.61 288.717 255.004 287.33C256.275 286.103 257.381 284.717 258.733 283.569C260.373 282.183 262.095 280.797 263.98 279.767C265.128 279.134 266.112 279.055 266.194 277.273C266.235 276.164 267.875 274.581 269.104 274.185C273.736 272.679 276.196 268.799 279.639 265.988C280.295 265.433 281.196 265.116 281.975 264.681C282.59 264.324 283.369 264.087 283.738 263.572C286.075 260.325 289.559 258.781 293.207 257.395C293.535 257.276 293.945 257.276 294.273 257.157C295.42 256.682 296.937 255.692 297.552 257.157C298.044 258.306 297.552 260.008 297.06 261.275C296.24 263.413 294.519 265.037 293.453 267.175C292.305 269.551 289.764 271.333 287.837 273.313C287.55 273.63 286.894 273.709 286.772 274.026C285.665 277.669 281.852 278.58 279.352 280.797C278.368 281.708 277.671 282.896 276.688 283.767C273.326 286.697 269.965 289.667 266.399 292.399C263.981 294.3 261.111 295.686 258.692 297.547C256.11 299.527 253.938 301.903 251.356 303.922C250.125 304.912 248.486 305.467 246.928 306.021C245.862 306.417 244.674 306.536 243.445 306.812L243.404 306.852Z" fill="#00AEFF"/>
<path d="M252.708 348.113C251.97 347.559 251.477 347.163 251.191 346.964C251.846 345.817 252.708 344.866 252.912 343.797C253.199 342.094 253.937 341.223 255.331 341.303C255.905 339.758 256.109 338.253 256.93 337.145C258.2 335.481 259.84 334.096 261.357 332.63C263.325 330.69 264.062 331.046 265.538 333.264C266.849 335.204 266.973 336.867 265.783 338.768C265.661 338.966 265.62 339.322 265.701 339.56C266.439 342.213 265.661 344.153 263.406 345.619C262.956 345.896 262.628 347.202 262.914 347.519C263.939 348.747 263.447 349.381 262.381 350.132C262.094 350.33 261.972 350.805 261.89 351.201C261.234 353.578 260.209 355.637 258.077 357.261C256.478 358.487 255.823 360.428 255.454 362.447C255.208 363.794 254.921 365.615 253.978 366.288C252.011 367.635 250.822 369.575 249.182 371.119C248.445 371.832 247.666 372.664 247.42 373.614C247.051 375 246.518 375.237 245.206 374.406C244.96 375.871 244.797 377.139 244.55 378.564C243.976 378.524 243.362 378.445 242.255 378.326C242.952 379.197 243.403 379.752 243.649 380.029C242.91 381.454 242.214 382.761 241.558 384.108C240.738 385.731 239.877 387.275 238.237 386.444C237.09 387.909 236.106 389.176 235.164 390.403C234.958 390.284 234.754 390.166 234.549 390.047C234.795 389.097 235.04 388.107 235.327 386.998C234.139 387.117 233.114 387.196 231.761 387.315C234.139 388.305 233.483 389.611 232.376 391.473C232.13 389.651 232.007 388.226 229.957 388.345C229.589 388.345 228.769 387.038 228.769 386.325C228.769 385.177 229.22 383.989 229.63 382.88C230.45 380.544 231.351 378.207 232.294 375.911C232.622 375.158 233.401 374.604 233.729 373.891C234.754 371.476 235.573 368.981 236.639 366.565C236.967 365.774 237.746 365.18 238.361 364.507C238.975 363.913 239.631 363.358 240.287 362.804C241.517 361.774 242.706 360.587 244.059 359.755C245.288 359.002 245.698 358.448 244.509 357.34C244.181 357.023 244.1 356.389 243.935 355.914C244.387 355.835 244.837 355.676 245.288 355.637C247.051 355.637 248.157 355.122 248.445 353.182C248.773 350.845 249.674 348.707 252.83 348.192L252.708 348.113ZM240.452 373.97C240.738 373.654 240.984 373.337 241.271 373.02C240.533 372.545 239.837 372.03 239.099 371.555C239.058 371.555 238.565 372.07 238.565 372.109C239.181 372.743 239.796 373.337 240.452 373.97Z" fill="#00AEFF"/>
<path d="M512.384 244.168C515.335 244.525 517.876 244.683 520.377 245.119C521.935 245.396 523.451 245.99 524.927 246.545C526.28 247.02 527.551 247.693 528.903 248.207C529.764 248.524 530.666 248.683 531.568 249C532.347 249.277 533.166 249.514 533.74 250.029C535.093 251.178 535.379 252.326 533.371 253.237C532.838 253.474 532.51 254.148 532.182 254.504C532.921 255.415 533.617 256.246 534.273 257.078L533.822 257.513C532.634 257.276 531.486 257.078 530.215 256.84C529.395 258.701 528.289 259.058 526.649 257.711C526.28 257.434 525.46 257.632 524.845 257.672C523.943 257.672 522.877 258.147 522.181 257.79C518.738 256.127 515.007 256.206 511.4 255.612C510.13 255.415 508.899 254.94 507.629 254.702C503.202 253.91 498.652 255.019 494.184 253.91C492.299 253.435 490.577 253.078 490.208 251.455C487.83 251.455 485.617 251.811 483.567 251.376C481.559 250.94 479.674 249.713 477.788 248.802C477.337 248.604 476.927 248.247 476.436 248.168C474.099 247.653 472.787 246.545 473.033 244.287C473.156 243.219 474.549 241.674 475.656 241.397C481.272 239.932 486.929 239.576 492.627 241.555C494.307 242.149 496.356 241.714 498.201 241.912C499.021 241.991 499.882 242.347 500.619 242.783C501.808 243.456 502.874 244.406 504.267 243.1C504.595 242.783 505.539 242.625 505.826 242.823C507.014 243.812 507.752 243.298 509.023 242.823C509.883 242.466 511.523 243.773 512.384 244.168Z" fill="#00AEFF"/>
<path d="M475.042 37.2304C474.96 36.5176 475.083 35.686 474.755 35.0921C473.976 33.8249 473.895 33.033 475.616 32.5578C476.108 32.4391 476.518 31.8847 476.846 31.4491C478.731 29.1128 480.412 26.6181 482.462 24.4799C483.527 23.3712 485.413 23.0148 486.725 22.0248C487.995 21.0745 488.938 19.7282 490.004 18.5798C490.127 18.4214 490.127 18.1442 490.291 18.0254C491.685 16.4415 492.873 14.62 494.513 13.3529C495.743 12.4026 497.792 11.3334 499.022 11.6898C500.662 12.165 501.891 13.9865 503.326 15.214C503.039 15.3328 502.752 15.4516 502.506 15.5308C502.301 16.2832 501.891 17.0355 501.85 17.7879C501.687 20.7973 499.555 22.5396 497.505 24.5987C497.014 23.6483 496.603 22.9752 496.234 22.2624C495.948 22.2624 495.702 22.2624 495.415 22.2624C497.177 24.5987 495.947 26.4202 494.923 28.202C493.898 29.9444 492.627 31.6075 491.398 33.429C489.02 32.0035 488.447 33.4686 488.2 35.1317C487.872 37.4284 486.151 38.6559 484.593 40.1606C482.871 41.8633 480.371 42.8136 479.715 45.6647C479.223 47.7634 477.789 49.6641 474.919 49.4265C474.591 49.4265 473.935 49.9016 473.935 50.1393C473.895 52.7923 471.107 52.8715 469.795 54.3366C467.049 57.3856 463.155 57.9796 459.261 58.2964C458.769 58.336 458.154 57.9796 457.785 57.6232C456.596 56.4353 456.924 53.1883 458.072 51.8815C459.589 50.1789 460.942 48.2781 462.376 46.4963C464.671 43.7244 466.598 40.5962 469.713 38.5371C470.082 38.2995 470.451 38.0619 470.697 37.7451C471.872 36.2932 473.307 36.1216 475.001 37.2304H475.042Z" fill="#00AEFF"/>
<path d="M110.592 58.1381C111.003 58.7321 111.372 59.2072 111.699 59.6824C111.904 59.6032 112.069 59.5636 112.273 59.4844C112.069 58.8508 111.741 58.2173 111.699 57.5441C111.699 56.5146 111.904 55.485 112.027 54.4159C112.806 54.6139 113.708 54.6535 114.364 55.0495C115.511 55.7226 116.454 56.7126 117.561 57.3857C118.094 57.7025 118.914 57.6233 119.242 57.7025C120.102 58.3757 120.677 59.0488 121.374 59.326C123.791 60.2764 126.497 60.7911 128.71 62.0979C130.924 63.4442 132.686 65.5033 134.531 67.3644C135.679 68.5127 136.499 69.9778 137.687 71.0866C138.302 71.6805 139.45 72.3537 140.106 72.1953C141.828 71.7597 142.525 72.6705 143.385 73.6604C143.959 74.294 144.533 75.086 145.27 75.3631C148.55 76.6303 150.518 79.1645 152.526 81.778C153.018 82.4115 154.166 82.6491 154.575 83.3223C155.109 84.1538 155.272 85.2626 155.724 86.6485C159.945 86.6485 160.847 90.7271 162.938 93.5385C163.798 94.6868 162.118 97.0231 160.315 97.2211C159.372 97.3399 158.265 97.5379 157.486 97.1815C153.182 95.0828 149.083 92.6673 146.254 88.7472C146.008 88.3908 146.091 87.7969 146.008 87.2821C145.517 87.2821 145.066 87.3217 144.574 87.3217C144.451 87.3217 144.328 87.1632 144.287 87.1632C144.205 86.213 144.123 85.3022 144 84.035C143.098 84.9458 142.688 85.6585 142.032 86.0149C141.5 86.2921 140.516 86.4109 140.106 86.1337C139.409 85.619 138.59 84.7478 138.549 83.9954C138.507 81.778 137.4 80.3129 134.942 80.1941C131.662 80.0356 128.792 79.3229 127.522 75.8779L127.153 76.3531C126.333 75.7987 125.472 75.2443 124.653 74.6504C122.972 73.4228 121.25 72.2349 119.734 70.849C117.233 68.5523 114.855 66.0972 112.396 63.761C111.904 63.2858 111.207 63.0086 110.551 62.6522C108.748 61.6623 108.707 59.524 110.592 58.1381Z" fill="#00AEFF"/>
<path d="M199.092 22.5003C197.985 21.55 196.468 20.7977 195.894 19.6097C195.279 18.3426 195.566 16.6795 195.526 15.65C194.377 15.8875 193.025 16.4815 191.713 16.3231C191.057 16.2439 190.606 14.858 189.828 13.6701C187.696 13.3532 181.548 6.81961 181.096 3.37459C182.039 4.12699 182.695 4.68135 183.31 5.19612C183.515 5.11693 183.678 5.03775 183.884 4.99808C183.556 4.32494 183.31 3.53303 182.859 2.939C181.67 1.51355 181.752 0.998782 183.556 0.365154C185.893 -0.426753 188.106 0.246376 190.36 0.721554C190.853 0.840328 191.385 0.800738 191.795 0.998779C192.615 1.39469 193.394 1.83028 194.091 2.38464C195.238 3.25581 196.14 4.72094 197.37 5.11693C199.296 5.67129 200.69 6.42362 201.92 8.00752C203.396 9.94782 205.158 11.7694 207.085 13.3533C208.478 14.5016 208.847 15.4123 207.535 16.6002C208.028 18.105 211.798 16.8775 210.077 19.7681C213.643 20.6392 215.037 23.1339 216.062 26.1433C216.718 28.1232 217.906 29.9447 218.767 31.8454C219.75 33.9441 220.816 36.0032 221.472 38.2206C221.965 39.7649 218.152 44.1603 216.553 44.2791C216.267 44.2791 215.939 44.2395 215.734 44.0811C214.053 42.9724 212.414 41.824 210.774 40.6757C210.651 40.5965 210.486 40.5569 210.405 40.4382C209.422 38.7354 208.56 36.9536 207.494 35.2904C206.921 34.3797 205.855 33.7857 205.199 32.9146C204.543 32.083 204.134 31.0535 203.641 30.1031C202.862 28.5984 202.699 26.8165 200.772 25.8266C199.83 25.3514 199.542 23.6882 198.927 22.5399C199.009 22.5399 199.092 22.5003 199.214 22.4607L199.092 22.5003Z" fill="#00AEFF"/>
<path d="M415.729 428.457C415.729 428.457 415.237 428.655 414.417 429.051C413.147 425.526 411.876 422.121 410.605 418.636C409.498 419.032 409.007 418.517 408.597 417.211C408.105 415.785 406.834 414.637 406.097 413.251C404.825 410.875 403.678 408.42 402.449 406.004C401.341 403.827 400.276 401.649 399.128 399.51C398.103 397.571 399.456 393.848 401.546 393.056C401.874 392.938 402.366 392.74 402.571 392.858C405.235 394.362 408.556 394.679 410.154 398.045C411.917 401.768 414.54 405.134 416.754 408.658C416.877 408.856 417.082 409.014 417.082 409.212C416.959 413.607 420.771 416.221 422.124 419.904C422.329 420.537 421.713 421.369 421.673 422.16C421.673 422.754 421.96 423.903 422.001 423.903C425.321 423.428 425.526 426.516 426.673 428.1C428.805 430.991 430.404 434.277 432.126 437.484C432.945 439.069 433.601 440.732 434.134 442.434C434.421 443.345 434.585 444.415 433.15 444.85C432.781 444.969 432.33 445.76 432.371 446.196C432.536 448.018 431.183 448.375 429.912 448.612C428.601 448.85 427.822 448.335 427.084 446.988C426.018 445.087 424.337 443.385 422.697 441.84C420.321 439.623 419.009 436.891 417.902 433.96C417.737 433.525 417.574 433.05 417.409 432.615C416.877 431.308 416.303 429.961 415.689 428.496L415.729 428.457Z" fill="#00AEFF"/>
<path d="M441.471 189.008C440.815 188.89 440.364 188.811 439.873 188.732C439.873 188.415 439.79 188.178 439.873 188.019C440.856 185.049 443.684 183.149 446.841 182.832C448.275 182.673 449.628 181.723 451.022 181.168C452.333 180.654 453.686 180.258 454.998 179.743C455.571 179.506 456.146 179.189 456.72 178.951C457.58 178.634 458.769 177.882 459.302 178.199C460.859 179.11 462.09 178.317 463.483 178.04C466.434 177.446 469.386 176.931 472.296 176.259C475.124 175.585 477.953 174.754 480.863 174.001C480.699 174.872 480.576 175.467 480.453 176.061C480.986 175.704 481.56 175.348 482.093 175.031C482.994 174.516 483.897 173.605 484.839 173.565C488.323 173.447 491.808 173.565 495.292 173.724C496.727 173.763 498.407 175.863 498.448 177.288C498.448 177.961 498.735 178.634 498.735 178.793C497.424 180.179 496.481 182.119 495.333 182.238C493.078 182.515 491.93 185.247 489.348 184.495C488.733 184.297 487.873 184.772 487.135 185.049C485.823 185.524 484.553 186.277 483.445 184.851C482.503 185.405 481.642 185.92 480.781 186.356C480.248 186.633 479.674 186.752 479.1 186.95C479.1 186.356 479.018 185.762 478.978 185.009C478.69 185.366 478.403 185.603 478.199 185.92C477.051 187.623 475.575 188.098 473.443 187.9C470.779 187.663 468.033 187.742 465.369 188.099C464.016 188.297 462.868 189.523 461.515 189.999C460.368 190.434 459.015 190.87 457.908 190.632C455.571 190.197 453.85 191.266 451.923 192.098C451.391 192.335 450.366 192.454 450.12 192.177C448.972 190.949 447.906 191.345 446.8 192.058C445.734 192.731 444.791 192.849 443.849 191.86C443.643 191.662 443.356 191.385 443.152 191.385C441.143 191.543 440.938 190.474 441.512 188.969L441.471 189.008Z" fill="#00AEFF"/>
<path d="M293.167 438.079C291.199 430.477 287.141 423.151 290.83 414.519C289.642 414.598 288.904 414.637 287.961 414.717C286.772 405.926 285.952 397.096 285.707 388.028C286.239 388.662 286.731 389.255 287.469 390.126C288.083 389.018 288.535 388.186 288.945 387.473C287.92 386.444 287.059 385.533 286.035 384.504C287.592 383.989 288.863 383.118 289.683 383.395C291.158 383.87 292.756 384.781 293.577 386.008C294.683 387.632 294.93 389.73 295.831 391.512C296.61 393.057 296.2 393.928 294.806 394.64C298.782 396.937 300.791 410.123 297.84 415.311C300.094 415.39 300.135 416.776 300.176 418.478C300.258 420.696 301.078 422.874 301.078 425.091C301.078 427.349 300.258 429.566 300.135 431.823C300.094 432.971 301.119 434.12 301.16 435.268C301.242 436.495 300.75 437.762 300.463 438.99C300.381 439.386 299.848 439.703 299.848 440.06C300.053 442.752 297.881 442.435 296.569 442.039C295.257 441.603 294.233 440.297 293.167 439.307C293.043 439.188 293.494 438.475 293.699 438.04C293.494 438.04 293.29 438.079 293.125 438.119L293.167 438.079Z" fill="#00AEFF"/>
<path d="M132.851 149.016C134.573 148.54 135.844 148.659 136.991 150.084C137.565 150.797 138.877 151.193 139.861 151.233C141.951 151.352 143.386 152.104 144.656 153.767C145.599 155.034 147.362 155.668 148.346 156.896C149.781 158.756 150.928 160.855 151.912 162.993C152.035 163.231 150.354 164.736 149.535 164.736C147.28 164.657 145.025 164.142 142.771 163.706C138.754 162.954 135.679 161.014 133.794 157.41C133.303 156.46 132.606 155.549 131.909 154.519C131.416 154.757 130.556 155.509 129.695 155.549C128.834 155.549 127.85 154.995 127.031 154.559C124.407 153.094 121.333 152.381 119.366 149.847C118.669 148.937 117.561 147.788 116.578 147.709C114.447 147.511 113.668 145.966 112.397 144.897C110.962 143.63 109.978 141.611 107.478 142.006C107.273 142.006 107.027 141.729 106.822 141.531C105.06 139.868 103.338 138.126 101.575 136.502C100.304 135.314 99.075 130.246 99.8537 128.662C100.263 127.831 100.755 127.039 101.288 126.286C102.395 124.702 103.092 124.821 104.158 126.445C104.445 126.88 105.551 127.197 106.084 126.999C107.396 126.603 108.093 126.801 108.708 128.029C109.118 128.82 109.978 129.494 110.757 130.048C113.75 132.147 115.348 135.79 119.201 136.978C119.652 137.136 120.185 137.888 120.226 138.403C120.349 140.423 121.661 140.977 123.423 141.492C127.522 142.719 131.129 144.699 132.81 149.016H132.851Z" fill="#00AEFF"/>
<path d="M210.078 274.818C209.956 273.036 209.75 271.491 212.251 271.848C212.497 271.848 212.825 270.818 213.276 270.383C213.891 269.749 214.547 268.997 215.366 268.64C216.924 268.007 218.645 267.729 220.244 267.135C223.032 266.067 225.819 264.958 228.524 263.69C230.656 262.701 232.623 261.513 235.123 261.949C235.779 262.067 236.476 261.949 237.051 262.147C237.747 262.384 238.69 262.701 238.936 263.215C239.223 263.77 239.099 264.958 238.649 265.314C235.164 268.165 232.419 271.887 227.909 273.472C227.705 273.551 227.418 273.551 227.294 273.709C224.836 276.916 220.9 278.105 217.457 279.371C214.751 280.361 213.276 282.539 210.693 283.529C206.226 285.272 201.963 287.647 197.659 289.746C194.748 291.171 191.878 292.637 189.009 294.102C188.845 294.181 188.886 294.695 188.681 294.814C188.026 295.171 187.288 295.686 186.673 295.606C186.222 295.567 185.566 294.656 185.566 294.142C185.566 292.716 185.033 292.201 183.598 291.924C182.86 291.765 181.918 290.696 181.795 289.905C181.713 289.271 182.738 288.518 183.311 287.845C183.516 287.607 184.049 287.528 184.213 287.291C186.263 283.806 190.157 282.737 193.396 280.797C193.969 280.48 194.625 280.163 194.994 279.688C196.388 277.788 198.601 277.431 200.651 276.718C201.266 276.52 201.921 276.283 202.454 275.926C204.135 274.659 205.652 273.749 207.496 275.807C207.742 276.085 209.259 275.253 210.119 274.976L210.078 274.818Z" fill="#00AEFF"/>
<path d="M198.435 65.1073C197.738 65.9388 197.329 66.4932 196.714 67.206C197.37 67.206 197.698 67.206 198.026 67.206C200.567 67.008 201.386 67.5228 201.633 69.9778C201.755 71.1261 202.042 71.5221 203.149 71.4826C204.502 71.443 205.24 71.9577 205.486 73.3833C205.69 74.3335 206.552 75.2047 207.248 76.353C206.552 76.2738 206.018 76.1947 205.486 76.1551L205.24 76.6698C205.978 76.9867 206.715 77.541 207.453 77.6202C209.544 77.739 210.773 78.4121 210.65 80.7088C210.65 81.3028 211.225 82.2927 211.757 82.4908C214.094 83.2827 214.339 85.0646 214.995 86.6485C216.061 87.876 217.373 88.9451 218.152 90.3311C219.299 92.2714 220.202 94.4096 221.062 96.5083C221.841 98.3694 222.661 100.27 222.906 102.21C223.071 103.359 222.21 104.665 221.677 106.408C220.611 105.299 219.792 104.428 218.93 103.517C216.635 104.665 216.184 104.467 214.626 102.329C213.561 100.943 212.085 99.8346 211.019 98.4486C209.913 96.9835 209.01 95.36 208.068 93.8157C207.781 93.3405 207.74 92.5486 207.33 92.3506C204.338 90.9646 203.026 88.272 201.468 85.7377C201.386 85.619 201.346 85.4605 201.223 85.3813C196.795 83.2035 196.017 78.0954 192.573 75.2047C190.278 73.2644 190.073 69.8986 186.999 68.3939C185.933 67.8791 185.687 65.82 184.949 64.5529C184.539 63.8798 183.924 63.0482 183.186 62.8502C180.891 62.1771 180.768 60.5139 181.055 58.8112C181.383 56.9897 182.408 55.9998 184.621 56.2374C186.261 56.4354 187.9 56.0394 188.352 58.2173C188.393 58.4944 189.049 58.6924 189.418 58.8508C191.918 59.92 194.09 61.3059 195.689 63.563C196.181 64.2757 197.329 64.5925 198.354 65.1865L198.435 65.1073ZM194.951 69.8194C194.705 69.7006 194.459 69.5818 194.213 69.463C194.09 71.4826 192.86 71.1657 191.549 70.7302C191.466 70.8886 191.385 71.0866 191.303 71.2449L193.557 73.8584C193.762 73.8188 194.008 73.7792 194.213 73.7396C194.459 72.4329 194.705 71.1658 194.91 69.859L194.951 69.8194Z" fill="#00AEFF"/>
<path d="M429.912 32.1226C429.747 34.1422 430.403 37.0327 429.215 38.8543C427.862 40.8738 427.288 42.5368 427.452 44.8336C427.452 45.3879 426.018 46.3383 425.115 46.5758C422.779 47.1302 422.329 47.7241 423.722 49.4665C425.198 51.3672 423.066 52.2383 422.615 53.5846C421.96 55.5645 421.222 57.5048 420.279 59.3659C419.295 61.3062 418.066 63.1277 417 65.0284C416.344 66.1767 415.851 67.3647 415.278 68.5526C415.196 68.7506 415.278 69.0674 415.155 69.1466C412.409 71.5225 412.818 75.3238 410.769 78.0164C410.4 78.5312 409.949 78.9668 409.458 79.4024C407.818 80.8675 405.85 82.0951 405.071 84.3521C404.907 84.8273 403.76 84.9461 403.391 85.1044C402.858 86.0152 402.489 87.0447 401.792 87.7576C400.194 89.3019 398.922 87.8367 397.979 86.8864C397.488 86.4112 397.488 85.0648 397.775 84.3125C398.841 81.5406 400.029 78.8084 401.3 76.1158C401.546 75.601 402.243 75.2842 402.694 74.8486C403.227 74.2943 403.677 73.6607 404.17 73.0668C404.005 72.9083 403.842 72.75 403.677 72.5916C403.022 72.7896 402.366 72.9479 401.71 73.146C401.874 71.5225 402.694 70.6117 404.374 70.1761C406.219 69.6613 406.178 69.3842 404.948 67.7211C404.702 67.3647 404.948 66.5331 405.154 65.9788C405.563 64.9888 406.219 64.1176 406.588 63.1277C407.039 61.9398 407.039 60.5934 407.654 59.5243C408.392 58.2176 409.375 56.99 410.482 55.9209C411.466 54.931 412.778 54.337 412.286 52.4759C412.081 51.6443 413.024 50.5356 413.434 49.5853C414.704 46.655 415.975 43.7644 417.287 40.8342C417.738 39.8442 417.697 38.1415 419.664 39.2503C419.91 39.369 420.607 39.0918 420.77 38.8147C420.976 38.4583 420.976 37.8643 420.77 37.4683C419.828 35.0133 420.361 32.281 422.615 30.9347C423.64 30.3407 425.362 30.6179 426.714 30.7763C427.658 30.8951 428.559 31.489 429.912 32.0434V32.1226ZM423.681 43.9624C423.968 43.9624 424.255 43.9624 424.583 43.9624L424.009 41.1509C423.722 41.1906 423.394 41.2698 423.107 41.3093C423.312 42.2201 423.517 43.0912 423.681 44.002V43.9624Z" fill="#00AEFF"/>
<path d="M332.272 249.078C329.853 249.039 328.623 246.069 329.566 244.445C331.082 241.793 332.804 239.298 334.485 236.724C335.386 235.299 336.289 233.873 337.231 232.447C337.6 231.933 338.051 231.418 338.543 231.022C339.977 229.834 341.536 228.804 342.888 227.538C343.421 227.023 343.339 225.914 343.872 225.359C344.897 224.211 346.209 223.301 347.315 222.152C348.422 221.043 349.364 219.816 350.348 218.628C351.332 217.479 351.783 216.134 353.505 215.381C355.062 214.708 355.882 212.648 357.234 211.382C358.465 210.193 359.94 209.283 361.293 208.214C362.85 206.986 364.326 205.719 365.925 204.531C367.523 203.343 368.917 204.254 370.024 205.244C371.089 206.234 372.77 207.224 371.213 209.045C371.089 209.203 370.885 209.56 370.967 209.599C372.442 210.867 371.499 211.738 370.516 212.609C369.614 213.44 368.63 214.193 367.81 215.104C366.991 216.015 366.335 217.083 365.638 218.073C365.187 218.707 364.9 219.539 364.326 219.975C361.334 222.112 359.489 225.28 356.865 227.736C354.406 230.072 351.66 232.131 349.282 234.507C347.601 236.17 346.209 238.07 344.774 239.932C341.658 243.931 337.559 246.624 333.009 248.801C332.763 248.92 332.435 248.92 332.353 248.96L332.272 249.078ZM346.167 228.052C346.495 228.25 346.823 228.448 347.192 228.646C347.848 227.736 348.463 226.825 349.119 225.914C348.626 225.676 347.684 225.201 347.684 225.24C347.151 226.151 346.7 227.102 346.209 228.013L346.167 228.052Z" fill="#00AEFF"/>
<path d="M416.671 501.316C415.688 502.227 415.196 503.059 414.458 503.336C412.204 504.128 410.359 503.534 409.539 501.792C409.047 500.722 409.088 499.455 408.76 498.307C408.596 497.673 408.35 497.04 407.94 496.564C407.203 495.693 405.686 494.941 405.644 494.07C405.563 492.525 404.415 491.852 403.759 490.823C402.612 489.041 401.464 487.26 400.398 485.477C400.029 484.843 399.824 484.091 399.455 483.181C400.029 482.587 400.685 481.874 401.751 480.725C398.964 481.517 397.816 480.725 397.16 478.469C396.34 475.618 394.905 472.885 393.839 470.074C393.388 468.846 393.142 467.738 391.708 466.946C389.863 465.956 389.453 459.779 390.847 458.313C391.052 458.076 391.503 457.798 391.79 457.838C394.291 458.194 396.873 458.274 399.209 459.105C400.439 459.541 401.259 461.124 402.078 462.352C402.858 463.541 403.39 464.886 404.046 466.154C404.252 466.589 404.743 467.144 404.62 467.461C403.677 469.757 405.85 470.47 406.875 471.777C407.572 472.687 408.145 473.677 408.637 474.707C408.965 475.301 409.17 475.974 409.252 476.647C409.457 477.914 409.539 479.182 409.621 480.448C410.604 480.25 412.777 481.557 413.269 483.221C413.802 485.121 414.007 487.101 414.704 488.962C415.114 490.071 416.18 490.982 416.958 492.01C417.45 492.684 417.983 493.357 418.598 494.189C417.778 494.466 417.204 494.704 416.261 495.021C417.286 495.535 418.024 495.97 418.598 496.248C418.434 497.159 418.106 497.951 418.27 498.584C419.171 501.712 419.131 501.792 416.712 501.316H416.671Z" fill="#00AEFF"/>
<path d="M80.7508 180.021C79.726 179.941 78.7012 179.941 77.7175 179.783C74.848 179.347 71.9787 178.872 69.1094 178.357C67.1828 178.001 65.2562 177.565 63.3296 177.208C63.1248 177.208 62.8378 177.525 62.5919 177.605C61.0342 178.08 59.7635 178.08 58.4108 176.773C57.591 175.982 55.9104 175.467 54.6806 175.625C51.9343 175.982 49.4338 175.546 46.7694 174.833C44.4739 174.199 42.2604 172.339 39.473 173.764C39.1041 173.962 37.9564 172.616 37.0546 171.903C36.5627 172.061 35.7839 172.418 35.005 172.497C34.5131 172.537 33.9802 172.18 33.5294 171.943C33.4474 171.943 33.6114 171.15 33.8163 171.071C34.3492 170.913 34.9641 170.913 35.5379 170.913C35.7839 170.913 36.0298 171.032 36.5217 171.19C36.4807 170.16 36.1938 169.249 36.4397 168.537C36.6447 167.983 37.5465 167.31 38.0794 167.31C39.0221 167.31 40.0879 167.706 40.8257 168.26C42.3424 169.368 42.6703 168.498 42.8753 167.587C44.023 167.508 45.0478 167.389 46.0315 167.349C48.532 167.27 50.9914 167.23 53.4919 167.23C53.9838 167.23 54.5986 167.587 54.9675 167.428C56.7302 166.676 58.0418 167.032 59.1896 168.498C59.4355 168.814 60.2963 168.973 60.7063 168.775C64.6004 167.191 68.1666 168.339 71.6508 169.883C72.5116 170.24 73.0445 170.556 74.1512 170.398C75.8728 170.16 77.7175 170.596 79.4391 170.992C81.3247 171.467 83.0872 172.576 85.1777 171.824C85.4647 171.705 86.2025 171.982 86.3255 172.26C87.0223 173.882 88.498 173.368 89.7687 173.764C92.4327 174.595 95.4665 175.388 97.3927 177.129C98.4994 178.119 99.7296 179.783 100.549 181.366C101.205 182.634 98.9509 184.495 97.0238 184.178C95.6301 183.941 94.2781 183.347 92.9252 182.911C92.5154 182.792 92.1465 182.475 91.695 182.436C88.9083 181.96 86.0796 181.564 83.3332 180.97C82.4724 180.812 81.7345 180.1 80.9557 179.664C80.8737 179.783 80.7918 179.902 80.7098 180.021H80.7508Z" fill="#00AEFF"/>
<path d="M247.422 209.718C250.414 209.322 253.365 210.471 255.989 212.649C258.366 214.589 261.195 216.134 263.122 218.391C265.253 220.885 268.901 220.608 270.868 223.103C272.099 224.686 273.615 226.073 274.968 227.578C275.993 228.725 276.976 229.874 277.837 231.102C278.739 232.368 279.19 234.111 277.591 234.824C276.648 235.22 274.681 234.507 273.779 233.675C272.18 232.21 270.992 230.31 269.639 228.606C265.58 229.28 268.655 231.221 268.983 232.804C268.409 232.883 267.876 233.121 267.671 232.962C263.86 229.993 258.735 229.28 255.292 225.597C253.899 224.093 251.357 223.578 249.43 222.548C248.898 222.271 248.488 221.717 248.16 221.202C247.422 220.014 246.889 219.143 245.004 219.579C242.749 220.094 241.724 217.876 240.249 216.687C239.469 216.055 238.568 215.54 237.707 214.985C237.052 214.589 236.355 214.233 235.699 213.797C235.453 213.639 235.33 213.203 235.084 213.203C231.641 212.807 230.657 209.837 228.976 207.699C228.238 206.749 228.075 205.402 227.664 204.215C228.894 203.898 230.205 203.106 231.313 203.304C233.239 203.66 235.043 204.65 236.928 205.402C237.256 205.521 237.502 205.838 237.83 205.917C240.085 206.392 242.421 206.67 244.594 207.303C245.536 207.581 246.233 208.649 247.422 209.718Z" fill="#00AEFF"/>
<path d="M89.8103 230.349C88.5806 229.438 87.5558 228.685 86.9409 228.211C88.1707 226.825 89.4414 225.32 90.7534 223.816L90.3845 223.34C91.5729 223.499 92.8023 223.657 94.4422 223.895C93.4991 223.261 92.844 222.786 92.188 222.35C93.9916 220.252 95.6716 220.212 98.0902 221.518C99.0334 222.033 100.509 221.756 101.738 221.677C103.337 221.558 104.936 221.162 106.576 221.162C108.051 221.162 109.568 221.558 111.043 221.756C113.421 222.112 115.758 222.548 118.135 222.865C120.144 223.142 122.152 223.261 124.16 223.538C128.546 224.132 132.933 225.003 137.36 225.399C139.778 225.636 140.393 227.617 141.869 228.764C141.992 228.844 141.582 229.913 141.172 230.23C138.097 232.645 134.49 233.715 130.596 234.348C126.743 234.942 122.931 234.903 119.119 234.427C118.012 234.269 116.987 233.398 116.413 233.12C113.626 233.2 111.248 233.358 108.871 233.279C106.207 233.16 103.501 232.962 100.878 232.447C98.1311 231.894 95.4671 230.864 92.7205 230.23C91.7365 229.992 90.6298 230.349 89.8103 230.388V230.349ZM110.347 223.063C110.347 223.063 109.936 223.301 109.732 223.419C109.896 223.934 109.936 224.844 110.224 224.924C111.495 225.32 112.847 225.438 114.405 225.716C114.118 222.944 110.716 225.32 110.305 223.063H110.347Z" fill="#00AEFF"/>
<path d="M359.818 402.679C361.662 402.204 363.794 404.382 362.891 405.926C362.318 406.916 361.457 407.787 360.842 408.579C359.366 408.342 357.809 408.263 356.374 407.787C355.801 407.589 355.349 406.678 355.104 406.005C354.365 403.788 353.833 401.491 353.136 399.274C352.193 396.344 351.127 393.452 350.103 390.522C349.979 390.126 349.651 389.572 349.775 389.295C351.045 387.236 349.037 386.008 348.626 384.385C347.971 381.969 347.561 379.475 347.438 377.02C347.397 376.069 348.299 374.921 349.078 374.168C350.103 373.139 349.611 372.664 348.668 372.308C346.209 371.318 345.143 369.338 345.716 366.724C345.798 366.328 345.429 365.892 345.306 365.457C344.774 363.279 343.585 361.062 345.881 359.2C343.994 356.865 346.085 354.29 350.594 353.42C350.513 353.973 350.43 354.488 350.348 354.805C351.127 355.28 352.521 355.716 352.521 356.152C352.521 356.944 351.701 357.696 351.169 358.567C354.12 359.319 354.735 361.577 355.104 364.349C355.473 367.041 356.661 369.654 357.44 372.308C357.645 372.981 358.628 374.01 356.866 374.168C356.907 374.604 356.784 375.198 357.03 375.396C357.931 376.109 358.956 376.664 359.612 377.099C359.53 379.95 358.711 382.603 360.391 384.9C361.703 386.721 361.703 388.583 361.375 390.562C361.047 392.622 360.801 394.601 362.031 396.542C362.563 397.333 362.563 398.442 362.728 399.432C362.891 400.422 362.646 401.016 361.416 401.135C360.719 401.214 360.105 401.808 359.49 402.164C359.571 402.322 359.694 402.481 359.777 402.639L359.818 402.679ZM350.061 363.873C351.701 363.121 352.644 362.685 353.586 362.289L353.751 361.616C352.849 361.339 351.988 361.062 351.086 360.745C350.8 361.616 350.513 362.487 350.061 363.873Z" fill="#00AEFF"/>
<path d="M463.523 102.567C464.098 101.181 463.401 98.8453 466.516 99.6372C465.245 98.1325 466.27 97.4593 467.254 96.4298C469.549 94.0539 471.599 91.4405 473.73 88.9062C473.812 88.7874 473.936 88.6687 474.058 88.6291C476.763 87.8371 477.543 85.0652 479.633 83.6793C480.494 83.125 481.395 82.6498 482.42 82.333C484.921 79.0067 488.159 76.3537 492.218 75.047C493.57 74.6114 495.415 75.5618 496.972 75.9974C497.259 76.0766 497.71 76.8685 497.587 77.0268C496.481 78.6504 497.587 80.9074 495.578 82.333C494.021 83.4417 492.914 85.1049 491.521 86.4115C490.946 86.9659 490.045 87.2035 489.717 87.4015C488.938 88.4706 488.364 89.3022 487.708 90.0545C485.658 92.3116 483.65 94.6083 481.478 96.7466C479.674 98.4889 477.625 100.033 475.698 101.696C475.493 101.894 475.206 102.013 475.042 102.211C473.525 104.072 472.214 106.092 470.533 107.834C468.976 109.457 467.008 110.764 465.286 112.269C464.344 113.1 463.442 114.051 462.622 115.001C461.228 116.743 459.302 116.427 457.58 116.031C456.637 115.833 455.325 114.843 455.162 114.051C454.915 112.507 455.121 110.843 456.965 109.814C457.703 109.378 458.318 108.388 458.605 107.517C459.384 104.983 460.49 102.884 463.442 102.528L463.523 102.567Z" fill="#00AEFF"/>
<path d="M590.185 286.183C585.349 287.251 580.512 285.747 575.019 286.499C573.83 287.489 567.518 285.985 566.616 283.806C562.189 286.499 557.885 285.39 553.581 283.45C552.925 283.133 552.392 282.54 551.737 282.302C550.178 281.668 548.744 280.638 549.441 279.054C549.891 277.986 551.409 276.996 552.638 276.599C554.154 276.124 555.917 276.283 557.434 276.203C557.68 277.035 557.844 277.59 558.008 278.184C558.377 277.827 558.786 277.51 559.114 277.075C560.426 275.253 563.05 275.213 564.484 276.996C564.853 277.471 565.304 277.907 565.796 278.421C566.903 275.609 568.05 274.818 570.469 275.411C572.273 275.847 574.691 273.709 575.757 276.956C577.396 274.976 579.036 274.66 581.29 275.649C582.807 276.322 584.652 276.639 586.497 275.728C587.398 275.292 588.792 275.411 589.898 275.649C592.604 276.283 595.596 275.649 598.097 277.669C599.122 278.501 601.13 278.144 602.606 278.54C603.835 278.896 605.025 279.529 606.5 280.203C605.557 281.233 605.066 281.787 604.45 282.46C604.656 282.737 604.942 283.133 605.229 283.568C603.548 284.083 601.991 284.559 600.393 285.074C600.393 285.272 600.474 285.47 600.474 285.668C601.171 285.747 601.909 285.866 602.606 285.945C602.606 286.103 602.688 286.262 602.729 286.42C602.073 286.539 601.253 287.013 600.843 286.776C598.384 285.39 596.006 286.341 593.546 286.697C592.481 286.855 591.333 286.381 590.226 286.183H590.185Z" fill="#00AEFF"/>
<path d="M54.2719 69.0274C53.5341 67.9186 52.1814 66.7703 52.2633 65.7408C52.3863 64.1172 53.985 63.2461 55.8295 63.3649C56.0345 63.3649 56.2805 63.4441 56.4854 63.3649C57.7151 62.8897 59.3548 61.6226 60.0106 61.979C62.2651 63.3253 64.1917 65.226 66.2002 66.9287C66.5692 67.2455 66.7331 67.879 67.143 68.0374C71.3241 69.6213 73.7835 73.2248 77.1447 75.7986C79.2353 77.4221 81.8997 78.4121 84.1132 79.8772C86.3267 81.3423 89.1549 82.1738 90.0162 85.1041C90.098 85.3021 90.426 85.4605 90.6713 85.6188C93.4588 87.2424 96.1237 89.0639 98.05 91.6377C98.5424 92.3109 98.9113 93.38 98.7468 94.0928C98.5833 94.6867 97.5584 95.2015 96.8206 95.4787C93.418 96.7458 90.5895 95.3599 87.7613 93.6968C85.9168 92.6276 83.7033 92.1129 81.8997 90.9646C78.9484 89.1034 76.243 86.8068 73.3326 84.8665C71.57 83.6785 69.6025 82.8074 67.7579 81.7779C67.389 81.5799 66.8151 81.3423 66.7331 81.0255C65.9542 78.3725 63.0439 77.9765 61.3633 76.3134C59.1908 74.175 56.8953 72.1556 54.7228 70.0173C54.5178 69.8193 54.8047 69.1858 54.8868 68.7502L54.2309 68.9482L54.2719 69.0274Z" fill="#00AEFF"/>
<path d="M231.024 468.926C231.146 469.163 231.352 469.361 231.433 469.599C231.68 470.193 232.254 471.183 232.049 471.381C231.474 471.896 230.614 472.292 229.835 472.41C228.769 472.569 227.622 472.45 226.228 472.45C225.654 470.906 225.941 469.203 226.514 467.382C227.211 465.164 227.498 462.868 228.073 460.61C228.81 457.878 229.097 457.799 231.598 459.066C231.68 458.987 231.884 458.829 231.843 458.789C229.671 455.146 232.664 452.374 233.729 449.365C234.713 446.633 236.885 444.771 239.837 443.901C240.123 443.821 240.534 443.069 240.41 442.95C238.484 440.653 240.697 438.792 241.19 436.812C241.928 434.04 242.993 431.348 243.977 428.616C244.141 428.101 244.469 427.626 244.797 427.19C245.37 426.477 246.026 425.804 246.846 424.854C247.584 425.052 248.609 425.052 247.83 423.27C246.929 421.25 247.625 419.706 249.47 418.518C249.921 418.201 250.33 417.726 250.617 417.251C252.38 414.202 253.159 414.123 255.946 416.816C255.618 417.29 255.249 417.805 254.799 418.478C256.684 420.063 255.865 422.082 255.413 423.943C255.003 425.725 255.044 428.18 251.355 427.507C254.675 430.397 251.888 432.813 251.519 435.308C251.314 436.654 250.986 438.238 250.125 439.228C246.682 443.307 245.535 448.375 243.034 452.889C242.911 453.087 242.87 453.285 242.706 453.443C239.304 457.403 237.172 462.036 235.205 466.788C234.467 468.569 233.606 470.55 230.86 468.965L231.024 468.926Z" fill="#00AEFF"/>
<path d="M565.55 75.245C565.139 78.2148 562.598 79.0068 560.59 80.5115C558.049 82.4122 554.646 82.8874 552.474 84.7088C548.744 87.7974 543.784 87.8766 540.012 90.6089C538.414 91.7968 536.487 92.9848 534.561 93.2224C531.651 93.5788 532.921 90.015 531.445 89.1438C530.913 90.6485 530.626 92.3116 529.764 93.6184C528.33 95.915 527.347 95.7962 525.829 93.3807C525.215 93.7767 524.477 94.0539 524.067 94.5687C523.124 95.7962 522.181 95.2023 521.403 94.5687C520.05 93.4996 519.968 90.5693 521.443 89.5794C524.313 87.6391 527.264 85.8175 530.339 84.1941C534.151 82.1746 538.086 80.4323 541.98 78.5712C542.39 78.3732 542.718 78.1356 543.128 77.9772C546.448 76.7101 549.851 75.6409 553.048 74.1362C555.507 72.9879 557.721 71.2456 560.057 69.8201C562.516 68.3154 565.017 66.8898 567.517 65.4643C568.419 64.9496 571.411 66.4939 572.108 67.761C573.83 70.9288 573.502 72.0375 570.182 74.1758C568.46 75.2846 566.902 75.6146 565.508 75.1657L565.55 75.245Z" fill="#00AEFF"/>
<path d="M375.844 314.336C379.164 314.851 382.32 321.187 380.804 323.879C383.099 324.751 384.78 328.433 384.247 331.403C386.379 332.908 387.731 334.848 388.387 337.383C388.715 338.689 389.74 339.837 390.231 341.144C391.502 344.589 392.855 348.034 393.838 351.558C394.782 354.845 395.438 358.25 395.929 361.616C396.094 362.923 395.438 364.309 395.15 365.576C393.429 364.705 392.077 363.913 390.642 363.319C388.018 362.21 388.264 359.478 387.158 357.577C386.174 355.954 385.436 354.211 384.616 352.469C384.083 351.36 383.427 350.251 383.141 349.064C382.894 347.915 382.976 346.806 381.747 345.935C381.173 345.5 381.295 344.233 380.886 343.48C380.189 342.173 378.878 341.065 378.631 339.718C378.181 336.987 376.418 334.887 375.598 332.314C375.024 330.492 373.794 328.829 373.056 327.047C371.704 323.879 370.474 320.672 369.245 317.425C368.958 316.633 368.876 315.762 368.711 314.93C368.22 312.396 370.064 310.772 372.646 311.485C374.163 311.921 376.335 311.485 375.885 314.257L375.844 314.336Z" fill="#00AEFF"/>
<path d="M414.293 233.517C411.629 234.824 409.744 235.774 407.817 236.724C407.407 235.656 407.12 234.903 406.587 233.596C406.218 234.586 405.931 234.943 405.972 235.18C406.669 237.675 405.522 238.823 403.103 239.219C402.53 239.298 401.833 239.497 401.546 239.892C399.987 242.149 397.323 242.902 395.151 244.366C393.757 245.277 391.913 245.555 390.232 246.069C389.822 246.188 389.207 245.951 388.962 246.149C387.034 247.574 386.174 246.862 386.092 245.238C384.862 245 383.633 245.119 383.14 244.564C382.69 244.05 382.853 242.823 383.099 241.991C383.305 241.199 383.837 240.367 384.493 239.853C386.747 238.15 388.674 236.13 391.789 235.576C393.511 235.259 394.905 233.517 396.545 232.645C399.987 230.824 403.513 229.161 406.956 227.38C408.145 226.746 409.251 225.874 410.563 225.003C410.645 225.637 410.727 226.231 410.85 226.825C411.055 226.825 411.301 226.944 411.466 226.865C411.752 226.706 412.121 226.508 412.285 226.231C413.966 223.618 415.974 221.835 419.54 222.311C420.114 222.39 420.77 221.241 421.508 220.885C422.943 220.172 424.459 219.658 425.935 219.064C426.222 218.945 426.632 218.866 426.795 218.628C427.492 217.519 428.969 217.361 429.87 218.232C430.362 218.707 431.264 219.46 431.592 219.301C432.452 218.905 433.108 218.074 434.051 217.202C434.625 217.638 436.921 215.421 437.084 218.628C437.577 218.232 437.863 217.836 438.273 217.717C438.642 217.598 439.421 217.638 439.462 217.796C439.913 219.103 440.404 220.41 440.446 221.756C440.446 222.231 439.298 222.905 438.56 223.222C435.527 224.449 432.493 225.637 429.419 226.667C428.763 226.904 427.82 226.389 427.042 226.35C426.467 226.35 425.484 226.35 425.402 226.587C424.5 229.755 421.426 230.547 418.967 231.696C417.737 232.249 415.81 231.419 414.211 231.22C413.474 231.102 412.736 230.983 411.998 230.864C412.326 231.617 412.613 232.368 413.023 233.081C413.146 233.279 413.555 233.279 414.335 233.556L414.293 233.517Z" fill="#00AEFF"/>
<path d="M194.789 157.884C193.969 157.172 193.149 156.499 192.329 155.786C191.878 155.39 191.55 154.756 191.1 154.638C187.943 153.925 186.181 151.51 185.115 149.055C184.295 147.154 182.901 146.164 181.467 145.491C178.803 144.184 178.269 141.531 176.712 139.591C175.933 138.601 175.4 137.413 174.293 136.462C174.54 135.71 174.826 134.997 174.949 134.245C175.072 133.532 174.949 132.78 175.113 132.067C175.237 131.433 175.441 130.721 175.851 130.246C176.138 129.929 177.081 129.652 177.326 129.85C177.819 130.285 178.106 130.958 178.434 131.592C178.679 132.067 178.885 132.582 179.089 133.097C179.786 132.463 180.278 132.028 180.77 131.592C181.385 132.344 182 133.136 182.655 133.889C182.983 134.285 183.311 134.681 183.68 134.997C184.582 135.789 185.484 136.66 186.509 137.215C190.977 139.749 194.215 143.511 197.289 147.391C197.535 147.708 197.904 148.104 198.273 148.184C201.962 149.134 203.028 152.658 205.365 154.915C208.152 157.607 210.612 160.578 213.317 163.349C214.095 164.181 216.022 168.299 215.776 169.407C215.448 170.992 214.26 171.348 212.784 170.398C212.456 170.16 211.964 169.922 211.636 170.001C208.316 170.873 206.717 168.339 204.668 166.755C203.725 166.042 202.946 165.092 201.921 164.538C200.568 163.825 199.175 163.31 198.847 161.607C198.806 161.33 198.15 161.132 197.822 160.855C196.757 159.984 195.732 159.073 194.666 158.162C194.707 158.083 194.789 158.003 194.829 157.924L194.789 157.884Z" fill="#00AEFF"/>
<path d="M601.172 180.694C599.942 181.406 599.286 181.96 598.548 182.158C596.99 182.515 595.392 182.752 593.793 182.911C591.58 183.188 590.022 181.96 588.669 180.456C588.588 180.337 588.423 180.179 588.464 180.1C588.875 178.753 588.997 177.209 589.858 176.219C590.473 175.466 592.071 175.15 593.22 175.229C595.392 175.387 597.196 175.308 598.138 173.051C598.22 172.814 598.548 172.536 598.753 172.536C601.294 172.655 603.262 171.15 605.557 170.556C606.91 170.2 608.427 170.358 609.861 170.16C611.788 169.883 613.715 169.527 615.641 169.171C616.994 168.933 618.347 168.656 619.699 168.418C620.355 168.299 621.216 168.458 621.626 168.101C624.003 166.002 626.627 167.032 629.168 167.428C629.496 167.468 629.947 167.468 630.234 167.309C633.349 165.685 633.431 165.725 635.03 168.775C635.358 167.547 635.604 166.676 635.891 165.527C637.284 166.913 638.678 168.062 639.703 169.408C640.113 169.962 640.072 171.15 639.744 171.824C639.498 172.338 638.432 172.616 637.735 172.695C637.038 172.774 636.3 172.378 635.563 172.418C635.071 172.418 634.374 172.695 634.169 173.051C632.775 175.863 631.628 176.575 628.553 176.417C627.692 178.278 625.52 179.387 623.388 179.228C622.445 179.149 621.421 179.505 620.478 179.585C618.06 179.783 615.6 179.981 613.181 180.139C612.854 180.139 612.485 180.06 612.157 180.139C610.108 180.773 608.058 181.524 606.008 182.119C604.491 182.554 602.975 182.871 601.991 181.05C601.828 180.694 601.131 180.614 601.131 180.575L601.172 180.694Z" fill="#00AEFF"/>
<path d="M362.811 79.6797C362.974 78.9669 363.098 78.2146 363.343 76.987C364.327 78.0165 364.942 78.6502 365.68 79.4421C365.393 77.5809 366.459 76.6703 368.18 76.7099C368.959 76.7099 370.189 77.3434 370.353 77.8978C371.378 81.2636 372.362 84.5106 369.779 87.916C368.59 89.5395 368.877 92.1529 368.427 94.2913C368.262 95.1228 368.058 96.0731 367.565 96.7464C366.664 97.9343 365.557 98.9242 364.532 100.033C364.368 100.231 364.123 100.548 364.204 100.746C365.27 105.497 362.688 109.497 361.458 113.773C361.253 114.526 360.188 115.12 359.367 115.555C358.384 116.07 357.769 116.308 358.301 117.733C358.876 119.277 358.301 120.901 356.621 121.97C355.515 122.683 354.613 123.712 353.547 124.544C353.219 124.782 352.768 124.98 352.358 124.98C351.333 124.9 349.406 121.812 349.161 120.822C348.136 116.664 350.718 113.219 351.497 109.457C352.317 105.537 354.203 101.854 355.597 98.053C355.801 97.4591 355.924 96.8651 356.088 96.2711C357.031 93.3409 358.056 90.4503 358.916 87.52C359.244 86.4113 359.408 85.263 359.45 84.1146C359.491 82.8079 361.294 80.1945 362.77 79.6004L362.811 79.6797Z" fill="#00AEFF"/>
<path d="M508.286 209.521C508.245 209.719 508.041 210.392 507.795 211.303C507.221 210.788 506.852 210.471 506.483 210.115C506.401 210.234 506.278 210.353 506.319 210.471C506.401 212.095 505.991 213.283 504.269 213.995C502.466 214.748 500.909 216.015 499.146 216.767C497.383 217.559 494.637 216.886 493.899 215.738C492.957 214.312 493.325 211.778 495.046 210.551C497.506 208.768 500.171 207.304 502.753 205.719C504.638 204.531 506.524 203.344 508.451 202.156C510.951 200.611 513.411 198.948 516.034 197.641C517.018 197.166 518.412 197.443 519.764 197.404C519.6 197.127 519.354 196.691 519.149 196.256C521.157 194.395 523.453 193.365 526.241 193.286C526.855 193.286 527.388 192.296 527.962 191.861C529.151 190.95 530.176 189.247 531.611 190.672C534.521 189.128 537.144 187.624 539.891 186.356C542.801 185.01 545.793 183.862 548.786 182.792C550.302 182.238 551.04 182.436 551.327 184.574C551.572 186.594 550.835 188.178 550.63 189.96C550.63 190.316 550.056 190.791 549.646 190.95C546.408 192.138 543.129 193.246 539.891 194.395C539.809 194.395 539.726 194.395 539.685 194.474C537.759 196.533 534.808 195.9 532.594 196.968C529.807 198.354 527.348 200.374 524.683 201.997C522.51 203.344 520.256 204.571 517.961 205.719C515.665 206.908 513.328 207.977 510.951 209.006C510.254 209.323 509.435 209.362 508.327 209.56L508.286 209.521Z" fill="#00AEFF"/>
<path d="M490.413 434.793C490.249 436.1 490.126 437.287 489.921 439.149C488.814 438.198 488.076 437.842 487.748 437.247C486.724 435.347 484.879 434.832 482.953 434.397C482.502 434.278 481.724 433.961 481.724 433.723C481.641 430.912 478.853 430.16 477.378 428.497C474.714 425.526 471.557 422.993 469.057 419.904C468.032 418.637 467.172 417.33 465.696 416.538C465.572 416.459 465.327 416.38 465.368 416.301C465.45 413.845 462.908 413.33 461.802 411.747C460.08 409.291 459.711 406.678 460.285 403.827C460.572 402.401 461.474 401.609 462.908 401.966C464.302 402.322 466.721 401.689 466.024 404.501C471.107 403.312 481.477 412.539 480.247 416.697C481.641 417.488 483.116 418.082 484.265 418.993C486.355 420.696 482.994 421.408 483.363 423.151C486.97 421.765 488.651 423.587 490.167 426.477C491.028 428.101 492.955 429.288 494.636 430.397C496.07 431.387 495.988 432.259 495.086 433.367C493.364 435.426 492.176 435.783 490.413 434.793Z" fill="#00AEFF"/>
<path d="M348.791 183.584C349.078 184.099 349.365 184.653 349.734 185.168C350.677 186.396 351.086 187.425 348.996 187.901C348.586 187.98 348.299 188.573 347.93 188.89C347.398 189.365 346.823 189.84 346.291 190.316C345.758 189.365 344.159 188.732 345.348 187.267C345.512 187.029 345.676 186.792 345.922 186.475C342.929 184.179 344.774 181.683 345.717 179.268C347.192 175.506 348.791 171.784 350.39 168.023C350.882 166.914 351.374 165.805 351.948 164.736C353.259 162.162 354.571 159.548 356.006 157.014C356.58 155.985 357.891 155.272 358.178 154.242C359.244 150.52 362.482 148.422 364.654 145.57C365.885 143.947 367.688 143.472 369.696 144.858C370.352 145.333 371.295 145.372 372.647 145.729C370.844 147.629 369.164 149.371 367.483 151.114C367.606 151.272 367.729 151.431 367.811 151.589C368.221 151.391 368.63 151.154 369.082 151.035C369.778 150.837 370.517 150.718 371.213 150.559C371.09 151.233 371.131 152.025 370.803 152.54C370.311 153.331 369.533 153.925 369.205 154.559C368.836 156.024 368.836 157.687 368.057 158.875C365.802 162.36 363.589 165.765 362.4 169.804C361.744 171.943 360.146 174.081 358.424 175.625C356.743 177.169 357.563 179.308 356.374 180.773C355.637 181.644 354.734 182.436 353.792 183.109C353.054 183.624 352.111 184.06 351.251 184.139C350.513 184.218 349.693 183.782 348.791 183.505V183.584Z" fill="#00AEFF"/>
<path d="M272.916 475.104C272.629 475.222 272.22 475.42 271.892 475.578C272.097 479.024 273.08 482.588 270.047 485.676C271.645 487.418 270.703 489.596 270.047 491.734C269.309 494.19 268.531 496.644 267.588 499.021C266.44 501.872 265.415 504.841 263.775 507.454C261.521 511.058 258.939 514.543 256.069 517.711C254.348 519.611 251.765 520.007 249.141 518.226C248.978 516.245 248.855 514.147 250.412 512.206C251.232 511.177 251.519 509.712 252.216 508.563C253.446 506.624 254.839 504.762 256.151 502.822C256.52 502.307 256.889 501.753 257.053 501.159C257.422 500.01 257.586 498.823 257.914 497.635C258.405 495.852 259.595 494.467 260.455 492.922C261.562 490.943 261.357 488.289 261.685 485.953C262.095 482.944 262.464 479.973 262.833 476.964C262.915 476.37 262.956 475.737 262.874 475.143C262.709 473.757 266.071 468.53 267.424 468.134C269.022 467.659 271.113 469.084 271.687 471.065C272.056 472.331 272.466 473.638 272.916 475.104Z" fill="#00AEFF"/>
<path d="M183.721 218.628C181.466 220.094 178.966 219.5 176.998 217.718C175.071 215.976 172.899 214.471 170.604 213.203C168.308 211.937 168.103 211.818 169.415 209.917C168.185 209.402 166.997 208.847 165.766 208.293C165.521 208.175 165.234 208.017 164.947 208.056C164.209 208.135 163.143 208.61 162.774 208.293C161.627 207.343 160.766 206.076 159.823 204.967C159.536 204.611 159.29 204.176 158.921 203.938C157.692 203.265 156.502 200.928 157.199 199.978C158.142 198.75 159.454 198.592 160.93 199.226C161.462 199.463 162.037 199.582 162.611 199.741C165.275 200.493 165.766 201.443 164.701 203.938C164.578 204.255 164.537 204.571 164.865 205.244C165.193 204.967 165.644 204.729 165.807 204.413C166.956 201.72 167.201 201.68 169.497 203.383C170.276 203.978 171.382 204.136 172.326 204.531C174.129 205.284 176.014 205.917 177.695 206.908C178.146 207.145 177.982 208.412 178.105 209.283C181.835 207.937 184.376 210.59 187.082 213.005C188.066 213.877 189.336 214.827 190.607 215.025C194.542 215.659 197.125 218.272 199.625 220.727C201.224 222.311 203.314 222.232 204.831 223.46C205.692 224.132 206.47 224.924 207.208 225.756C208.438 227.063 209.75 228.329 210.734 229.795C211.512 230.983 211.922 232.448 212.291 233.874C212.374 234.19 211.758 234.903 211.349 235.022C209.34 235.735 207.946 235.022 206.839 233.279C206.183 232.25 205.2 231.419 204.339 230.468C204.134 230.627 203.929 230.785 203.766 230.944C204.011 231.221 204.216 231.498 204.462 231.736L204.298 232.368C203.56 232.092 202.741 231.894 202.085 231.498C200.814 230.785 199.42 230.072 198.354 229.122C197.289 228.171 196.51 226.865 195.321 225.36C194.502 225.637 193.108 227.459 191.386 225.637C190.32 224.528 189.049 223.578 188.107 222.311C185.811 222.113 183.926 221.4 183.762 218.589L183.721 218.628Z" fill="#00AEFF"/>
<path d="M242.665 138.799C243.075 139.037 243.567 139.314 244.018 139.631C244.428 139.908 244.797 140.462 245.207 140.462C247.092 140.462 247.461 141.848 248.199 143.115C248.732 144.066 249.839 144.739 250.658 145.61C251.437 146.442 252.421 147.194 252.871 148.184C253.527 149.609 253.774 151.193 254.306 152.659C254.43 152.975 255.208 153.054 255.659 153.292C256.479 153.688 257.422 153.965 258.037 154.559C258.569 155.074 258.611 155.985 258.98 156.658C259.84 158.36 260.25 160.182 261.89 161.647C263.981 163.469 265.374 166.003 267.014 168.221C267.177 168.458 267.383 168.775 267.301 169.012C266.522 172.101 268.654 174.2 270.17 176.378C272.548 179.744 272.958 183.426 272.793 187.267C272.711 189.247 271.318 190.87 269.637 190.752C268.285 190.633 266.686 189.048 265.907 187.742C264.759 185.841 264.35 183.545 263.447 181.446C262.956 180.259 262.135 179.229 261.603 178.08C261.152 177.09 260.906 175.982 260.455 174.992C260.046 174.12 259.553 173.328 258.98 172.576C257.217 170.121 254.758 167.904 253.774 165.211C252.871 162.835 250.74 161.449 249.961 159.192C249.633 158.242 249.264 157.331 248.895 156.381C248.609 155.628 248.158 155.034 247.584 154.401C246.272 152.975 243.239 152.223 244.428 149.213C244.551 148.897 243.895 148.303 243.608 147.828C243.198 147.115 242.87 146.402 242.46 145.689C242.296 145.372 242.091 145.056 241.805 144.858C240.165 143.828 240.042 140.344 241.64 139.274C241.887 139.116 242.174 139.037 242.624 138.878L242.665 138.799Z" fill="#00AEFF"/>
<path d="M500.334 355.2C500.128 355.121 499.555 354.923 499.268 354.844C499.391 352.072 499.514 349.499 499.678 346.687C502.547 346.647 505.581 346.568 508.081 349.024C509.106 350.013 510.377 350.726 511.606 351.518C513 352.429 514.434 353.181 514.803 355.082C514.927 355.834 516.074 356.349 516.648 357.062C518.821 359.833 520.953 362.605 523.001 365.417C523.453 366.05 523.494 366.961 523.535 367.238C524.682 367.991 525.666 368.466 526.404 369.139C528.085 370.683 529.683 372.347 531.24 374.009C533.29 376.148 533.086 376.821 530.217 377.85C530.217 377.257 530.134 376.702 530.093 376.267C528.617 376.623 527.264 376.9 525.666 377.296C524.764 380.068 528.864 378.325 529.027 380.425C528.536 380.464 528.043 380.543 527.47 380.583C527.347 381.454 527.224 382.364 527.019 383.711C525.871 382.959 525.092 382.523 524.354 381.968C522.879 380.86 521.362 379.83 520.091 378.563C517.632 376.148 515.296 373.653 512.918 371.158C512.631 370.841 512.467 370.445 512.18 370.129C510.951 368.73 510.322 366.921 510.295 364.704C509.024 366.406 507.999 365.575 507.016 364.665C505.048 362.803 502.957 360.982 501.194 358.923C500.539 358.17 500.662 356.824 500.375 355.319L500.334 355.2Z" fill="#00AEFF"/>
<path d="M315.507 95.7561C316.122 97.34 316.491 98.3695 316.982 99.3991C317.843 101.26 319.032 103.082 319.564 105.022C320.302 107.754 321.368 110.486 320.63 113.456C320.426 114.248 321.082 115.199 321.245 116.07C321.409 116.981 321.204 118.05 321.614 118.842C324.443 124.069 324.156 129.612 323.787 135.235C323.5 139.432 323.664 143.669 322.147 147.669C321.778 148.699 321.082 149.648 320.385 150.48C319.483 151.51 318.499 151.272 317.556 150.361C317.064 149.886 316.408 149.53 315.548 148.897C315.916 147.154 316.326 145.095 316.736 142.996C314.113 141.491 313.211 137.096 315.916 133.612C315.342 133.136 314.769 132.622 314.687 132.542C314.892 130.681 314.973 129.295 315.179 127.909C315.384 126.484 315.753 125.098 315.998 123.673C316.244 122.366 316.45 121.019 316.532 119.713C316.532 119.356 316.039 118.96 315.548 118.287C315.26 119.119 315.056 119.673 314.851 120.188C312.719 120.109 312.637 118.762 312.309 117.099C311.612 113.298 310.424 109.576 309.563 105.774C308.989 103.24 308.58 100.627 308.292 98.0527C308.292 97.6567 309.891 96.7461 309.932 96.7856C311.859 98.8843 313.498 97.6568 315.548 95.7561H315.507Z" fill="#00AEFF"/>
<path d="M184.541 432.971C182.45 432.021 181.303 428.893 182.245 426.992C184.254 422.992 185.894 418.834 188.271 415.073C190.485 411.628 190.812 407.628 192.616 404.065C194.789 399.828 196.592 395.393 198.724 391.116C199.175 390.205 200.117 389.018 201.019 388.859C202.535 388.582 204.503 388.859 205.077 390.601C205.364 391.512 204.831 392.859 204.257 393.809C203.601 394.878 202.495 395.67 201.429 396.818C202.7 396.66 203.642 396.541 204.749 396.422C204.749 399.709 204.749 402.837 204.749 405.965C204.749 406.519 204.38 407.113 204.175 407.668C203.807 408.579 203.519 409.529 202.987 410.281C202.495 410.954 201.716 411.469 200.773 411.865C200.445 412.737 199.175 413.607 200.568 414.954C200.978 415.35 199.994 417.33 199.421 418.438C198.724 419.785 197.699 420.973 196.838 422.24C195.034 424.933 193.231 427.665 191.386 430.397C191.099 430.793 190.689 431.506 190.443 431.427C188.189 430.951 186.55 432.496 184.582 432.932H184.623L184.541 432.971Z" fill="#00AEFF"/>
<path d="M246.56 17.4317C247.667 17.7089 248.937 17.8277 250.003 18.3424C251.479 19.0948 252.79 20.0848 254.102 21.0747C254.43 21.3123 254.471 21.9458 254.758 22.5399C255.332 22.1439 255.741 21.8271 256.111 21.5895C258.653 24.2425 261.235 26.7372 263.53 29.3902C264.965 31.0533 265.989 32.9936 267.261 34.7756C268.039 35.8051 268.818 37.2702 269.925 37.587C272.548 38.4185 273.532 40.4776 274.803 42.4179C276.36 44.7542 278.245 46.8529 279.639 49.2683C280.787 51.2482 282.918 52.8321 282.632 55.5248C282.549 56.3563 283.124 57.3067 283.533 58.0986C285.05 60.9497 284.271 62.8108 280.951 63.8403C278.41 60.5141 275.828 57.1483 273.245 53.7824C273.163 53.6637 273.081 53.4657 272.999 53.4657C270.786 52.7925 270.212 50.8127 269.351 49.0703C269.228 48.8328 268.981 48.516 268.777 48.4764C266.071 48.3576 265.908 45.7838 264.555 44.3978C263.53 43.3287 262.546 42.1803 261.604 41.0716C260.497 39.8045 259.472 38.4581 258.406 37.1514C257.873 36.5178 257.341 35.9635 256.807 35.3299C256.438 34.8943 255.741 34.34 255.783 33.944C255.865 33.4688 256.562 33.0728 257.013 32.6372C257.3 32.3601 257.587 32.1621 257.915 31.9245C257.628 31.6474 257.422 31.1326 257.094 31.0533C255.66 30.697 254.143 30.5781 252.709 30.1822C252.134 30.0238 251.52 29.5486 251.109 29.0734C250.331 28.2023 249.717 27.2124 249.02 26.262C247.913 24.7177 246.805 23.213 245.74 21.6291C245.576 21.3519 245.74 20.8371 245.863 20.4015C246.109 19.2928 246.396 18.1445 246.56 17.3921V17.4317Z" fill="#00AEFF"/>
<path d="M386.011 0.404622C389.659 3.49324 390.643 7.05703 388.962 11.3336C388.962 12.2444 388.962 13.2739 388.962 14.3035C388.962 14.6599 388.756 15.0954 388.962 15.333C390.93 17.7881 389.126 20.4015 389.331 22.8962C389.412 24.0049 389.167 25.1532 388.921 26.2224C388.716 27.0935 388.306 27.9251 388.019 28.7566C387.199 30.9742 386.215 33.152 385.642 35.4091C384.945 38.1809 384.002 40.7548 381.952 42.893C381.297 43.5663 380.969 44.477 380.477 45.3085L380.969 45.8233C379.862 46.1401 378.797 46.6153 377.648 46.6945C375.148 46.8924 373.672 45.4273 373.631 43.0119C373.59 40.8735 373.877 38.8937 374.943 36.8742C375.927 34.9735 376.132 32.6768 376.665 30.5782C376.91 29.6278 376.788 28.5191 377.279 27.7271C379.985 23.411 379.37 18.6989 379.411 14.0263C379.411 11.888 378.919 9.59129 379.411 7.5718C380.067 5.07722 381.583 2.82011 382.813 0.483805C382.936 0.246258 383.674 0.206665 384.166 0.206665C384.863 0.206665 385.518 0.285848 386.052 0.325439L386.011 0.404622Z" fill="#00AEFF"/>
<path d="M114.937 425.052C114.159 424.735 113.462 424.418 113.01 424.18C112.15 419.429 114.732 416.063 117.438 412.38C117.766 413.212 117.97 413.884 118.339 414.399C118.504 414.637 119.077 414.716 119.446 414.637C119.61 414.637 119.856 413.845 119.733 413.766C116.495 411.113 119.118 408.856 120.799 407.549C122.848 406.044 123.792 404.184 124.939 402.203C125.84 400.659 127.275 399.432 128.997 397.452C129.12 395.551 130.309 393.373 132.768 391.67C133.834 390.918 134.531 389.414 134.858 388.107C135.228 386.641 135.76 385.928 137.318 385.573C138.958 385.216 140.311 384.424 140.884 382.602C141.171 381.731 142.196 381.059 142.975 380.187C142.196 378.603 143.753 376.227 145.844 376.267C146.295 376.267 146.828 375.95 147.238 375.673C147.812 375.316 148.304 374.881 149.164 374.287C149.41 376.544 149.575 378.246 149.738 379.91C149.575 380.029 149.41 380.108 149.206 380.227C148.591 379.395 147.935 378.603 147.074 377.495C146.09 377.336 144.86 377.574 145.106 379.435C145.147 379.87 145.844 380.504 146.295 380.544C149.123 380.781 149.123 380.742 147.812 383.592C147.115 383.315 146.418 383.038 145.147 382.523C148.181 386.76 145.147 388.978 142.893 391.354C141.417 392.898 140.639 392.661 139.859 390.641C139.696 390.205 139.49 389.73 138.958 389.255C140.27 392.661 138.138 395.432 137.564 398.639C137.072 398.283 136.621 398.006 136.048 397.61C135.842 398.164 135.473 398.639 135.555 399.075C136.048 402.995 133.629 405.451 131.006 407.866C129.981 408.817 129.079 409.964 128.341 411.153C126.456 414.082 124.98 417.369 122.726 420.023C121.373 421.606 121.045 424.497 117.888 424.537C117.232 424.537 116.659 426.001 115.88 426.635C115.347 427.071 114.528 427.229 113.872 427.546C114.117 426.912 114.322 426.279 114.568 425.605C114.65 425.407 114.773 425.249 114.937 424.933V425.052Z" fill="#00AEFF"/>
<path d="M31.0301 269.947C32.3829 267.809 32.3009 267.413 29.8005 266.344C30.1284 266.186 30.2924 266.027 30.4973 266.027C34.3094 265.671 38.1216 265.314 41.9337 264.997C42.9995 264.918 44.1062 264.958 45.172 264.918C46.7707 264.879 48.4103 264.641 50.0089 264.799C53.2882 265.116 56.4035 265.512 59.7237 264.324C62.1832 263.453 65.0525 263.572 67.7579 263.611C72.7588 263.611 77.7186 263.136 82.7195 262.662C84.6461 262.464 86.6957 262.78 88.6223 263.176C89.4826 263.334 90.9173 264.245 90.8764 264.76C90.8764 265.671 90.0978 266.978 89.2782 267.373C88.1304 267.967 86.6137 268.165 85.343 268.046C83.8263 267.927 82.6376 268.126 81.2029 268.838C79.4403 269.67 77.2678 269.947 75.3002 269.987C72.8408 270.027 70.4633 269.908 68.3318 271.333C68.0039 271.57 67.43 271.808 67.1021 271.689C63.6998 270.304 60.6665 272.957 57.2643 272.481C54.2309 272.085 51.0747 272.6 47.9594 272.719C45.6229 272.798 43.3274 272.917 40.9909 272.917C40.2121 272.917 39.3103 272.759 38.6545 272.442C37.7117 271.966 37.0558 271.57 35.9901 272.363C34.9653 273.115 34.4734 272.6 32.7108 270.185C32.7928 270.977 32.8748 271.768 32.9977 273.076C31.973 272.521 31.2761 272.125 30.5382 271.729C29.3495 272.6 26.8491 272.165 25.9883 270.581C25.6604 269.948 25.9473 268.403 26.4802 268.046C28.6527 266.701 29.5955 268.878 31.0711 269.947H31.0301Z" fill="#00AEFF"/>
<path d="M421.589 168.062C421.958 169.685 421.589 170.794 419.826 171.744C417.04 173.209 414.662 175.387 411.874 176.853C410.317 177.684 408.636 178.872 406.464 178.198C404.537 177.604 404.004 176.655 405.07 174.912C405.193 174.714 405.275 174.476 405.439 174.358C408.636 172.022 411.833 169.724 415.031 167.428C415.564 167.072 416.302 166.874 416.712 166.438C419.868 163.033 424.13 161.33 428.107 159.192C428.845 158.796 429.746 158.281 430.115 157.608C431.96 154.519 434.87 152.856 438.109 151.391C440.773 150.203 443.151 148.421 445.815 146.837C446.143 147.352 446.43 147.827 446.717 148.303C447.003 148.144 447.249 148.065 447.249 148.025C447.249 146.085 447.249 144.62 449.914 143.828C452.128 143.194 453.849 141.056 455.776 139.591C457.375 138.403 458.932 137.136 460.654 136.106C461.31 135.71 462.498 135.552 463.195 135.829C465.983 136.859 466.597 137.849 465.9 139.432C465.203 141.016 463.236 141.769 461.637 140.937C461.227 143.115 459.833 144.461 457.907 145.61C455.612 146.916 453.603 148.659 451.39 150.084C449.791 151.153 448.069 152.025 446.389 153.015C445.938 153.292 445.569 153.766 445.159 154.163C444.831 154.44 444.503 154.994 444.176 154.994C441.224 154.994 440.199 157.449 438.395 158.914C436.674 160.301 434.788 161.488 432.985 162.755C431.386 163.864 429.828 164.973 428.23 166.002C426.959 166.794 425.729 167.705 424.336 168.22C423.557 168.498 422.532 168.101 421.507 167.983L421.589 168.062Z" fill="#00AEFF"/>
<path d="M94.156 321.384C93.0902 320.513 92.2298 319.84 90.9587 318.771C90.5898 319.998 90.0156 320.869 90.2618 321.464C91.0405 323.443 89.3187 323.324 88.3762 323.799C87.6384 324.156 86.5317 324.116 85.9988 324.631C84.4411 326.176 82.5145 326.69 80.424 327.007C80.0551 327.046 79.6452 327.482 79.3992 327.799C77.9646 329.621 74.6443 330.294 72.9227 328.908C72.5538 328.631 72.8817 327.522 72.8817 326.651C72.4719 326.73 71.8159 326.809 71.1191 326.927C71.2011 324.077 71.4471 323.799 73.9885 322.968C74.7263 322.256 75.3002 321.305 76.202 320.909C78.8254 319.76 81.2848 318.573 83.5393 316.712C84.974 315.563 87.1875 314.336 89.0325 315.682C90.6307 314.771 91.9427 314.019 93.6645 313.069C93.5818 314.138 93.5409 314.653 93.4591 315.563C95.1809 314.455 96.6156 313.465 98.0911 312.593C99.4849 311.801 101.001 311.128 102.477 310.456C104.24 309.663 106.084 309.069 107.806 308.198C109.322 307.445 110.102 307.841 110.634 309.267C110.84 309.782 111.167 310.257 111.864 310.614C110.84 308.356 111.782 307.564 113.667 306.892C116.045 306.02 118.258 304.793 120.472 303.644C121.784 302.932 122.768 302.892 123.383 304.436C124.202 303.882 124.776 303.327 125.473 302.971C127.235 302.1 129.859 303.684 129.408 305.466C129.121 306.694 127.85 307.643 127.112 308.792C126.169 310.218 125.104 310.456 123.424 309.901C122.808 309.703 121.824 310.654 120.759 311.168C120.267 310.93 119.448 310.535 118.545 310.099C118.136 311.484 118.176 313.069 117.398 313.702C116.578 314.376 114.897 313.9 113.709 314.257C109.774 315.405 105.88 316.672 101.985 317.939C101.452 318.098 101.042 318.613 100.673 319.048C99.3613 320.513 98.4191 320.354 97.8449 318.692C96.6156 319.562 95.4262 320.434 94.1969 321.305L94.156 321.384Z" fill="#00AEFF"/>
<path d="M3.77115 329.502C5.8207 331.6 4.38601 333.501 3.32026 334.966C2.2135 336.471 0.737834 335.481 0 334.887C0.327926 332.67 0.409907 330.689 0.901795 328.829C1.14774 327.957 1.96755 327.086 2.78738 326.611C4.09908 325.82 5.73872 325.542 7.00943 324.711C8.73104 323.562 10.1247 322.018 11.7643 320.79C12.7072 320.077 13.8549 319.523 14.9206 318.929C15.9454 318.375 17.0112 317.94 18.036 317.425C18.8558 317.029 19.6346 316.593 20.5774 316.118C20.5774 315.801 20.6594 315.286 20.7823 314.376C21.6842 315.009 22.34 315.484 23.2827 316.157C23.0369 315.286 22.8729 314.692 22.7498 314.099C22.9138 313.94 23.0369 313.782 23.2418 313.663C25.5372 312.514 27.8328 311.286 30.1692 310.218C32.0958 309.307 34.1863 308.634 36.1129 307.762C38.3264 306.733 40.3349 305.506 42.9993 305.506C44.7619 305.506 46.4425 304.04 48.2872 303.644C49.2299 303.446 50.5007 303.961 51.4025 304.476C51.6484 304.634 51.1155 306.021 50.9105 306.852C50.1318 310.178 47.3033 310.93 44.516 311.801C43.6552 312.039 42.9584 312.712 42.1795 313.148C41.6876 313.425 41.1547 313.584 40.7039 313.821C39.0233 314.692 37.4246 315.722 35.662 316.395C32.5467 317.623 31.03 321.107 27.3409 321.503C26.2341 321.622 24.9634 322.454 24.2256 323.285C22.381 325.384 21.2742 325.78 18.3229 324.552C17.708 325.701 17.0931 326.888 16.4783 328.076C16.6833 328.195 16.8472 328.314 17.0522 328.433C16.2733 328.71 15.4945 328.987 14.5517 329.344V327.205C13.2811 329.779 11.8463 331.363 9.2639 331.798C8.0342 332.036 7.41934 332.313 6.6815 330.927C6.2716 330.175 4.83691 329.977 3.85314 329.542L3.77115 329.502ZM25.5783 321.028C26.1931 320.038 26.644 319.444 26.849 318.81C26.9309 318.612 26.1111 317.94 26.0701 317.94C25.4143 318.415 24.7585 318.929 24.1846 319.523C24.1846 319.562 24.7994 320.196 25.5372 321.028H25.5783Z" fill="#00AEFF"/>
<path d="M305.422 333.184C304.275 332.59 303.7 332.313 302.553 331.679C302.881 333.462 303.209 334.728 303.331 336.035C303.373 336.669 302.963 337.342 302.799 338.015C302.553 339.084 301.815 340.589 302.266 341.183C303.455 342.727 302.758 343.836 302.02 344.984C301.324 346.093 300.421 347.043 299.396 348.31C299.93 350.092 298.946 352.072 296.692 352.983C295.544 353.458 294.806 352.983 294.683 351.835C294.437 349.855 294.027 347.835 294.068 345.856C294.068 342.015 294.191 338.134 294.642 334.333C295.092 330.373 296.076 326.453 296.692 322.493C297.348 318.256 298.372 313.979 298.331 309.742C298.331 307.01 299.643 305.268 300.873 303.327C301.323 302.615 302.758 301.783 303.209 302.021C304.111 302.457 304.766 303.525 305.299 304.476C305.874 305.545 306.119 306.773 306.611 307.92C307.021 308.871 307.472 309.584 306.816 310.811C306.201 312.039 306.488 313.742 306.529 315.246C306.529 316.632 306.775 318.018 306.939 319.364C307.349 322.612 307.472 325.78 305.915 328.908C305.381 330.056 305.627 331.56 305.505 333.184H305.422ZM303.168 306.812C303.168 306.812 303.496 306.694 303.7 306.654V304.119C302.922 304.238 302.348 304.317 301.283 304.476C302.102 305.466 302.635 306.139 303.168 306.812Z" fill="#00AEFF"/>
<path d="M423.108 107.2C422.943 106.685 422.739 106.21 422.533 105.616C422.205 105.735 421.837 105.854 421.877 105.893C422.287 107.992 420.648 110.328 422.821 112.229C423.23 112.625 423.353 113.773 423.066 114.327C422.697 115.04 421.837 115.515 421.181 116.109C420.893 115.991 420.648 115.872 420.361 115.753C420.525 116.941 420.73 118.168 420.853 119.356C420.893 119.832 420.976 120.346 420.853 120.782C419.91 122.96 419.008 125.177 417.861 127.236C417.327 128.187 416.18 128.781 415.401 129.612C415.073 129.929 414.827 130.365 414.622 130.8C413.885 132.622 413.31 134.522 412.409 136.265C411.917 137.175 410.892 137.849 410.195 138.68C408.965 140.145 407.777 141.61 406.588 143.075C406.301 143.432 405.891 143.669 405.277 144.224C405.194 143.551 405.194 143.234 405.112 142.957C405.03 142.64 404.867 142.323 404.743 142.006C404.456 142.244 404.17 142.442 403.883 142.679C403.268 143.115 402.612 143.511 401.997 143.907C401.628 143.155 400.932 142.442 400.932 141.69C400.932 138.482 400.973 135.235 402.735 132.265C403.759 130.563 404.333 128.583 405.236 126.801C405.891 125.534 407.694 124.663 409.621 124.464C410.318 123.752 408.105 121.455 411.712 122.128C410.974 120.861 410.4 120.069 410.031 119.198C409.826 118.723 409.826 117.931 410.113 117.575C411.261 116.228 412.613 115.04 414.089 113.536C413.966 111.635 413.761 109.259 415.729 107.319C416.754 106.289 417.368 105.101 416.836 103.319C416.467 102.013 417.164 100.231 417.82 98.8448C418.517 97.4193 421.386 97.8152 422.369 99.7159C423.517 101.973 424.296 104.507 423.108 107.121V107.2Z" fill="#00AEFF"/>
<path d="M471.066 323.8C471.64 324.592 472.296 325.582 473.157 326.769C473.32 326.769 473.813 326.611 474.263 326.651C474.632 326.73 475.166 326.968 475.247 327.245C475.37 327.562 475.166 328.077 474.919 328.354C473.976 329.384 473.116 330.61 471.927 331.205C470.943 331.68 469.14 331.838 468.361 331.284C466.844 330.215 465.778 328.552 464.549 327.086C464.384 326.888 464.384 326.374 464.221 326.334C461.884 326.018 461.433 324.196 460.818 322.453C460.245 320.751 459.055 319.84 457.047 319.523C455.982 319.365 455.162 317.742 454.26 316.791C453.276 315.762 452.251 314.811 451.35 313.743C450.038 312.237 448.808 310.693 447.537 309.189C446.39 307.802 445.406 306.338 444.135 305.07C441.553 302.497 441.839 301.586 444.258 299.051C445.488 297.785 446.964 298.181 448.193 297.507C448.727 297.23 450.366 298.22 451.063 298.972C452.375 300.358 453.112 302.22 455.326 302.813C456.228 303.05 456.883 304.199 457.663 304.912C458.605 305.744 459.671 306.456 460.573 307.287C461.351 308.04 462.007 308.951 462.704 309.783C462.95 310.06 463.073 310.535 463.319 310.614C466.23 311.366 466.475 314.534 468.566 315.999C468.607 316.039 468.73 316.078 468.73 316.158C469.222 318.336 469.427 320.672 471.681 322.098C471.804 322.177 471.312 323.166 471.066 323.8Z" fill="#00AEFF"/>
<path d="M425.854 343.084C424.912 342.925 424.215 342.846 423.518 342.727C422.862 343.401 422.165 344.114 421.509 344.787C421.346 344.668 421.181 344.549 421.018 344.431C421.509 343.124 420.771 341.303 422.903 340.708C424.994 340.154 427.863 341.461 428.847 343.282C429.093 343.718 429.503 344.431 429.831 344.431C431.88 344.431 432.126 345.421 431.88 347.044C431.757 347.796 432.249 348.668 432.454 349.579C433.314 349.42 434.011 349.222 434.708 349.222C435.242 349.222 435.979 349.262 436.307 349.618C437.332 350.726 438.562 351.835 439.053 353.182C440.447 357.102 444.382 358.685 446.76 361.655C447.703 362.804 448.727 363.913 449.711 364.982C449.998 365.299 450.326 365.536 450.613 365.813C451.514 366.684 452.417 367.556 453.073 368.625C455.45 368.981 456.024 370.882 456.762 372.783C457.049 373.535 457.868 374.089 458.237 374.841C458.811 376.03 460.041 377.811 459.59 378.445C458.77 379.593 458.196 382.088 455.49 380.821C454.015 380.148 452.376 380.069 451.842 377.969C451.597 377.059 449.916 376.505 448.932 375.713C447.334 374.406 445.776 373.06 444.178 371.753C441.513 369.615 441.226 368.625 442.619 365.536C442.415 365.536 442.169 365.417 442.046 365.457C439.381 366.961 439.381 366.882 437.783 364.071C437.127 362.962 436.02 361.932 434.873 361.26C432.658 359.992 431.594 358.012 430.241 356.033C428.888 354.052 426.879 352.509 425.322 350.687C424.871 350.172 424.953 349.262 424.83 348.549C424.83 348.351 425.075 348.074 424.994 347.955C423.395 346.014 425.158 344.629 425.937 342.965L425.854 343.084Z" fill="#00AEFF"/>
<path d="M124.735 352.865C124.611 350.765 124.489 348.984 124.365 347.241C124.611 347.202 124.817 347.162 125.062 347.122C125.431 347.598 125.801 348.073 126.456 348.905C126.907 347.954 127.481 347.281 127.563 346.568C127.85 343.4 130.515 342.015 132.605 340.272C134.367 338.807 136.417 338.332 138.835 338.214C140.311 338.135 141.623 336.233 143.099 335.243C143.755 334.808 144.615 334.768 145.312 334.373C146.911 333.462 148.468 332.511 149.985 331.561C152.895 329.74 155.847 327.878 158.839 325.978C159.167 326.532 159.495 327.086 159.823 327.64C160.93 326.374 161.955 325.186 162.979 324.037C164.659 322.216 167.078 321.899 169.373 321.741C170.275 321.662 171.219 322.414 172.284 321.82C172.489 321.701 173.801 322.691 173.883 323.245C173.964 324.235 173.842 325.621 173.186 326.176C170.563 328.433 167.775 330.571 164.865 332.511C163.389 333.501 161.462 333.897 159.905 334.768C159.044 335.243 158.47 336.194 157.527 337.144C156.995 336.273 156.502 335.52 155.847 334.491C154.494 336.035 152.157 336.709 152.691 339.916C150.518 339.124 148.632 338.412 146.787 337.738C145.476 339.401 148.55 341.817 145.312 342.965C144.984 342.49 144.615 342.055 144.164 341.421C144.369 344.391 144.164 344.47 141.336 344.391C140.475 344.391 139.614 345.262 138.876 346.173C138.139 345.975 137.36 345.777 137.032 345.658C136.499 346.726 136.253 347.875 135.515 348.469C133.302 350.251 131.252 352.469 127.809 351.676C127.153 351.518 126.251 352.271 124.735 352.865Z" fill="#00AEFF"/>
<path d="M564.935 223.38C565.672 223.657 566.451 223.935 567.189 224.212C567.189 224.409 567.148 224.647 567.107 224.845H562.393C560.548 226.548 556.982 226.825 553.908 225.28C552.883 224.765 551.736 224.528 550.342 224.093C550.588 223.024 550.874 221.915 551.202 220.687C552.064 221.004 552.72 221.241 553.662 221.598C552.801 218.945 554.564 219.183 556.203 218.826C558.253 218.391 560.179 217.48 562.147 216.806C562.803 216.569 563.704 216.094 564.156 216.332C565.754 217.123 567.066 216.332 568.132 215.619C570.264 214.193 572.6 213.757 575.059 213.48C576.33 213.322 577.519 212.649 578.789 212.57C581.536 212.332 584.323 212.451 587.029 212.135C588.012 212.016 588.873 211.144 589.898 210.59C590.472 211.778 591.25 212.451 592.808 211.461C593.218 211.184 594.243 211.857 595.063 212.095C596.744 211.026 600.227 211.501 601.211 213.441C601.58 214.233 601.211 215.976 600.473 216.529C597.932 218.589 594.981 220.015 591.456 219.896C589.447 219.816 587.315 219.381 585.758 221.281C585.471 221.637 584.528 221.558 583.913 221.637C583.176 221.717 582.273 221.479 581.782 221.835C579.814 223.261 578.872 222.35 578.216 220.41C576.944 220.766 575.551 221.4 575.224 219.381C572.928 220.252 574.69 221.281 575.141 222.826C573.912 222.746 572.968 222.667 572.026 222.588C570.673 222.469 568.992 221.36 568.829 223.776C567.476 223.42 566.246 223.063 565.057 222.746C564.976 222.984 564.935 223.182 564.852 223.42L564.935 223.38Z" fill="#00AEFF"/>
<path d="M181.138 365.299C182.409 364.943 182.983 364.784 183.27 364.705C182.573 363.833 181.056 362.645 181.261 362.13C181.753 360.943 183.064 360.032 184.089 359.082C184.541 358.686 185.196 358.448 185.607 358.052C187.656 356.152 189.624 354.211 191.673 352.311C191.878 352.113 192.206 352.033 192.411 351.835C195.321 348.905 198.888 346.806 202.454 344.708C204.339 343.599 206.061 342.173 207.987 341.065C209.053 340.471 210.487 340.431 211.594 339.837C214.423 338.372 217.087 336.67 219.916 335.204C222.498 333.858 223.523 334.214 225.203 336.432C224.875 336.986 224.302 337.501 224.343 337.976C224.506 340.511 222.703 341.025 220.735 341.421C220.407 341.501 220.161 341.896 219.833 342.134C218.645 343.005 217.456 343.876 216.308 344.748C215.079 345.698 213.849 346.648 212.66 347.638C211.103 348.905 209.831 350.449 207.372 350.251C206.675 350.211 205.896 351.598 205.118 352.271C201.142 355.478 197.125 358.646 193.19 361.893C191.837 363.041 190.648 364.388 189.418 365.655C187.696 367.397 185.483 367.437 183.311 367.16C182.655 367.08 182.081 366.13 181.138 365.299Z" fill="#00AEFF"/>
<path d="M337.6 445.801C336.903 445.603 335.1 445.563 335.428 443.188C336.084 443.425 336.575 443.584 337.068 443.782C337.191 443.703 337.355 443.623 337.478 443.505C336.944 442.831 336.494 442.079 335.879 441.485C335.264 440.93 334.403 440.613 333.83 440.02C333.461 439.624 333.502 438.911 333.337 438.317C333.993 438.317 334.69 438.317 335.346 438.436C335.756 438.555 336.125 438.951 336.781 439.426C335.879 437.683 335.141 436.258 334.362 434.753C332.231 435.308 331.206 434.634 330.714 432.14C330.714 432.061 330.714 431.982 330.673 431.942C327.517 429.17 329.813 426.398 330.632 423.587C333.461 422.953 336.248 424.22 338.215 427.388C339.487 429.407 340.429 431.586 341.331 433.763C341.659 434.555 341.495 435.545 341.576 436.812C342.807 438.713 344.2 441.049 344.323 443.782C344.405 445.286 343.954 446.791 346.208 447.148C346.536 447.187 346.783 447.741 347.07 448.058C345.43 448.691 345.143 450.276 346.127 453.206C346.455 452.611 346.701 452.176 346.988 451.662C348.545 452.413 349.283 453.245 348.832 455.067C348.627 455.859 349.078 457.046 349.652 457.759C350.595 458.987 351.824 459.937 352.972 461.046C353.136 461.204 353.341 461.482 353.3 461.561C351.661 464.728 355.637 465.56 356.047 467.857C356.252 469.045 357.071 470.193 356.907 471.302C356.784 472.054 355.555 473.044 354.694 473.163C352.931 473.401 351.087 473.282 349.365 472.925C348.34 472.727 347.192 472.014 348.054 470.391C348.586 469.361 348.504 468.094 348.832 466.392C347.643 467.026 347.111 467.303 346.577 467.54C346.045 466.313 345.553 465.204 344.979 464.015C345.635 463.66 346.495 463.304 347.192 462.789C347.685 462.432 347.93 461.838 348.299 461.323C347.643 461.006 347.029 460.689 346.373 460.373L346.045 460.769C345.43 459.7 344.938 458.552 344.2 457.561C343.913 457.165 343.094 456.928 342.519 456.967C341.003 456.967 340.552 456.294 340.306 454.948C340.019 453.443 339.281 451.978 338.831 450.513C338.421 449.127 338.093 447.741 337.6 445.761V445.801ZM343.298 452.097C343.667 449.998 341.987 449.404 340.839 448.533C340.757 448.454 340.224 448.889 339.896 449.087C341.126 450.157 342.151 451.028 343.339 452.097H343.298Z" fill="#00AEFF"/>
<path d="M551.859 153.767C551.859 153.767 551.859 153.925 551.859 153.965C550.22 155.232 549.236 154.876 546.899 152.659C545.505 151.352 546.12 150.401 547.022 149.371C547.268 149.055 547.76 148.699 548.088 148.699C550.629 148.857 552.146 147.036 554.072 146.006C554.318 145.887 554.605 145.61 554.852 145.65C556.819 145.966 558.213 144.818 559.688 143.947C561.614 142.838 563.501 141.65 565.509 140.7C571.206 138.007 576.945 135.315 582.684 132.78C583.545 132.384 584.693 132.582 585.471 132.226C590.596 129.573 595.719 126.88 600.843 124.227C601.499 125.494 602.401 126.564 602.524 127.712C602.811 130.088 600.597 132.028 598.301 133.256C594.735 135.156 590.513 135.275 587.234 138.047C585.184 139.789 581.988 140.225 579.323 141.373C576.7 142.521 574.199 144.026 571.453 144.897C568.542 145.808 566.329 147.986 563.254 148.541C562.311 148.699 561.451 149.451 560.59 149.966C559.237 150.758 557.885 151.51 556.532 152.342C555.384 153.054 554.524 152.778 553.417 151.986C552.72 151.51 551.531 151.708 550.548 151.629C550.875 152.382 551.203 153.094 551.531 153.846C551.654 153.807 551.736 153.767 551.859 153.727V153.767Z" fill="#00AEFF"/>
<path d="M276.401 109.339C277.057 109.893 277.835 110.328 278.204 110.962C279.557 113.338 280.745 115.793 282.057 118.208C283 119.99 281.729 121.495 280.745 122.287C279.885 122.96 277.917 122.802 276.646 122.406C276.032 122.208 275.745 120.624 275.622 119.634C275.417 117.931 276.032 116.031 273.654 115.239C273.408 115.159 273.244 114.367 273.326 113.971C273.49 113.021 273.859 112.11 274.269 110.764C273.531 111.596 273.121 112.11 272.301 113.1C271.276 111.279 270.088 109.735 269.555 108.032C268.94 105.973 267.424 104.468 266.193 103.082C264.595 101.3 264.308 99.7559 265.292 97.4592C264.308 97.776 263.734 97.9739 262.955 98.2512C260.742 95.4397 258.488 92.6679 256.315 89.8564C253.65 86.4114 250.986 82.9664 248.527 79.4026C247.748 78.3334 246.928 76.7495 247.174 75.6408C247.912 72.4334 251.068 71.9186 253.404 74.73C257.381 79.5214 261.602 84.2731 264.718 89.6188C266.275 92.2323 268.694 94.2518 269.801 96.786C271.441 100.508 275.007 102.963 276.073 106.844C276.319 107.755 276.36 108.745 276.441 109.418L276.401 109.339Z" fill="#00AEFF"/>
<path d="M505.088 289.904C506.318 290.3 507.22 290.776 508.204 290.934C510.54 291.29 513.081 291.132 515.254 291.844C517.222 292.517 518.862 294.141 520.665 295.289C521.485 295.804 522.345 296.279 523.207 296.794C523.329 296.873 523.535 296.834 523.616 296.913C526.69 300.199 531.487 301.704 533.618 306.021C534.602 308.04 534.602 308.396 532.388 309.268C531.978 309.426 531.527 309.584 531.24 309.862C529.929 311.207 528.617 312.198 526.855 310.495C523.411 311.445 521.648 308.99 519.435 307.248C518.287 306.377 516.319 306.615 514.927 305.942C512.836 304.951 510.376 304.001 509.105 302.299C507.507 300.16 504.966 299.526 503.367 297.586C502.916 297.032 502.014 296.715 501.809 296.16C501.317 294.577 500.456 292.715 500.99 291.408C501.359 290.459 503.735 290.3 505.047 289.825L505.088 289.904Z" fill="#00AEFF"/>
<path d="M447.413 268.402C446.429 268.838 445.733 269.155 444.831 269.551C444.749 269.036 444.708 268.56 444.626 268.046C442.536 268.362 440.199 266.542 439.871 264.838C437.124 263.295 434.829 262.027 432.493 260.72C431.55 260.166 430.648 259.612 429.746 259.018C428.722 258.345 427.656 257.711 426.631 257.038C427.738 256.087 428.844 254.345 429.992 254.306C432.451 254.227 435.157 253.276 437.452 255.019C438.354 255.691 439.174 256.523 440.076 257.236C440.65 257.751 441.183 258.384 441.88 258.701C444.011 259.691 446.266 260.522 446.019 263.374C450.406 263.571 452.824 266.264 455.079 269.234C455.57 269.868 456.473 270.184 457.21 270.62C457.497 270.818 457.948 270.818 458.194 271.056C462.211 274.936 468.073 276.282 471.844 280.519C473.32 282.183 471.761 283.37 471.639 284.756C471.598 285.35 470.901 286.103 470.286 286.34C469.63 286.618 468.482 286.697 467.991 286.34C465.531 284.479 463.277 282.381 460.858 280.479C460.08 279.885 458.931 279.767 458.153 279.173C455.529 277.193 453.029 275.134 450.447 273.075C450.16 272.837 449.873 272.56 449.545 272.481C447.454 271.966 447.29 270.462 447.454 268.362L447.413 268.402Z" fill="#00AEFF"/>
<path d="M133.016 262.146C135.967 263.928 136.705 261.671 137.934 260.166C137.279 260.245 136.541 260.522 136.008 260.324C135.27 260.087 134.655 259.493 133.999 259.018C134.451 258.503 134.82 257.711 135.393 257.473C137.074 256.8 138.837 256.246 140.599 255.89C141.665 255.652 142.853 255.85 143.919 255.613C144.944 255.296 145.928 254.979 146.953 254.741C148.633 254.306 150.273 253.791 151.995 253.513C155.151 252.998 158.348 252.602 161.504 252.207C164.866 251.772 168.227 251.177 171.629 251.138C174.581 251.059 177.573 251.455 180.483 252.009C181.344 252.167 181.959 253.553 182.697 254.345C182 254.82 181.344 255.454 180.525 255.771C178.638 256.523 176.671 257.117 174.744 257.75C174.334 257.869 173.719 258.067 173.474 257.869C171.629 256.443 170.195 256.958 168.76 258.503C168.432 258.859 167.653 258.78 167.12 258.939C165.317 259.454 163.554 260.047 161.75 260.522C160.644 260.839 159.455 261.354 158.348 261.235C154.905 260.839 151.626 261.235 148.346 262.106C145.559 262.859 142.69 263.413 139.861 264.046C139.452 264.125 139.041 264.363 138.672 264.561C135.68 266.106 134.942 265.868 133.057 262.185L133.016 262.146Z" fill="#00AEFF"/>
<path d="M315.014 210.868C314.767 210.907 314.235 211.026 314.07 211.026C314.563 213.401 315.423 215.659 315.382 217.876C315.382 220.054 314.767 222.39 313.742 224.33C313.374 225.083 310.997 225.32 309.766 225.004C308.865 224.805 307.799 223.341 307.717 222.351C307.39 219.579 307.922 216.727 307.39 214.035C306.979 211.778 308.496 209.164 306.159 207.225C305.913 207.027 305.791 206.512 305.913 206.234C306.651 204.215 305.381 202.631 304.684 200.928C304.684 200.849 304.806 200.69 304.93 200.413C305.586 200.69 306.282 200.968 307.512 201.443C307.143 200.294 306.897 199.622 306.651 198.949C306.61 198.83 306.365 198.79 306.324 198.671C305.299 195.543 303.167 193.167 300.995 190.752C300.38 190.039 300.79 188.534 300.503 187.465C300.175 186.277 299.396 185.168 299.109 183.981C298.863 183.07 298.986 182.04 299.027 181.089C299.027 180.535 299.519 180.021 299.478 179.466C299.396 178.397 298.904 177.13 300.708 177.169C302.142 177.169 303.331 177.724 303.208 179.466C303.208 179.585 303.29 179.744 303.29 179.863C307.143 179.863 307.143 183.228 308.619 185.326C305.913 186.95 305.913 187.069 308.332 189.009C310.791 190.989 311.16 193.88 309.398 197.087C311.147 199.226 312.609 200.268 313.783 200.215C311.734 204.096 315.546 207.066 315.054 210.868H315.014Z" fill="#00AEFF"/>
<path d="M5.00042 225.954C5.86122 223.539 8.27968 223.42 10.2472 222.668C12.7067 221.757 15.1251 220.806 17.6256 220.015C20.9049 218.985 24.1841 217.836 27.5453 217.163C31.0706 216.411 34.7187 216.252 38.285 215.619C41.0723 215.105 42.7939 217.005 44.8844 217.995C45.7453 218.391 44.9255 220.291 43.6547 220.925C42.1381 221.638 40.6624 222.351 39.1458 223.064C38.8998 223.183 38.5309 223.381 38.3259 223.301C35.6205 222.39 33.366 223.777 30.9476 224.489C29.7178 224.845 28.2422 224.568 26.4386 224.568C25.4139 226.469 23.2823 227.182 20.4539 227.578C17.9945 227.934 15.781 229.795 13.4035 230.825C11.1491 231.775 8.81256 232.765 6.43509 233.161C5.36933 233.359 4.01664 232.21 3.27881 231.894C3.89367 229.795 4.46754 227.855 5.00042 225.954Z" fill="#00AEFF"/>
<path d="M73.8662 405.015C74.5631 402.679 75.096 400.422 75.9568 398.244C76.3257 397.294 76.4076 396.898 75.5878 396.146C74.768 395.353 74.2762 394.244 75.4239 392.978C76.6126 391.671 77.3095 389.968 78.4572 388.622C79.154 387.751 79.9329 387.038 81.3266 386.721C82.3923 386.483 83.0072 384.464 83.786 383.157C83.9499 382.84 83.663 382.286 83.827 381.969C85.3847 379.593 86.9423 377.218 88.7049 375C90.0166 373.416 91.4922 371.832 93.2139 370.723C94.2388 370.05 96.1242 369.773 97.2308 370.208C98.6246 370.763 98.1739 372.347 97.5179 373.575C95.3455 377.574 93.2548 381.613 91.0824 385.612C88.295 390.72 85.5486 395.868 82.6793 400.937C81.8185 402.441 80.7527 403.867 79.7279 405.292C78.9081 406.401 77.8834 406.48 76.6536 405.807C75.9568 405.45 75.137 405.332 73.9483 404.976L73.8662 405.015Z" fill="#00AEFF"/>
<path d="M502.342 139.432C503.08 139.472 503.572 139.511 504.104 139.551C504.269 137.532 505.047 136.185 506.851 134.997C509.884 132.978 512.508 130.364 515.418 128.107C518.165 125.969 521.034 123.989 523.862 122.009C526.28 120.346 528.658 118.643 531.24 117.258C532.306 116.664 533.905 116.307 535.053 116.624C536.692 117.06 536.447 118.723 536.241 120.109C535.913 122.603 534.684 124.583 532.347 125.652C530.38 126.563 529.273 129.097 526.527 128.503C526.404 128.503 526.158 128.741 526.076 128.939C524.969 131.354 522.714 132.107 520.378 132.899C519.64 133.136 518.779 133.889 518.575 134.562C517.837 136.938 515.664 137.769 513.861 139.036C512.918 139.71 512.139 140.66 511.524 141.65C510.663 142.957 506.482 145.451 504.924 144.976C503.735 144.62 501.194 144.857 502.465 142.165C502.793 141.491 502.424 140.501 502.342 139.393V139.432Z" fill="#00AEFF"/>
<path d="M325.468 287.132C324.977 286.815 324.525 286.618 324.28 286.301C323.828 285.707 323.583 284.954 323.05 284.439C321.656 283.172 322.434 281.707 323.131 280.796C323.624 280.123 325.673 279.608 326.247 280.004C329.854 282.579 333.174 285.469 333.626 290.261C333.707 291.012 334.691 291.686 334.855 292.478C335.183 293.983 336.823 295.17 335.921 297.032C335.757 297.388 336.74 298.22 337.151 298.892C337.93 300.16 338.831 301.387 339.282 302.773C339.487 303.486 338.831 304.436 338.503 305.466C340.553 305.466 340.225 306.851 340.061 308.554C339.897 310.337 340.389 312.118 340.389 313.94C340.389 316.118 340.266 318.296 339.938 320.394C339.692 322.058 338.217 322.453 337.274 321.186C336.085 319.681 335.388 317.742 334.609 315.959C334.527 315.801 335.142 315.246 335.552 315.009C336.167 314.573 336.823 314.217 337.52 313.821C337.274 313.504 337.192 313.306 337.109 313.306C336.29 313.306 334.978 313.663 334.773 313.306C333.83 311.92 332.97 310.376 332.519 308.792C331.658 305.862 331.33 302.813 330.346 299.922C329.772 298.259 328.419 296.873 327.394 295.328C327.026 294.814 326.534 294.26 326.452 293.666C326.288 292.042 326.738 290.3 325.181 288.954C324.935 288.756 325.427 287.765 325.591 287.132H325.468Z" fill="#00AEFF"/>
<path d="M396.791 286.776C396.217 286.776 395.438 286.895 394.7 286.776C391.503 286.222 388.961 284.479 386.461 282.539C385.231 281.589 383.428 281.391 381.871 280.836C381.378 280.678 380.64 280.678 380.435 280.361C379.247 278.421 377.239 278.263 375.311 277.708C373.549 277.154 373.385 276.084 374.738 274.818C374.287 274.541 373.918 274.263 373.467 273.986C372.36 273.352 372.073 271.412 373.139 271.096C374.696 270.66 376.746 270.145 378.058 270.739C382.731 272.758 387.199 275.213 391.749 277.55C393.88 278.659 397.856 281.906 398.349 284.242C398.759 283.608 399.209 282.975 399.783 282.104C401.218 283.094 403.678 282.975 403.472 285.747C406.711 285.271 409.457 286.658 409.785 288.875C410.031 290.485 410.919 291.369 412.449 291.527C411.958 293.745 409.662 294.696 407.612 294.142C404.948 293.429 402.529 292.478 400.562 290.578C399.209 289.271 397.897 287.924 396.75 286.737L396.791 286.776Z" fill="#00AEFF"/>
<path d="M328.746 34.8548C328.869 34.538 328.91 34.1421 329.115 33.8649C329.525 33.2709 330.016 32.7561 330.468 32.2018C330.796 32.8749 331.165 33.5481 331.493 34.2213C331.575 34.3796 331.41 34.6964 331.493 34.8548C333.993 38.379 332.476 42.6556 333.706 46.4174C334.034 47.4865 333.665 48.7933 333.706 49.9416C333.788 51.1691 334.116 52.3571 334.075 53.545C334.075 54.5745 333.46 55.6041 333.46 56.6732C333.46 58.4947 333.46 60.3954 333.788 62.1773C334.157 63.9196 335.592 65.6223 335.428 67.2854C335.345 68.5129 333.706 69.8989 332.394 70.77C331.288 71.5224 330.427 70.8096 329.484 69.6217C327.271 66.929 327.065 64.3948 328.705 61.5041C328.869 61.2665 328.828 60.7914 328.705 60.5142C326.287 55.8416 325.221 50.9711 325.59 45.7442C325.753 43.4475 325.262 41.0716 325.303 38.7354C325.303 37.587 325.59 36.3595 326.122 35.3696C326.409 34.8548 327.516 34.7756 328.213 34.538L328.664 34.8548H328.746Z" fill="#00AEFF"/>
<path d="M585.922 335.719C582.643 335.441 579.242 335.204 575.88 334.808C571.289 334.294 566.78 334.927 562.271 335.758C561.329 335.917 560.386 335.956 559.442 336.035C557.066 336.194 554.688 336.313 552.352 336.471C546.818 336.828 541.325 337.263 535.791 337.541C534.684 337.58 533.537 337.144 532.471 336.748C532.143 336.63 531.774 335.56 531.897 335.441C533.044 334.492 534.152 333.383 535.504 332.907C536.242 332.67 537.431 333.62 538.538 334.056C538.866 332.749 539.972 332.749 541.611 332.907C543.046 333.026 544.563 332.194 546.08 331.759C548.334 331.125 552.146 331.6 553.54 332.392C555.262 331.838 556.532 331.085 557.803 331.046C562.271 330.967 566.78 331.204 571.248 331.165C573.257 331.165 575.306 330.571 577.314 330.532C579.692 330.453 582.07 330.571 584.447 330.848C584.939 330.888 585.594 331.798 585.759 332.432C586.005 333.383 585.922 334.413 586.005 335.639L585.922 335.719Z" fill="#00AEFF"/>
<path d="M314.072 520.284C313.907 517.908 313.99 515.809 313.621 513.79C313.17 511.098 312.309 508.444 311.776 505.752C311.612 504.841 312.227 503.732 312.063 502.822C311.694 501.198 310.793 499.693 310.465 498.03C310.055 495.971 309.931 493.833 309.85 491.694C309.85 491.259 310.628 490.388 310.834 490.428C312.063 490.705 313.293 491.141 314.4 491.734C314.604 491.853 314.523 493.278 314.154 493.556C312.842 494.546 313.006 495.377 313.826 496.604C314.891 498.11 315.957 499.732 316.531 501.436C317.064 503.059 317.064 504.841 317.105 506.584C317.187 508.405 316.982 510.227 317.023 512.047C317.023 512.523 317.474 513.038 317.761 513.473C318.949 515.334 318.663 516.562 316.859 517.79C316.039 518.344 315.383 519.057 314.031 520.205L314.072 520.284Z" fill="#00AEFF"/>
<path d="M318.743 519.215C319.154 521.155 320.178 522.937 317.186 523.729C316.612 523.887 316.571 525.788 316.285 526.897C316.53 526.976 316.817 527.056 317.063 527.095C317.35 526.659 317.636 526.184 318.005 525.63C321.531 527.688 317.555 531.015 319.645 533.193C316.98 533.866 314.972 532.044 315.013 529.312C315.013 527.689 315.013 526.065 314.849 524.481C314.644 521.63 315.874 519.808 318.743 519.176V519.215Z" fill="#00AEFF"/>
<path d="M184.459 432.931C183.68 434.555 183.106 436.297 182.041 437.723C181.262 438.792 179.54 438.079 178.393 436.258C180.441 435.189 182.491 434.079 184.541 432.97L184.5 432.931H184.459Z" fill="#00AEFF"/>
<path d="M546.448 154.837C545.71 155.233 545.013 155.946 544.235 155.985C543.743 155.985 543.21 155.114 542.677 154.638C543.292 154.163 543.866 153.45 544.522 153.292C545.055 153.173 545.751 153.767 546.366 154.044C546.366 154.322 546.366 154.559 546.407 154.837H546.448Z" fill="#00AEFF"/>
<path d="M312.924 488.17C312.227 487.616 311.53 487.062 310.833 486.507C311.161 486.23 311.736 485.636 311.817 485.715C312.514 486.19 313.129 486.785 313.785 487.339L312.924 488.209V488.17Z" fill="#00AEFF"/>
<path d="M4.95956 225.914C4.05777 226.35 3.11498 226.785 2.21318 227.221C2.09021 226.944 2.00823 226.627 1.88525 226.35C2.74606 225.597 3.48389 224.409 5.00056 225.954V225.914H4.95956Z" fill="#00AEFF"/>
</g>
</svg>
