<svg width="126" height="129" viewBox="0 0 126 129" fill="none" xmlns="http://www.w3.org/2000/svg">
<g clip-path="url(#clip0_20_506)">
<g clip-path="url(#clip1_20_506)">
<path d="M29.8152 116.323C29.9195 115.737 30.2243 112.216 30.3044 111.254C30.4568 109.425 30.5371 107.605 30.5771 105.768C30.6172 103.836 30.6654 101.911 30.6975 99.9778C30.7215 98.1332 30.6975 96.2807 30.7536 94.4362C30.8177 92.3671 30.7616 90.3059 30.7856 88.2368C30.8097 86.1996 30.8017 84.1544 30.8017 82.1171C30.8017 78.9978 30.8177 75.8779 30.6252 72.7581C30.6092 72.4852 30.6894 72.3492 30.9861 72.3328C33.32 72.1565 35.6538 71.9722 37.9795 71.7795C40.578 71.5709 43.1846 71.3627 45.783 71.1541C48.3733 70.9454 50.9638 70.7368 53.5543 70.5366C55.4551 70.3842 57.3638 70.2318 59.2646 70.0794C61.6868 69.8867 64.1165 69.7184 66.5387 69.5018C67.806 69.3897 69.0809 69.3494 70.3402 69.189C71.4871 69.0367 72.6339 69.069 73.7728 68.9405C74.9516 68.8121 76.1308 68.7399 77.3095 68.6437C79.6674 68.451 82.0254 68.2508 84.3749 68.0661C85.6662 67.962 86.9654 67.8978 88.2646 67.7937C90.0374 67.6572 91.8097 67.4809 93.5821 67.3525C94.6164 67.2803 94.5606 67.1438 94.1836 68.0984C93.3012 70.3439 92.1464 72.4533 90.9517 74.5384C90.5424 75.2604 89.7725 75.6693 89.0987 76.1264C88.0081 76.8644 86.8932 77.586 86.0033 78.5486C84.9207 79.7194 84.5357 81.155 85.0487 82.7431C85.5621 84.3307 86.316 85.8146 86.9574 87.3464C87.5829 88.8459 88.4011 90.2497 89.2755 91.6131C89.7003 92.2785 90.1176 92.9602 90.6385 93.5618C91.2161 94.2276 92.6439 95.8634 92.6997 95.9277C93.4616 96.7055 94.1677 97.5561 95.0576 98.1895C95.7796 98.7029 96.5655 98.9753 97.4718 98.6466C98.5464 98.2617 99.1156 97.4037 99.5808 96.457C100.239 95.1015 100.359 93.6583 100.247 92.1584C100.102 90.2417 100.158 88.3086 99.894 86.3918C99.5006 83.5449 99.7974 80.7298 100.367 77.9391C100.551 77.0407 100.969 76.1986 101.265 75.3242C101.385 74.9796 101.498 74.6345 101.594 74.2819C101.65 74.0812 101.739 73.9612 101.971 73.9771C102.925 74.0334 103.888 74.0972 104.778 73.6241C104.874 73.8407 105.692 73.0389 105.949 72.6619C106.959 71.2183 107.778 69.6701 108.531 68.0825C108.828 67.465 109.141 66.8475 109.437 66.2295C109.51 66.0856 109.63 66.0134 109.782 66.0049C111.531 65.8446 113.279 65.6922 115.028 65.5319C115.252 65.5079 115.292 65.6364 115.284 65.8127C115.268 66.6065 115.244 67.3928 115.244 68.1866C115.236 69.2533 115.236 70.312 115.236 71.3786C115.244 74.1773 115.244 76.9685 115.276 79.7676C115.292 81.0266 115.404 82.2859 115.396 83.5449C115.388 84.7798 115.485 86.0069 115.589 87.2339C115.693 88.4131 115.509 90.7467 116.327 90.6909C117.963 90.5704 117.017 80.7701 117.153 75.7176C117.417 75.8535 117.554 76.0702 117.834 75.8859C118.043 75.7494 117.995 76.0383 118.003 76.1503C118.019 77.089 118.011 78.0272 118.027 78.9574C118.059 80.6018 118.003 82.2536 118.043 83.9059C118.099 86.1672 118.051 88.4291 118.083 90.6989C118.115 92.7759 118.219 94.853 118.26 96.9381C118.283 98.2134 118.428 99.4564 118.749 100.708C118.837 101.036 119.31 101.044 119.398 100.716V100.708C119.495 100.355 119.575 100.002 119.647 99.6491C120.088 97.4674 119.968 95.2539 120.088 93.0568C120.16 91.7735 120.225 90.4902 120.176 89.2069C120.112 87.3863 120.233 85.5661 120.2 83.7455C120.176 82.5663 120.256 81.3876 120.256 80.2084C120.256 78.7811 120.225 77.3534 120.225 75.9257C120.225 74.4741 120.264 73.0145 120.264 71.5629C120.264 69.3574 120.248 67.1438 120.225 64.9387C120.225 64.7301 120.297 64.6255 120.465 64.5454C121.716 63.9279 122.486 62.8213 123.328 61.7865C124.403 60.4634 124.66 58.8833 124.86 57.2713C124.996 56.1484 124.587 55.122 124.218 54.1037C123.986 53.4618 123.713 52.8363 123.304 52.2671C122.526 51.176 121.476 50.5506 120.264 50.0536C118.356 49.2752 116.423 48.6099 114.386 48.233C113.608 48.0885 112.83 47.9362 112.044 47.7917C111.755 47.7435 111.603 47.6075 111.498 47.3187C111.194 46.5005 110.857 45.6985 110.416 44.9206C110.119 44.3993 109.911 43.7657 109.63 43.2124C108.94 41.8409 108.034 40.5978 107.168 39.3306C106.117 37.7828 104.978 36.2991 103.751 34.8876C103.254 34.3101 102.653 33.8209 102.035 33.3798C101.867 33.2595 101.827 33.1312 101.835 32.9548C101.874 31.463 101.923 29.9713 101.955 28.4796C101.971 27.8861 101.955 27.2846 101.923 26.6912C101.859 25.4561 101.786 24.221 101.698 22.9939C101.626 21.9032 101.337 20.8446 101.137 19.7699C100.985 18.9358 100.808 18.1097 100.639 17.2837C100.624 17.1874 100.535 17.0672 100.647 17.003C100.704 16.9709 100.824 17.019 100.896 17.0672C101.329 17.3478 101.794 17.6125 102.188 17.9413C102.709 18.3744 102.733 18.4145 103.591 18.3744C103.695 18.3664 103.759 18.3985 103.816 18.4867C104.666 19.8501 106.061 20.5077 107.601 21.013C109.357 21.5904 110.833 21.7749 112.485 21.029C113.801 20.4356 114.835 19.5052 115.396 18.1258C115.677 17.4441 115.645 17.1794 115.091 16.6902C114.955 16.5699 114.955 16.4977 115.019 16.3694C115.436 15.4712 115.613 14.5248 115.621 13.5384C115.621 13.0652 115.605 12.9288 115.421 12.5198C115.372 12.4156 115.172 12.191 115.003 12.2391C114.522 12.3834 114.57 12.3033 114.386 12.2792C114.105 12.2471 114.266 11.9985 114.29 11.8381C114.394 11.2045 114.346 10.5629 114.37 9.92934C114.386 9.46418 113.72 9.30378 113.191 9.61656C112.573 9.97745 112.349 10.6512 112.028 11.2446C111.924 11.4291 111.9 11.774 111.675 11.7338C111.49 11.7018 111.611 11.3649 111.603 11.1725C111.563 10.6271 111.683 10.0817 111.523 9.5444C111.41 9.16743 111.146 8.95893 110.825 8.80654C110.593 8.69425 110.368 8.75844 110.191 8.96694C109.991 9.20757 109.822 9.46418 109.726 9.76894C109.478 10.579 109.085 11.3248 108.675 12.0707C108.644 12.0546 108.603 12.0466 108.603 12.0386C108.571 11.397 108.09 10.996 107.793 10.4908C107.625 10.2101 107.401 10.0978 107.112 10.1539C106.807 10.2181 106.558 10.4025 106.526 10.7474C106.47 11.2606 106.262 11.7258 106.149 12.223C106.101 12.4316 106.061 12.6882 105.756 12.6722C105.476 12.6561 105.524 12.4236 105.484 12.2391C105.404 11.8862 105.299 11.5414 105.211 11.1885C105.163 10.98 105.01 10.178 104.882 9.793C104.705 9.27171 104.321 8.86271 104.056 8.38953C103.944 8.189 103.743 8.11684 103.511 8.21305C103.27 8.31733 103.062 8.24517 102.909 8.06071C102.388 7.43515 101.65 7.00206 101.281 6.24014C101.193 6.05569 100.993 5.99155 100.76 5.96745C100.367 5.92736 100.054 5.67075 99.7331 5.44616C98.2496 4.38753 96.6457 3.53741 94.9774 2.80759C92.7883 1.85321 90.5025 1.28379 88.1366 1.02716C87.182 0.922893 86.2199 0.802594 85.2573 0.818634C83.9177 0.842694 82.5787 0.866755 81.2475 1.09132C80.0524 1.29181 78.8572 1.46023 77.6705 1.70885C76.1866 2.02965 74.711 2.42263 73.2594 2.87977C72.4253 3.14443 71.5752 3.32889 70.7571 3.61761C70.1879 3.82613 69.6346 4.10683 69.041 4.23515C68.8886 4.26723 68.7203 4.32337 68.5839 4.29129C66.8354 3.81009 65.103 4.03465 63.3789 4.37149C63.1384 4.41961 63.0179 4.38753 62.8735 4.14693C62.1838 2.96799 61.2376 2.02163 60.0664 1.32389C59.0719 0.738434 57.9813 0.754474 56.8828 0.938933C55.9202 1.09933 55.0382 1.46825 54.1798 1.91737C53.883 2.07777 53.7226 2.10985 53.6504 1.66875C53.49 0.658233 52.8969 0.225154 52.0065 0.433674C51.4209 0.570014 51.1162 1.09131 50.8034 1.54845C50.2262 2.38253 49.7447 3.28077 49.0953 4.05871C48.9509 4.23515 48.8548 4.26723 48.6462 4.17901C47.7319 3.78603 47.1064 4.01861 46.5609 4.86071C45.6547 6.2642 45.4702 7.83613 45.366 9.44012C45.3499 9.6326 45.3499 9.85718 45.4382 10.0176C45.7108 10.4908 45.4783 10.619 45.0612 10.7554C43.9785 11.1163 42.8878 11.4772 41.7971 11.8301C40.7224 12.1749 39.6958 12.6561 38.6292 13.0331C37.5064 13.4341 36.3756 13.827 35.2608 14.2361C34.0017 14.6932 32.7586 15.1905 31.4995 15.6476C30.3686 16.0566 29.2859 16.5619 28.1872 17.027C28.0027 17.1073 27.8263 17.0752 27.6499 17.0431C27.1366 16.9549 26.519 17.1634 26.2223 17.8531C26.1662 17.9894 26.0619 18.0536 25.9416 18.1097C25.7651 18.19 25.5807 18.2541 25.3962 18.3343C24.9712 18.5188 24.5862 18.599 24.097 18.4466C23.4474 18.2541 22.7336 18.2541 22.0599 18.1418C20.5522 17.9012 19.1005 17.4521 17.689 16.8586C16.5823 16.3934 15.4274 16.0807 14.3046 15.6797C13.5107 15.391 12.7407 15.0381 11.9067 14.8777C11.6901 14.8376 11.4736 14.8055 11.249 14.8536C10.9122 14.9258 10.5994 15.1022 10.5272 15.431C10.447 15.8 10.6876 16.0967 11.0004 16.2972C11.4495 16.586 11.9067 16.8506 12.3477 17.1554C11.3693 16.9469 10.3908 16.7784 9.39637 16.7062C9.01143 16.6822 8.69865 16.7945 8.41794 17.011C8.09714 17.2596 8.20142 17.5965 8.34578 17.8932C8.55429 18.3263 8.9954 18.4706 9.38034 18.6792C10.3588 19.2005 11.3693 19.6336 12.4199 19.9624C12.5643 20.0105 12.7006 20.0907 12.8289 20.1789C11.9227 20.1549 11.0324 19.9624 10.1262 19.9944C9.50065 20.0185 8.88311 20.0666 8.31371 20.3794C7.82449 20.6601 7.72022 21.1894 8.11318 21.6145C8.45006 21.9674 8.89112 22.1678 9.33223 22.3764C10.054 22.7212 10.8159 22.9698 11.65 23.1704C11.4174 23.3468 11.2089 23.4671 11.0405 23.6275C10.5914 24.0445 10.6395 24.4375 11.0966 24.8145C12.0269 25.5764 13.1497 25.7929 14.2805 25.9533C16.879 26.3142 19.5016 26.1458 22.1081 26.0977C22.3567 26.0896 22.5973 26.0175 22.8379 25.8892C23.1426 25.7207 23.5276 25.7448 23.8725 25.7849C24.6905 25.8651 25.5005 25.7127 26.3185 25.7127C26.928 25.7127 27.0002 25.7528 27.0002 26.4265C27.0002 26.5548 26.9682 26.6831 26.9601 26.8114C26.9441 27.028 26.904 27.2044 27.2649 27.0601C27.5937 26.9237 27.9707 26.8676 28.3315 26.8596C29.1416 26.8435 29.9195 26.635 30.7215 26.5949C31.1225 26.5708 31.8042 26.4265 32.2854 26.3704C34.6673 26.1057 36.969 25.432 39.3189 24.9989C39.6397 24.9428 39.9525 24.8385 40.2653 24.7583C40.3615 24.7342 40.4818 24.6781 40.554 24.7824C40.6342 24.8866 40.5299 24.9749 40.4818 25.0631C40.1129 25.7688 39.5675 26.3302 38.9259 26.7874C37.6989 27.6696 36.5039 28.5838 35.3811 29.5944C34.8277 30.0996 34.3626 30.6771 33.8974 31.2465C33.8573 31.2946 33.8092 31.3588 33.8092 31.4149C33.7691 32.0244 33.4403 31.9282 32.9831 31.848C31.5395 31.5914 30.112 31.1342 28.6443 31.1102C27.6418 31.0941 24.0409 30.4285 23.1747 30.4124C21.5146 30.3804 19.8544 30.4124 18.1943 30.5568C16.0449 30.7412 13.9597 31.2465 11.9467 32.0164C9.29215 33.0269 7.0706 34.655 5.34629 36.8926C3.76637 38.9457 2.45911 41.1753 1.62504 43.6614C1.18394 44.9768 0.638585 46.268 0.430065 47.6553C0.221543 49.0188 0.197476 50.3982 0.125303 51.7776C0.0691556 52.9165 0.0852096 54.0633 0.0210494 55.2022C-0.0751913 56.8142 0.189463 58.3943 0.678678 59.934C1.09572 61.2492 1.5689 62.5405 2.17842 63.7834C2.73982 64.9144 3.54983 65.8366 4.52826 66.6309C5.64304 67.5372 6.81394 68.323 8.06507 69.0446C9.45255 69.8469 10.84 70.6327 12.2836 71.3064C13.8315 72.036 15.4836 72.4533 17.1597 72.8064C18.6194 73.1111 20.095 73.0788 21.5627 73.1027C21.6669 73.1027 21.7712 73.1106 21.8755 73.1106C22.2364 73.1271 22.4048 73.2232 22.3727 73.6724C22.3005 74.5384 22.3406 75.4128 22.3406 76.2788C22.3406 77.3853 22.3406 78.4844 22.3406 79.5909C22.3486 83.8098 22.3887 88.0202 22.3406 92.2386C22.3166 94.4761 22.3246 96.714 22.3486 98.9514C22.3647 100.852 22.2765 102.745 22.3406 104.645C22.4449 107.821 22.3647 110.989 22.4449 114.165C22.493 116.146 22.493 118.135 22.5812 120.116C22.6694 122.193 22.2524 124.278 22.7657 126.316C22.9341 126.973 22.7817 127.607 22.8058 128.281C22.8138 128.473 23.1988 128.85 23.4714 128.842C23.7121 128.834 23.9847 128.473 23.9607 128.281C24.3537 126.829 24.2895 123.677 24.2654 123.164C24.2253 122.209 24.3857 121.271 24.4178 120.325C24.4579 119.089 24.506 117.854 24.5301 116.619C24.5541 115.545 24.5702 114.47 24.6103 113.387C24.6664 111.856 24.5782 110.324 24.6183 108.792C24.6985 105.792 24.6664 102.785 24.6825 99.7855C24.6905 98.1013 24.8027 96.4092 24.7306 94.733C24.6744 93.3775 24.8268 92.014 24.6584 90.6585C24.6183 90.3059 24.7386 89.9369 24.7386 89.5759C24.7306 87.9236 24.6985 86.2718 24.6825 84.6195C24.6825 84.5074 24.6263 84.3386 24.7546 84.2988C24.9231 84.2505 24.883 84.4432 24.9311 84.5313C25.1075 84.8361 25.9817 86.0149 26.0859 86.1274C26.3667 86.4242 26.5912 86.713 26.7917 87.0736C26.9521 87.3544 28.5561 88.8543 28.5802 89.8488C28.5721 91.1077 28.5561 92.3751 28.5641 93.634C28.5722 94.9576 28.6123 96.2887 28.6283 97.6118C28.6363 98.3897 28.6604 99.176 28.6203 99.9538C28.5721 100.94 28.6684 101.927 28.6844 102.913C28.7085 104.317 28.7245 105.72 28.7566 107.132C28.8368 110.171 28.8528 113.339 29.4223 116.33C29.5506 116.523 29.7591 116.435 29.8152 116.323ZM87.4947 65.7325C87.4947 65.7644 87.4947 65.7968 87.4947 65.8287C87.3667 65.8446 87.2462 65.8769 87.1178 65.8849C85.6104 65.9492 84.1104 66.1175 82.6026 66.1976C80.7819 66.2938 78.9777 66.4944 77.1571 66.6389C75.6652 66.7589 74.1737 66.8634 72.6902 66.9914C70.7814 67.1518 68.8807 67.3365 66.9799 67.4889C64.2932 67.6976 61.6066 67.8898 58.9275 68.0984C56.6502 68.2747 54.3725 68.4595 52.0947 68.6437C51.0201 68.7319 49.9534 68.8041 48.8787 68.8843C47.6358 68.9804 46.3925 69.1009 45.1494 69.189C43.2968 69.3175 41.4282 69.3574 39.5835 69.574C37.5545 69.8065 35.5174 69.8628 33.4884 70.0794C30.9781 70.3439 28.4599 70.432 25.9576 70.7771C23.8323 71.0659 21.683 71.1381 19.5336 70.9857C19.1567 70.9614 18.7717 70.9613 18.4108 70.8812C16.3337 70.432 14.2886 69.9031 12.3718 68.9644C10.9362 68.2668 9.48462 67.601 8.23349 66.5746C7.13474 65.6763 6.06009 64.762 5.19391 63.6231C4.23955 62.3642 3.56587 60.9688 2.94032 59.5332C2.42703 58.3619 2.21851 57.111 2.16237 55.8521C2.07415 54.0071 2.31475 52.1625 2.33079 50.318C2.33079 49.7488 2.4511 49.1791 2.54734 48.6179C2.77992 47.1983 3.30121 45.8589 3.79043 44.5196C4.39995 42.8434 5.25809 41.2795 6.25256 39.7958C6.95029 38.7612 7.70418 37.7588 8.63451 36.9246C9.59691 36.0505 10.6716 35.3206 11.8665 34.7673C12.9332 34.27 14.0159 33.7808 15.1467 33.5242C17.6569 32.9468 20.1752 32.5137 22.7817 32.5538C24.883 32.5858 29.4303 33.2355 29.5666 33.2676C30.4408 33.46 31.315 33.6605 32.1972 33.837C32.4378 33.8851 33.3039 34.0375 33.4563 34.0936C34.114 34.3422 34.8197 34.3262 35.5014 34.5026C36.7285 34.8234 37.9956 35.0239 39.2387 35.2725C39.4071 35.3046 41.2036 35.6575 41.7088 35.7698C45.1735 36.5237 48.6621 37.2053 52.143 37.9192C56.1931 38.7452 60.2511 39.5793 64.3012 40.4053C64.9108 40.5337 65.5203 40.7502 66.1298 40.7582C66.4665 40.7662 66.7229 40.8464 67.0197 40.9266C67.6213 41.079 68.2388 41.1993 68.8403 41.3357C70.0594 41.6084 71.2944 41.7928 72.5135 42.0574C74.4865 42.4825 76.4515 42.9076 78.4404 43.2605C79.0579 43.3728 79.0898 43.4128 78.8816 44.0304C78.4324 45.3216 78.1675 46.6609 77.9992 48.0163C77.8787 48.9466 77.7906 49.8768 77.7024 50.807C77.6626 51.176 77.558 51.545 77.3414 51.8259C77.077 52.1625 77.1332 52.3871 77.3977 52.668C77.6626 52.9404 77.919 53.2372 77.4858 53.6062C77.3095 53.7586 77.4459 53.8467 77.5983 53.9513C78.1999 54.3761 78.9215 54.4562 79.5793 54.7371C80.261 55.0339 80.9587 55.2904 81.6883 55.4348C82.1295 55.5229 82.1857 55.6275 81.8889 55.9562C80.9746 56.9347 80.5658 58.1458 80.277 59.4127C80.2367 59.573 80.1968 59.7896 80.0763 59.8698C79.6191 60.1746 79.7715 60.5117 79.9399 60.8802C80.0763 61.177 80.4054 61.4738 79.9802 61.7945C79.9563 61.8109 79.9642 61.8991 79.9882 61.9389C80.1166 62.1874 80.2127 62.4444 80.4856 62.6047C81.9049 63.4468 83.3485 64.2326 84.9122 64.7864C85.7627 65.0349 86.6208 65.3954 87.4947 65.7325ZM77.935 22.4967C77.927 22.641 78.1357 22.6571 78.1596 22.5208C78.1835 22.3443 78.2079 22.1598 78.2318 21.9834C78.296 21.422 78.3602 20.8045 78.9618 20.604C79.523 20.4115 79.8517 19.9624 80.1246 19.5774C80.766 18.6471 81.7445 18.0857 82.4825 17.2677C83.108 16.5779 83.9421 16.1449 84.6961 15.6155C85.7627 14.8697 86.813 14.1078 88.0485 13.6346C89.524 13.0652 90.9433 12.3514 92.5234 12.0787C93.4217 11.9263 94.2877 11.8942 95.1059 12.3434C95.6751 12.6561 96.2846 12.9369 96.6456 13.4982C96.9743 14.0115 97.2392 14.5649 97.5117 15.1102C97.8886 15.8722 98.29 16.6261 98.4503 17.4842C98.6585 18.599 98.8592 19.7057 99.1236 20.8125C99.2924 21.5182 99.5728 22.208 99.6131 22.9298C99.7172 24.5418 99.7735 26.1538 99.7814 27.7658C99.7894 29.2896 99.6933 30.8054 99.6774 32.3292C99.6694 32.7944 99.6131 33.2676 99.6609 33.7247C99.7252 34.3342 99.7252 34.9437 99.7331 35.5532C99.7575 36.7562 99.5086 37.9753 99.8377 39.1622C99.9099 39.4189 99.7331 39.4028 99.5892 39.4429C98.8353 39.6434 98.0813 39.844 97.3513 40.1326C95.4749 40.8946 93.7344 41.881 92.1145 43.1081C90.5105 44.3191 88.9707 45.5862 87.5993 47.0539C87.5107 47.1501 87.4469 47.3027 87.2383 47.2863C87.3264 46.4765 87.2144 45.6745 87.2701 44.8805C87.3583 43.7096 87.3344 42.5387 87.3588 41.3677C87.3906 39.6274 87.2701 37.8951 87.2462 36.1548C87.2223 34.4545 87.2462 32.7542 87.2383 31.054C87.2303 29.434 86.9898 27.814 87.0779 26.1859C87.1178 25.3919 87.0859 24.5979 87.0779 23.812C87.0779 23.6596 87.062 23.4591 86.8772 23.435C86.677 23.411 86.6606 23.6195 86.5969 23.7558C86.5247 23.9322 86.5406 24.1167 86.5326 24.2932C86.5003 25.3678 86.5406 26.4586 86.4201 27.5252C86.2199 29.3377 86.0352 31.1422 85.9629 32.9628C85.955 33.1553 85.955 33.4039 85.7548 33.4761C85.2254 33.6765 84.8081 34.0696 84.2788 34.254C82.7629 34.7673 81.2555 34.663 79.7636 34.1337C78.1436 33.5643 76.7881 32.5538 75.4729 31.4791C75.0477 31.1262 74.7514 30.7974 75.1279 30.244C75.2165 30.1157 75.1279 29.843 75.449 29.9553C75.5212 29.9793 75.5133 29.835 75.5292 29.7628C75.6014 29.3538 75.6333 28.9287 75.7538 28.5357C76.1467 27.2525 76.203 25.9212 76.2991 24.5979C76.3071 24.4536 76.4032 23.5794 76.4271 23.2185C76.4754 22.3844 76.7881 21.5824 76.7881 20.7403C76.7881 20.5478 76.7881 20.2912 76.9007 20.1869C77.2692 19.8581 77.6865 19.5774 78.0794 19.2806C78.1033 19.401 78.0714 19.4972 78.0231 19.5133C77.5904 19.6656 77.5739 20.0345 77.5421 20.4034C77.5261 20.596 77.3977 20.8045 77.3737 21.005C77.3414 21.3418 77.3658 21.5022 77.3015 21.9834C77.2612 22.1037 77.2373 22.2801 77.3897 22.3202C77.5261 22.3523 77.6302 22.2481 77.6705 22.1598C77.7667 21.9513 77.807 21.7588 77.9912 21.5423C77.9992 21.8711 77.9594 22.1919 77.935 22.4967ZM64.2051 31.6876C64.1005 31.463 64.0283 31.2786 63.9322 31.1182C63.3466 30.0996 62.8252 29.041 62.2799 27.9904C61.6226 26.7232 60.8846 25.4962 60.2188 24.229C59.5774 23.01 58.8155 21.8631 58.2219 20.612C58.1178 20.3954 58.1497 20.3153 58.3743 20.2591C58.679 20.1869 58.9678 20.0826 59.2726 20.0025C60.291 19.7538 61.1893 19.2005 62.1838 18.8957C62.3521 18.8396 62.4323 18.7193 62.3924 18.5268C62.3442 18.3263 62.2077 18.2541 62.0155 18.2701C61.6066 18.3102 61.1893 18.3504 60.7805 18.3584C59.5694 18.3824 58.4305 18.7513 57.2598 18.9679C56.2489 19.1524 55.2708 19.4732 54.2599 19.6416C52.7042 19.9062 51.1884 20.2992 49.6566 20.6761C48.4619 20.9649 47.2588 21.2376 46.0717 21.5744C45.1975 21.823 44.2993 21.9593 43.4171 22.1759C41.5324 22.6571 39.6477 23.1463 37.755 23.6114C36.0066 24.0445 34.2744 24.5658 32.534 25.047C32.1651 25.1513 32.0528 25.0631 32.1491 24.6701C32.1972 24.4616 32.2212 24.2611 32.2052 24.0526C32.0047 21.7749 31.2428 19.7218 29.6709 18.0215C29.5265 17.8611 29.2699 17.7007 29.711 17.5965C30.8579 17.3158 31.9886 16.9629 33.1195 16.594C35.8142 15.7198 38.533 14.9017 41.2116 13.9714C43.1123 13.3058 45.0371 12.7042 46.9296 12.0065C49.4803 11.0521 52.0464 10.1298 54.605 9.19955C55.1906 8.991 55.7439 8.71033 56.3614 8.57398C57.2996 8.37345 58.2542 8.22913 59.1362 7.82811C60.155 7.36294 61.1654 6.88976 62.1758 6.4246C62.3362 6.35244 62.4806 6.29631 62.6489 6.40856C62.9377 6.60905 63.2266 6.82562 63.5149 7.01809C64.1085 7.42713 64.734 7.74793 65.3998 7.99653C65.5282 8.04463 65.7369 8.05265 65.7528 8.19701C65.7688 8.35741 65.5601 8.38147 65.4401 8.43764C64.8784 8.67821 64.5417 9.11932 64.3331 9.66471C64.2932 9.76894 66.9639 11.4451 67.8299 11.8782C68.0784 11.9985 69.2576 12.6642 69.6262 12.8486C70.5808 13.3298 72.8825 14.7253 73.0428 14.8536C73.4038 15.1424 74.35 15.6316 74.4302 15.6316C74.5507 15.6236 74.5746 15.7358 74.6468 15.7759C75.2324 16.1849 76.8927 17.4762 77.0451 17.5243C77.5983 17.6766 77.3254 17.8932 77.0929 18.0616C76.4435 18.5348 75.7777 18.9839 75.1119 19.441C74.366 19.9544 73.6284 20.4917 72.9064 21.037C72.5055 21.3418 71.1584 22.4967 71.006 22.633C69.8348 23.6516 68.7681 24.7664 67.7737 25.9613C67.0441 26.8435 66.3783 27.7658 65.7369 28.7202C65.1274 29.6425 64.5417 30.5568 64.2051 31.6876ZM110.36 54.0474C110.36 55.7395 110.079 57.3918 109.694 59.0197C109.421 60.1666 108.275 64.0802 108.01 64.7141C107.44 66.0771 106.815 67.4167 106.197 68.7642C106.093 68.9888 106.093 69.3574 105.885 69.3977C105.62 69.4539 105.556 69.0526 105.355 68.9082C105.323 68.8843 105.291 68.8604 105.267 68.828C104.048 67.5691 102.573 66.6707 101.081 65.8127C100.038 65.2032 98.8911 64.7943 97.7442 64.4009C97.5759 64.3451 97.4076 64.3208 97.4718 64.0723C97.5759 63.6714 97.664 63.2625 97.7526 62.8532C97.8005 62.6207 97.9369 62.4683 98.1774 62.4603C99.4767 62.404 100.616 61.8587 101.762 61.3453C102.131 61.185 102.46 60.9604 102.589 60.5595C102.877 59.6372 102.989 58.707 102.476 57.8326C101.682 56.4855 100.792 55.2022 99.7575 54.0314C99.2122 53.4139 98.7068 52.78 98.3059 52.0584C97.6804 50.9275 97.175 49.7488 96.6775 48.5616C96.2846 47.6155 95.9799 46.6609 96.0042 45.6264C96.0122 45.3777 96.0924 45.2494 96.2926 45.1372C96.814 44.8404 97.3114 44.5276 97.7044 44.0464C98.3458 43.2605 99.0355 42.5146 99.6609 41.7206C100.696 40.4214 101.578 39.042 101.746 37.3257C101.762 37.1412 101.786 36.9648 101.811 36.7803C101.827 36.6921 101.811 36.5798 101.923 36.5557C102.027 36.5317 102.083 36.6199 102.139 36.7001C103.134 38.1196 104.337 39.3788 105.235 40.8625C105.989 42.1056 106.839 43.2845 107.545 44.5597C107.89 45.1772 108.307 45.7868 108.563 46.4204C108.956 47.3665 109.349 48.337 109.59 49.3475C109.975 50.9036 110.376 52.4434 110.36 54.0474ZM73.476 4.79655C75.08 4.40357 76.5556 3.98653 78.0555 3.68177C79.4911 3.38503 80.9428 3.18453 82.4103 3.06423C84.6961 2.88779 86.9574 2.92789 89.2192 3.24067C90.9114 3.47325 92.5473 3.93039 94.1433 4.54793C96.068 5.28576 97.913 6.18402 99.6694 7.25065C99.8377 7.35493 99.9901 7.46722 100.038 7.68374C100.174 8.33336 100.335 8.97496 100.447 9.6326C100.712 11.2045 100.624 12.7925 100.639 14.3805C100.639 14.5248 100.712 14.7253 100.543 14.8055C100.399 14.8777 100.287 14.7093 100.174 14.6371C99.9418 14.4767 99.7416 14.4045 99.6933 14.7975C99.6853 14.8536 99.645 14.9098 99.6131 14.9659C99.4528 14.8857 99.4528 14.7413 99.4124 14.629C98.8512 13.2336 98.1774 11.9103 96.7662 11.1885C95.1378 10.3464 93.4456 10.0416 91.6414 10.6271C91.0717 10.8116 90.4861 11.0201 89.8527 10.8517C88.3851 10.4586 86.8932 10.2662 85.3778 10.4426C84.9764 10.4908 84.5835 10.5709 84.2225 10.7554C83.5328 11.1002 83.2121 10.4667 82.7549 10.2101C82.3541 9.99353 82.1135 9.56044 81.7286 9.32783C80.8626 8.79852 80.0604 8.16494 79.1864 7.64365C77.8548 6.85769 76.4913 6.14393 75.096 5.47823C74.599 5.23766 74.0452 5.14941 73.476 4.79655ZM60.6122 37.3016C60.9085 36.9568 61.2053 36.7322 61.39 36.4114C62.0234 35.3046 62.4243 34.1257 62.6569 32.8745C62.6728 32.7703 62.633 32.6019 62.7774 32.5858C62.8496 32.5778 62.9696 32.6901 63.0099 32.7703C63.3386 33.468 64.1727 33.8209 64.2768 34.679C64.2933 34.8394 64.4695 34.9838 64.5816 35.1201C65.111 35.7938 65.8729 36.0104 66.6592 36.1548C67.2124 36.259 68.1989 36.5076 69.0973 35.9622C70.0116 35.6736 70.9254 35.3688 71.7595 34.8876C72.4412 34.5026 73.1474 34.1257 73.5403 33.3878C73.5801 33.3076 73.8286 32.9307 73.8689 32.626C74.0776 32.634 74.1817 32.6901 74.2778 32.7944C74.727 33.2836 75.2887 33.6445 75.8016 34.0455C76.2508 34.3984 76.7319 34.6951 77.2373 34.9678C77.8468 35.2966 79.5071 36.0024 79.6192 36.0344C81.7928 36.636 83.7897 36.3392 85.5541 34.8716C85.6183 34.8154 85.6741 34.7192 85.7787 34.7432C85.8987 34.7753 85.8589 34.8876 85.8589 34.9758C85.7867 36.1307 85.7548 37.2776 85.6502 38.4324C85.5541 39.5312 85.5217 40.6379 85.4819 41.7366C85.466 42.2018 85.3858 42.3061 84.9685 42.2098C84.8161 42.1777 84.5676 42.1136 84.4072 42.0896C83.0517 41.8249 81.6883 41.5682 80.3332 41.2956C78.4484 40.9106 76.5715 40.5096 74.6792 40.1326C72.618 39.7156 70.5489 39.3306 68.4793 38.9136C66.6427 38.5447 64.8146 38.1597 62.9776 37.7908C62.2321 37.6304 61.4542 37.478 60.6122 37.3016ZM97.7283 95.4386C97.2149 94.4521 97.0465 93.4173 96.686 92.4473C96.5172 91.9981 96.3489 91.5489 96.1965 91.0918C95.6273 89.4315 94.9296 87.8275 94.0875 86.2798C93.3575 84.9402 92.4994 83.6893 91.625 82.4463C90.6469 81.0669 89.6281 79.7433 88.1685 78.8454C87.9519 78.7089 88.0564 78.6686 88.1844 78.5884C88.8662 78.1557 89.532 77.7065 90.2217 77.2892C91.3924 76.5836 92.4511 75.7734 93.1169 74.5224C93.6782 73.4717 94.2638 72.4294 94.7688 71.3463C94.8733 71.1217 95.0018 70.9614 95.2742 71.1217C95.6671 71.3463 96.068 71.5629 96.4614 71.7955C96.7661 71.9802 99.2601 74.6185 99.3646 74.6987C99.517 74.8112 99.4204 74.9477 99.3646 75.0836C98.9394 76.1667 98.4259 77.225 98.2736 78.4042C98.0813 79.8478 97.921 81.2915 97.7606 82.7346C97.6242 83.9298 97.6162 85.1329 97.7526 86.3037C98.033 88.7019 98.0091 91.1077 98.0733 93.506C98.0733 94.1314 98.049 94.8052 97.7283 95.4386ZM100.832 59.1801C100.832 59.4928 100.888 59.7015 100.752 59.9823C100.632 60.2308 100.575 60.2787 100.343 60.3509C98.0733 61.0087 95.7717 60.9524 93.5178 60.4714C91.6653 60.0705 89.9249 59.2682 88.3368 58.2016C87.3264 57.5278 87.3503 57.5119 87.8398 56.3491C88.1446 55.6275 88.5614 54.9697 88.8582 54.256C89.3955 52.9568 89.5399 51.569 89.7083 50.1895C89.7406 49.9012 89.6764 49.5322 89.9089 49.3475C90.3661 48.9705 90.7351 48.5133 90.9194 47.9845C91.3446 46.7331 93.4377 46.4925 94.4804 47.2783C94.5686 47.3426 94.6328 47.4387 94.6248 47.5432C94.5845 48.1284 94.7772 48.6657 94.9296 49.2115C95.4988 51.2084 96.4211 53.0126 97.8328 54.5205C98.6585 55.4029 99.3243 56.3809 100.014 57.3595C100.431 57.9531 100.969 58.5227 100.832 59.1801ZM122.711 57.2474C122.662 58.9958 122.398 60.3912 121.435 61.546C121.026 62.035 120.641 62.6047 120.048 62.8373C118.845 63.3024 117.578 63.6151 116.287 63.7197C114.474 63.8557 112.653 63.9199 110.841 64.0324C110.496 64.0563 110.44 63.9841 110.552 63.6475C110.801 62.8776 111.121 62.1316 111.338 61.3617C111.707 60.0461 111.948 58.6911 112.244 57.3515C112.766 55.0179 112.734 52.6839 112.309 50.3419C112.26 50.0775 112.341 50.0536 112.565 50.0934C113.102 50.198 113.632 50.3021 114.169 50.3902C115.284 50.5745 116.407 50.7109 117.449 51.2084C117.987 51.4649 118.508 51.7696 119.094 51.93C119.438 52.0261 119.759 52.2108 120.112 52.307C120.353 52.3792 120.698 52.7322 120.93 53.0206C121.965 54.3442 122.502 55.876 122.711 57.2474ZM11.4014 15.808C11.5377 15.8321 11.6099 15.8321 11.6821 15.8561C12.9572 16.3133 14.2324 16.7383 15.4996 17.2276C16.9753 17.797 18.483 18.2942 19.9988 18.7353C21.0574 19.0401 22.1642 19.1443 23.2629 19.2806C23.5677 19.3208 23.9286 19.1924 24.1933 19.5052C25.292 20.8125 25.9977 22.3122 26.4228 23.9483C26.4789 24.1729 26.4148 24.3172 26.2063 24.3653C25.8454 24.4536 25.5005 24.5979 25.1075 24.5738C23.1747 24.4776 21.2339 24.4536 19.301 24.3172C17.9617 24.229 16.6464 23.9403 15.3312 23.6997C15.2751 23.6917 15.1868 23.6596 15.1708 23.6195C15.1307 23.5313 15.2269 23.4832 15.2911 23.451C15.3793 23.4029 15.4755 23.3548 15.5798 23.3308C16.6785 23.0902 17.7853 22.8656 18.884 22.617C19.6218 22.4486 20.3517 22.2801 21.0735 22.0636C21.4023 21.9674 21.9075 21.6546 21.8514 21.4621C21.7712 21.1333 21.3061 21.0932 20.9211 21.0772C20.2073 21.045 19.5015 21.1012 18.8118 21.2776C18.7156 21.3017 18.6033 21.3418 18.5071 21.2696C17.9296 20.8686 17.248 20.7242 16.6064 20.4917C15.1948 19.9704 13.7192 19.6175 12.3317 19.008C11.6019 18.6872 10.8881 18.3263 10.1743 17.9814C10.864 17.9814 11.5217 18.1178 12.1472 18.3022C12.9572 18.5508 13.7994 18.6631 14.6094 18.9438C15.7963 19.3528 17.0234 19.6496 18.2264 20.0345C18.9161 20.2591 19.6379 20.3473 20.3597 20.4596C20.5923 20.4997 20.8008 20.4275 20.8088 20.1789C20.8569 19.9222 20.7045 19.9062 20.5602 19.826C20.3437 19.7057 20.1752 19.5213 19.9186 19.4651C19.0925 19.2726 18.3386 18.8877 17.5206 18.6712C17.0474 18.5428 16.6144 18.2862 16.1492 18.1178C14.7457 17.6205 13.3984 17.019 12.0831 16.3293C11.8425 16.225 11.6099 16.0887 11.4014 15.808ZM52.6803 8.06873C52.7202 7.84414 52.7605 7.66771 52.7844 7.49127C52.8725 6.87373 52.6963 6.67324 52.0947 6.50482C51.3487 6.28825 50.8273 6.68927 50.29 7.07421C49.6566 7.53136 49.2074 8.19701 48.574 8.65416C48.4056 8.77447 48.2209 9.04717 48.0127 8.87073C47.8524 8.73438 48.0207 8.47773 48.1009 8.29327C48.6302 7.08223 49.3438 5.98353 50.1137 4.91685C50.7636 4.01861 51.3567 3.08829 51.758 2.05371C51.8542 1.80509 51.9826 1.58053 52.1749 1.40409C52.4154 1.17953 52.6161 1.25171 52.6559 1.57251C52.6963 1.85321 52.7122 2.15797 52.6081 2.42263C52.4717 2.79957 52.632 3.04819 52.9607 3.08829C53.2978 3.13641 53.6345 3.10433 53.9233 3.31285C53.9472 3.32889 54.0194 3.29681 54.0677 3.27275C54.4287 3.12839 54.7893 2.98403 55.1503 2.83165C55.8963 2.52689 56.6179 2.16599 57.444 2.10985C57.7169 2.09381 57.8613 2.10183 57.7089 2.43065C57.6123 2.63917 57.5565 2.87175 57.5003 3.09631C57.2598 4.02663 57.3076 4.94893 57.6283 5.8552C57.7089 6.07974 57.7971 6.30433 57.46 6.47275C55.9525 7.23461 54.2763 7.47524 52.6803 8.06873ZM114.033 18.214C114.113 18.1819 114.186 18.2862 114.121 18.3504C113.183 19.3128 112.036 20.0345 110.624 20.1228C109.141 20.219 107.825 19.6977 106.543 19.024C105.805 18.631 105.082 18.1819 104.24 18.0055C104.04 17.9654 104.08 17.8692 104.128 17.7248C104.224 17.4281 104.465 17.2195 104.585 16.9228C104.858 16.225 105.171 15.5353 105.291 14.7894C105.339 14.4606 105.556 14.3323 105.877 14.2682C106.47 14.1559 106.951 13.8592 107.28 13.3218C107.481 12.985 107.521 12.6241 107.577 12.2552C107.585 12.8486 107.665 13.4341 107.553 14.0276C107.481 14.4205 107.08 14.9258 107.858 15.0782C107.866 15.0782 107.882 15.0942 107.882 15.1102C108.106 15.7037 108.804 15.9363 108.972 16.5779C109.02 16.7704 109.157 16.9468 109.261 17.1233C109.454 17.4601 109.598 17.8611 109.879 18.1097C110.079 18.2862 110.199 18.3985 110.191 18.6712C110.167 19.0721 110.448 19.2325 110.793 19.2406C111.114 19.2486 111.435 19.2085 111.755 19.1363C112.541 18.9598 113.287 18.5348 114.033 18.214ZM100.134 72.7979C100.022 72.7979 99.9741 72.7098 99.9259 72.6455C99.8133 72.4931 99.7172 72.3168 99.5892 72.1645C98.6266 71.05 97.5679 70.0714 96.0521 69.7587C95.8917 69.7264 95.5551 69.7423 95.6995 69.3653C96.0844 68.331 96.4534 67.2962 96.8219 66.2539C96.9101 66.0134 97.0386 65.9412 97.2955 66.0373C99.0116 66.6946 100.624 67.5611 102.107 68.6517C102.243 68.7478 102.3 68.8444 102.212 69.0127C101.578 70.2074 100.88 71.3627 100.351 72.6057C100.311 72.6938 100.255 72.782 100.134 72.7979ZM26.4308 18.5188C26.5591 18.4947 26.6875 18.4947 26.8078 18.5188C27.6899 18.6872 28.1471 19.0802 28.6764 19.8341C29.4704 20.9809 30.0318 22.24 30.4648 23.5714C30.7215 24.1649 30.7776 24.606 30.9942 25.2716C31.0824 25.3839 30.9541 25.408 30.8899 25.4641C30.6172 25.7127 30.3285 25.5202 30.0077 25.6566C29.4463 25.8892 28.8608 26.0656 28.2834 26.2581C28.0829 26.3222 27.8984 26.2661 27.9867 26.0255C28.1952 25.4561 27.9145 25.2235 27.8984 24.6701C27.8744 23.9323 27.6338 23.2105 27.3932 22.5208C27.1446 21.815 26.8639 21.1173 26.4709 20.4676C26.102 19.8501 25.9656 19.4491 25.3802 19.0401C25.2519 18.9518 25.2278 18.8636 25.4043 18.7994C25.7251 18.6712 26.0779 18.5749 26.4308 18.5188ZM75.5935 14.196C75.3285 14.2281 75.2244 14.1158 75.1119 14.0356C73.7808 13.1454 72.4173 12.3113 71.022 11.5333C69.8189 10.8597 68.5998 10.2181 67.3489 9.6326C67.2523 9.58449 67.0919 9.56044 67.0999 9.42409C67.1083 9.3118 67.2443 9.28774 67.3409 9.24765C67.9181 9.01505 68.2228 8.53385 68.311 7.97247C68.3593 7.66771 68.3752 7.27475 67.9504 7.05818C67.0839 6.62513 66.2179 6.20807 65.3196 5.81511C65.7285 5.87124 66.1457 5.77498 66.5466 5.8552C68.0784 6.14393 69.402 6.87373 70.5245 7.9404C71.7436 9.09527 72.7863 10.4186 73.8371 11.7258C74.4625 12.4877 74.9919 13.3298 75.5935 14.196ZM73.8929 8.29327C74.599 8.71033 75.3609 9.0632 76.0103 9.55242C77.5102 10.6752 78.8174 12.0145 80.0763 13.41C80.3089 13.6747 80.1007 13.7789 79.9 13.8592C79.4349 14.0276 79.0579 14.3323 78.7049 14.6531C78.3119 15.006 78.3279 15.0221 78.0714 14.5328C77.3897 13.2015 76.5715 11.9504 75.6816 10.7474C75.08 9.92934 74.5347 9.08725 73.8929 8.29327ZM102.38 9.14338C102.372 9.04717 102.316 8.91884 102.508 8.94289C102.853 8.98298 103.262 9.42409 103.31 9.793C103.431 10.7313 103.607 11.6617 103.719 12.6C103.855 13.7068 103.711 14.7814 103.455 15.8321C103.262 16.61 103.206 16.594 102.54 16.1449C102.404 16.0486 102.268 15.9524 102.115 15.8641C101.899 15.7358 101.859 15.5914 101.947 15.3509C102.428 14.0917 102.661 12.7845 102.62 11.4291C102.597 10.6592 102.452 9.90529 102.38 9.14338ZM16.0048 21.8952C15.4675 21.8872 15.0344 22.1598 14.5693 22.3523C14.4008 22.4245 14.2324 22.4886 14.04 22.4566C12.5883 22.1919 11.1608 21.8631 9.7974 21.2857C9.69312 21.2456 9.53272 21.2215 9.55678 21.0772C9.58083 20.9328 9.73321 20.9649 9.85352 20.9569C11.1688 20.8365 12.436 21.1974 13.7272 21.3338C14.4971 21.422 15.2028 21.807 16.0048 21.8952ZM91.1519 45.6665C91.1599 45.5943 91.1599 45.5622 91.1679 45.5461C92.2425 44.5837 93.4297 43.7657 94.6084 42.9557C94.6726 42.9156 94.7528 42.8514 94.8171 42.9236C94.8574 42.9717 94.8574 43.068 94.8494 43.1401C94.7449 43.8299 94.6328 44.5276 94.5203 45.2173C94.4884 45.4018 94.4241 45.466 94.1996 45.4178C93.7663 45.3216 93.3336 45.2976 92.8844 45.2815C92.2828 45.2735 91.7296 45.474 91.1519 45.6665ZM113.127 11.2687C113.175 11.1644 113.327 11.1965 113.335 11.3088C113.391 12.2872 113.367 13.2336 112.59 13.9794C112.525 14.0436 112.501 14.1398 112.445 14.212C112.004 14.7654 111.659 15.407 111.066 15.8241C110.945 15.9042 110.825 16.1449 110.648 15.9444C110.48 15.7599 110.609 15.5674 110.745 15.423C111.803 14.3082 112.405 12.9288 112.998 11.5494C113.03 11.4612 113.079 11.3649 113.127 11.2687ZM113.993 14.2842C114.057 14.212 114.169 14.2762 114.137 14.3644C113.856 15.2546 113.512 16.0566 113.094 16.8346C112.966 17.0832 112.806 17.2677 112.557 17.3639C112.124 17.5323 111.683 17.6927 111.242 17.837C111.13 17.8772 110.953 17.9493 110.881 17.821C110.785 17.6686 110.969 17.5965 111.066 17.5323C112.14 16.7544 113.047 15.816 113.744 14.6852C113.825 14.5569 113.881 14.4045 113.993 14.2842ZM110.601 10.5309C110.632 10.4586 110.737 10.4908 110.737 10.5629C110.729 10.7394 110.721 10.8837 110.713 11.0201C110.624 11.9504 110.512 12.8727 110.288 13.787C110.232 14.0356 110.216 14.3082 109.967 14.4125C109.702 14.5248 109.678 14.18 109.51 14.0757C109.157 13.8592 109.189 13.6025 109.413 13.2977C109.638 12.993 109.758 12.6321 109.919 12.2953C110.175 11.7579 110.296 11.1484 110.601 10.5309ZM87.0137 12.2311C86.7811 12.3915 86.5884 12.5038 86.4121 12.6401C85.8668 13.0652 85.8429 13.0572 85.4819 12.4797C85.3295 12.2471 85.4256 12.1589 85.6263 12.1509C86.0675 12.1349 86.5162 12.0948 87.0137 12.2311ZM14.9462 24.5819C14.2084 24.4295 13.4705 24.2771 12.6605 24.1167C13.0535 23.8681 13.4625 23.9403 13.8074 23.7959C13.8796 23.7638 13.9838 23.7558 14.0239 23.828C14.2404 24.1969 14.6335 24.3252 14.9462 24.5819Z" fill="#00AEFF"/>
<path d="M18.4751 39.3226C18.3387 39.467 18.451 39.7156 18.6515 39.7076C18.7638 39.6996 18.8681 39.6916 19.0044 39.7236C19.5016 39.8439 19.9828 39.6434 20.456 39.5071C23.3031 38.7051 25.8133 39.3707 28.091 41.1833C28.7647 41.7126 29.4624 42.2098 29.9917 42.8835C30.874 44.0143 31.8364 45.113 32.1411 46.5807C32.3577 47.6234 32.2614 48.6657 31.9486 49.6686C31.4995 51.1038 30.8178 52.4513 29.7672 53.5419C29.294 54.0314 28.7888 54.5045 28.2755 54.9617C27.9868 55.2181 27.8665 55.491 28.0509 55.9158C28.6444 57.2633 29.3822 58.5307 30.1121 59.8055C30.6013 60.6476 31.0985 61.4818 31.5797 62.3318C31.7321 62.5967 31.9085 62.8372 32.117 63.0459C32.6383 63.5673 32.6383 64.4413 32.109 64.9303C31.6519 65.3555 31.1466 65.2754 30.6494 65.0667C29.9356 64.7699 29.4304 64.2007 29.1016 63.5349C28.7647 62.8452 28.3958 62.1715 28.0509 61.4977C27.2409 59.926 26.3025 58.4261 25.3723 56.9267C25.0835 56.4616 24.5703 56.3894 24.0971 56.2689C23.1828 56.0283 22.2846 56.4053 21.3623 56.357C19.0204 56.245 17.0475 55.3307 15.4355 53.7346C14.032 52.3473 13.0376 50.679 13.0215 48.5696C13.0215 47.848 13.0776 47.1421 13.1498 46.4364C13.206 45.891 14.2004 43.5251 14.6335 42.8674C15.0185 42.29 17.1838 40.293 17.4886 40.1005C17.5688 40.0524 17.641 39.9882 17.6009 39.884C17.5528 39.7637 17.4165 39.6835 17.3042 39.7076C17.0154 39.7717 16.7668 39.9722 16.5423 40.1406C15.9007 40.6218 15.243 41.0629 14.5693 41.5041C13.3984 42.282 12.3879 43.2043 11.8025 44.5757C11.3213 45.7145 11.0165 46.8534 10.9684 48.0726C10.9524 48.4252 10.9363 48.7703 11.0085 49.1228C11.0405 49.2593 11.5298 52.0101 12.1313 52.9966C12.7809 54.0633 13.4947 55.0981 14.4892 55.852C16.0932 57.0627 17.8335 57.953 19.9267 58.0412C21.1297 58.0975 22.3166 58.1936 23.4876 57.8569C23.664 57.8086 23.7442 57.8808 23.8244 58.0253C24.9392 59.95 26.0379 61.8826 27.2008 63.7834C27.5216 64.3048 27.7943 64.8421 28.107 65.3635C29.1657 67.1518 31.5316 67.5128 33.1516 66.2295C34.499 65.1628 34.6594 63.3905 33.9857 61.9952C33.1837 60.3508 32.2373 58.8111 31.3231 57.2394C30.9622 56.6219 30.6013 56.0124 30.2163 55.4029C30.1281 55.2664 30.0479 55.1459 30.2564 55.0179C31.2749 54.4004 32.0128 53.5021 32.6785 52.5315C33.3762 51.5052 33.9456 50.4141 34.2263 49.1871C34.7155 47.0539 34.5792 45.0409 33.2719 43.1882C32.6143 42.2499 32.0449 41.2394 31.2268 40.4374C30.6975 39.9161 30.0479 39.491 29.3902 39.1381C28.4439 38.6329 27.5697 37.9833 26.471 37.7828C24.8911 37.486 23.3352 37.1171 21.7071 37.6304C20.865 37.895 19.9989 38.0234 19.237 38.5286C18.9082 38.7532 18.7157 39.066 18.4751 39.3226Z" fill="#00AEFF"/>
<path d="M22.1155 41.1753C20.2389 41.2555 19.3406 41.5763 18.1376 42.4344C17.3597 42.9798 16.8785 43.7898 16.5256 44.6399C16.2048 45.4019 16.0123 46.2199 15.7557 47.0059C15.475 47.864 15.6354 48.6742 16.0123 49.46C16.293 50.0536 16.6379 50.6069 17.0228 51.1282C17.4479 51.7054 18.1136 51.9942 18.699 52.3872C18.7872 52.4434 18.9236 52.4434 19.0358 52.4355C19.1722 52.4275 19.3486 52.4434 19.4048 52.2751C19.4529 52.1307 19.3165 52.0425 19.2283 51.9544C18.282 50.9196 17.7767 49.6687 17.4479 48.3291C17.3837 48.0567 17.3677 47.7519 17.4238 47.479C17.6725 46.4124 18.0333 45.3778 18.5306 44.3994C18.7311 44.0064 19.108 43.7898 19.485 43.5733C21.0809 42.651 22.6127 43.0039 24.1205 43.7898C24.7942 44.1427 25.3475 44.656 25.909 45.1612C26.0453 45.2815 26.1095 45.4901 26.2137 45.6505C27.0398 46.9898 27.3606 48.4252 26.9997 49.9814C26.8312 50.7189 26.35 51.1681 25.6363 51.4569C24.7541 51.81 23.8639 52.0346 22.9175 52.0904C22.4443 52.1147 21.9872 52.0266 21.5301 51.93C21.105 51.8419 20.5275 52.1546 20.4073 52.5639C20.3912 52.6117 20.3912 52.676 20.4153 52.7163C20.7281 53.2696 21.0649 53.7586 21.8027 53.8308C24.0243 54.0315 26.0533 53.5903 27.7696 52.1068C28.9485 51.0959 29.3816 49.7887 29.3896 48.225C29.3976 46.7572 28.9485 45.4981 28.2027 44.3031C27.4728 43.1242 26.35 42.3863 25.131 41.8009C24.2087 41.3517 23.6794 41.2796 22.1155 41.1753Z" fill="#00AEFF"/>
<path d="M117.217 57.488C117.265 58.2499 117.113 59.0198 117.337 59.7738C117.426 60.0785 117.41 60.4714 117.787 60.5516C118.444 60.696 118.885 60.4555 119.094 59.9261C119.414 59.1398 119.422 58.3062 119.399 57.4721C119.359 56.261 119.318 55.0419 119.302 53.8308C119.294 53.2696 118.741 52.8603 118.26 53.1491C118.091 53.2452 117.923 53.1491 117.738 53.3334C117.337 53.7347 117.29 54.1675 117.29 54.6729C117.29 55.6191 117.169 56.5578 117.217 57.488Z" fill="#00AEFF"/>
</g>
</g>
<defs>
<clipPath id="clip0_20_506">
<rect width="125.19" height="128.47" fill="white" transform="translate(0 0.382568)"/>
</clipPath>
<clipPath id="clip1_20_506">
<rect width="125.188" height="128.47" fill="white" transform="translate(0.00109863 0.382568)"/>
</clipPath>
</defs>
</svg>
