<svg width="262" height="200" viewBox="0 0 262 200" fill="none" xmlns="http://www.w3.org/2000/svg">
<path d="M89.0173 180.347C87.1777 180.347 85.4134 179.616 84.1125 178.315C82.8117 177.014 82.0809 175.25 82.0809 173.41V166.474H102.89V173.41C102.89 175.25 102.159 177.014 100.859 178.315C99.5577 179.616 97.7934 180.347 95.9537 180.347H89.0173ZM92.4855 104.046C94.948 104.046 97.3063 104.358 99.5954 104.948C103.653 110.393 106.358 120.382 106.358 131.792C106.358 139.699 105.04 146.948 102.89 156.069C102.89 157.909 102.159 159.673 100.859 160.974C99.5577 162.275 97.7934 163.006 95.9537 163.006H89.0173C87.1777 163.006 85.4134 162.275 84.1125 160.974C82.8117 159.673 82.0809 157.909 82.0809 156.069C79.9306 146.948 78.6127 139.699 78.6127 131.792C78.6127 120.382 81.3179 110.393 85.3757 104.948C87.6647 104.358 90.0231 104.046 92.4855 104.046ZM120.231 128.324C120.231 139.353 113.815 155.792 104.486 160.266C107.78 153.954 109.827 141.607 109.827 131.792C109.827 121.977 107.78 113.098 104.486 106.786C113.815 111.26 120.231 117.295 120.231 128.324ZM64.7399 128.324C64.7399 117.295 71.1561 111.26 80.4855 106.786C77.1907 113.098 75.1445 121.977 75.1445 131.792C75.1445 141.607 77.1907 153.954 80.4855 160.266C71.1561 155.792 64.7399 139.353 64.7399 128.324Z" fill="#39B5BD"/>
<path d="M102.89 166.474H82.0809V175.723C82.0809 178.276 84.1513 180.347 86.7052 180.347H98.2659C100.82 180.347 102.89 178.276 102.89 175.723V166.474Z" fill="#551E00"/>
<path d="M84.9711 105.202L80.3468 106.936C69.8975 129.527 73.418 141.088 80.3468 160.116L87.2833 163.006C80.7613 141.227 72.5251 129.664 84.9711 105.202Z" fill="white"/>
<path d="M99.422 105.202L105.202 106.936C115.652 129.527 112.131 141.088 105.202 160.116L98.8439 162.428C104.923 140.824 111.257 129.905 99.422 105.202Z" fill="white"/>
<path d="M161.079 192.293C156.991 192.293 153.07 190.669 150.179 187.778C147.289 184.887 145.665 180.967 145.665 176.879V161.464H191.908V176.879C191.908 180.967 190.284 184.887 187.393 187.778C184.502 190.669 180.581 192.293 176.493 192.293H161.079ZM168.786 22.736C174.258 22.736 179.499 23.4297 184.586 24.7399C193.603 36.8401 199.615 59.0366 199.615 84.3931C199.615 101.965 196.686 118.073 191.908 138.343C191.908 142.431 190.284 146.352 187.393 149.242C184.502 152.133 180.581 153.757 176.493 153.757H161.079C156.991 153.757 153.07 152.133 150.179 149.242C147.289 146.352 145.665 142.431 145.665 138.343C140.886 118.073 137.958 101.965 137.958 84.3931C137.958 59.0366 143.969 36.8401 152.987 24.7399C158.073 23.4297 163.314 22.736 168.786 22.736ZM230.443 76.6859C230.443 101.195 216.185 137.726 195.453 147.669C202.775 133.642 207.322 106.204 207.322 84.3931C207.322 62.5819 202.775 42.8516 195.453 28.8247C216.185 38.7669 230.443 52.1773 230.443 76.6859ZM107.129 76.6859C107.129 52.1773 121.387 38.7669 142.119 28.8247C134.798 42.8516 130.25 62.5819 130.25 84.3931C130.25 106.204 134.798 133.642 142.119 147.669C121.387 137.726 107.129 101.195 107.129 76.6859Z" fill="#EA654A"/>
<path d="M191.908 161.464H145.665V182.017C145.665 187.692 150.266 192.293 155.941 192.293H181.631C187.307 192.293 191.908 187.692 191.908 182.017V161.464Z" fill="#551E00"/>
<path d="M152.087 25.3051L141.811 29.1586C118.59 79.3598 126.414 105.05 141.811 147.335L157.225 153.757C142.732 105.36 124.43 79.6645 152.087 25.3051Z" fill="white"/>
<path d="M184.2 25.3051L197.046 29.1586C220.266 79.3598 212.443 105.05 197.046 147.335L182.916 152.473C196.426 104.464 210.501 80.1995 184.2 25.3051Z" fill="white"/>
<rect x="145.665" y="164.162" width="2.31214" height="5.78035" fill="#EA654A"/>
<rect x="149.133" y="164.162" width="2.31214" height="5.78035" fill="#EA654A"/>
<rect x="152.601" y="164.162" width="2.31214" height="5.78035" fill="#EA654A"/>
<rect x="156.069" y="164.162" width="2.31214" height="5.78035" fill="#EA654A"/>
<rect x="159.538" y="164.162" width="2.31214" height="5.78035" fill="#EA654A"/>
<rect x="163.006" y="164.162" width="2.31214" height="5.78035" fill="#EA654A"/>
<rect x="166.474" y="164.162" width="2.31214" height="5.78035" fill="#EA654A"/>
<rect x="169.942" y="164.162" width="2.31214" height="5.78035" fill="#EA654A"/>
<rect x="173.41" y="164.162" width="2.31214" height="5.78035" fill="#EA654A"/>
<rect x="176.879" y="164.162" width="2.31214" height="5.78035" fill="#EA654A"/>
<rect x="180.347" y="164.162" width="2.31214" height="5.78035" fill="#EA654A"/>
<rect x="183.815" y="164.162" width="2.31214" height="5.78035" fill="#EA654A"/>
<rect x="187.283" y="164.162" width="2.31214" height="5.78035" fill="#EA654A"/>
<rect x="190.751" y="164.162" width="1.15607" height="5.78035" fill="#EA654A"/>
<path d="M117.919 46.2428C117.919 59.0124 107.567 69.3642 94.7977 69.3642C82.0281 69.3642 71.6763 59.0124 71.6763 46.2428C71.6763 33.4732 82.0281 23.1214 94.7977 23.1214C107.567 23.1214 117.919 33.4732 117.919 46.2428Z" fill="#9DDFE9"/>
<path d="M180.347 23.1214C180.347 35.891 169.995 46.2428 157.225 46.2428C144.456 46.2428 134.104 35.891 134.104 23.1214C134.104 10.3518 144.456 0 157.225 0C169.995 0 180.347 10.3518 180.347 23.1214Z" fill="#9DDFE9"/>
<path d="M197.688 50.8671C197.688 63.6366 187.336 73.9884 174.567 73.9884C161.797 73.9884 151.445 63.6366 151.445 50.8671C151.445 38.0975 161.797 27.7457 174.567 27.7457C187.336 27.7457 197.688 38.0975 197.688 50.8671Z" fill="#9DDFE9"/>
<path d="M166.474 36.9942C166.474 54.8716 151.982 69.3642 134.104 69.3642C116.227 69.3642 101.734 54.8716 101.734 36.9942C101.734 19.1168 116.227 4.62428 134.104 4.62428C151.982 4.62428 166.474 19.1168 166.474 36.9942Z" fill="#9DDFE9"/>
<path d="M30.5457 67.5399C30.5457 75.9749 23.7078 82.8127 15.2729 82.8127C6.83791 82.8127 3.05176e-05 75.9749 3.05176e-05 67.5399C3.05176e-05 59.1049 6.83791 52.2671 15.2729 52.2671C23.7078 52.2671 30.5457 59.1049 30.5457 67.5399Z" fill="#66CAD9"/>
<path d="M71.7824 52.2671C71.7824 60.702 64.9445 67.5399 56.5095 67.5399C48.0746 67.5399 41.2367 60.702 41.2367 52.2671C41.2367 43.8321 48.0746 36.9942 56.5095 36.9942C64.9445 36.9942 71.7824 43.8321 71.7824 52.2671Z" fill="#66CAD9"/>
<path d="M83.237 70.5945C83.237 79.0294 76.3991 85.8673 67.9642 85.8673C59.5292 85.8673 52.6913 79.0294 52.6913 70.5945C52.6913 62.1595 59.5292 55.3216 67.9642 55.3216C76.3991 55.3216 83.237 62.1595 83.237 70.5945Z" fill="#66CAD9"/>
<path d="M62.6187 61.4308C62.6187 73.2397 53.0456 82.8127 41.2367 82.8127C29.4278 82.8127 19.8547 73.2397 19.8547 61.4308C19.8547 49.6218 29.4278 40.0488 41.2367 40.0488C53.0456 40.0488 62.6187 49.6218 62.6187 61.4308Z" fill="#66CAD9"/>
</svg>
