<?xml version="1.0" encoding="utf-8"?>
<!-- Generator: Adobe Illustrator 26.0.1, SVG Export Plug-In . SVG Version: 6.00 Build 0)  -->
<svg version="1.1" id="Layer_1" xmlns="http://www.w3.org/2000/svg" xmlns:xlink="http://www.w3.org/1999/xlink" x="0px" y="0px"
	 viewBox="0 0 640 534" style="enable-background:new 0 0 640 534;" xml:space="preserve">
<style type="text/css">
	.st0{opacity:0.25;}
	.st1{fill:#F2FAFC;}
</style>
<g class="st0">
	<path class="st1" d="M243.4,306.9c-0.7-1.4-1.6-2.6-2-4c-0.2-0.8,0.4-1.9,0.9-2.7c1-1.3,2-2.8,3.4-3.6c2.2-1.3,3.6-3.2,5.1-5.1
		c1.2-1.5,2.8-2.8,4.2-4.2c1.3-1.2,2.4-2.6,3.7-3.8c1.6-1.4,3.4-2.8,5.2-3.8c1.1-0.6,2.1-0.7,2.2-2.5c0-1.1,1.7-2.7,2.9-3.1
		c4.6-1.5,7.1-5.4,10.5-8.2c0.7-0.6,1.6-0.9,2.3-1.3c0.6-0.4,1.4-0.6,1.8-1.1c2.3-3.2,5.8-4.8,9.5-6.2c0.3-0.1,0.7-0.1,1.1-0.2
		c1.1-0.5,2.7-1.5,3.3,0c0.5,1.1,0,2.9-0.5,4.1c-0.8,2.1-2.5,3.8-3.6,5.9c-1.1,2.4-3.7,4.2-5.6,6.1c-0.3,0.3-0.9,0.4-1.1,0.7
		c-1.1,3.6-4.9,4.6-7.4,6.8c-1,0.9-1.7,2.1-2.7,3c-3.4,2.9-6.7,5.9-10.3,8.6c-2.4,1.9-5.3,3.3-7.7,5.1c-2.6,2-4.8,4.4-7.3,6.4
		c-1.2,1-2.9,1.5-4.4,2.1C245.9,306.4,244.7,306.5,243.4,306.9L243.4,306.9z"/>
	<path class="st1" d="M252.7,348.1c-0.7-0.6-1.2-1-1.5-1.1c0.7-1.1,1.5-2.1,1.7-3.2c0.3-1.7,1-2.6,2.4-2.5c0.6-1.5,0.8-3.1,1.6-4.2
		c1.3-1.7,2.9-3,4.4-4.5c2-1.9,2.7-1.6,4.2,0.6c1.3,1.9,1.4,3.6,0.2,5.5c-0.1,0.2-0.2,0.6-0.1,0.8c0.7,2.7,0,4.6-2.3,6.1
		c-0.5,0.3-0.8,1.6-0.5,1.9c1,1.2,0.5,1.9-0.5,2.6c-0.3,0.2-0.4,0.7-0.5,1.1c-0.7,2.4-1.7,4.4-3.8,6.1c-1.6,1.2-2.3,3.2-2.6,5.2
		c-0.2,1.3-0.5,3.2-1.5,3.8c-2,1.3-3.2,3.3-4.8,4.8c-0.7,0.7-1.5,1.5-1.8,2.5c-0.4,1.4-0.9,1.6-2.2,0.8c-0.2,1.5-0.4,2.7-0.7,4.2
		c-0.6,0-1.2-0.1-2.3-0.2c0.7,0.9,1.1,1.4,1.4,1.7c-0.7,1.4-1.4,2.7-2.1,4.1c-0.8,1.6-1.7,3.2-3.3,2.3c-1.1,1.5-2.1,2.7-3.1,4
		c-0.2-0.1-0.4-0.2-0.6-0.4c0.2-1,0.5-1.9,0.8-3c-1.2,0.1-2.2,0.2-3.6,0.3c2.4,1,1.7,2.3,0.6,4.2c-0.2-1.8-0.4-3.2-2.4-3.1
		c-0.4,0-1.2-1.3-1.2-2c0-1.1,0.5-2.3,0.9-3.4c0.8-2.3,1.7-4.7,2.7-7c0.3-0.8,1.1-1.3,1.4-2c1-2.4,1.8-4.9,2.9-7.3
		c0.3-0.8,1.1-1.4,1.7-2.1c0.6-0.6,1.3-1.1,1.9-1.7c1.2-1,2.4-2.2,3.8-3c1.2-0.8,1.6-1.3,0.4-2.4c-0.3-0.3-0.4-1-0.6-1.4
		c0.5-0.1,0.9-0.2,1.4-0.3c1.8,0,2.9-0.5,3.2-2.5c0.3-2.3,1.2-4.5,4.4-5L252.7,348.1z M240.5,374c0.3-0.3,0.5-0.6,0.8-1
		c-0.7-0.5-1.4-1-2.2-1.5c0,0-0.5,0.5-0.5,0.6C239.2,372.7,239.8,373.3,240.5,374z"/>
	<path class="st1" d="M512.4,244.2c3,0.4,5.5,0.5,8,1c1.6,0.3,3.1,0.9,4.5,1.4c1.4,0.5,2.6,1.1,4,1.7c0.9,0.3,1.8,0.5,2.7,0.8
		c0.8,0.3,1.6,0.5,2.2,1c1.4,1.1,1.6,2.3-0.4,3.2c-0.5,0.2-0.9,0.9-1.2,1.3c0.7,0.9,1.4,1.7,2.1,2.6l-0.5,0.4
		c-1.2-0.2-2.3-0.4-3.6-0.7c-0.8,1.9-1.9,2.2-3.6,0.9c-0.4-0.3-1.2-0.1-1.8,0c-0.9,0-2,0.5-2.7,0.1c-3.4-1.7-7.2-1.6-10.8-2.2
		c-1.3-0.2-2.5-0.7-3.8-0.9c-4.4-0.8-9,0.3-13.4-0.8c-1.9-0.5-3.6-0.8-4-2.5c-2.4,0-4.6,0.4-6.6-0.1c-2-0.4-3.9-1.7-5.8-2.6
		c-0.5-0.2-0.9-0.6-1.4-0.6c-2.3-0.5-3.6-1.6-3.4-3.9c0.1-1.1,1.5-2.6,2.6-2.9c5.6-1.5,11.3-1.8,17,0.2c1.7,0.6,3.7,0.2,5.6,0.4
		c0.8,0.1,1.7,0.4,2.4,0.9c1.2,0.7,2.3,1.6,3.6,0.3c0.3-0.3,1.3-0.5,1.6-0.3c1.2,1,1.9,0.5,3.2,0
		C509.9,242.5,511.5,243.8,512.4,244.2z"/>
	<path class="st1" d="M475,37.2c-0.1-0.7,0-1.5-0.3-2.1c-0.8-1.3-0.9-2.1,0.9-2.5c0.5-0.1,0.9-0.7,1.2-1.1c1.9-2.3,3.6-4.8,5.6-7
		c1.1-1.1,3-1.5,4.3-2.5c1.3-1,2.2-2.3,3.3-3.4c0.1-0.2,0.1-0.4,0.3-0.6c1.4-1.6,2.6-3.4,4.2-4.7c1.2-1,3.3-2,4.5-1.7
		c1.6,0.5,2.9,2.3,4.3,3.5c-0.3,0.1-0.6,0.2-0.8,0.3c-0.2,0.8-0.6,1.5-0.7,2.3c-0.2,3-2.3,4.8-4.3,6.8c-0.5-1-0.9-1.6-1.3-2.3
		c-0.3,0-0.5,0-0.8,0c1.8,2.3,0.5,4.2-0.5,5.9c-1,1.7-2.3,3.4-3.5,5.2c-2.4-1.4-3,0-3.2,1.7c-0.3,2.3-2,3.5-3.6,5
		c-1.7,1.7-4.2,2.7-4.9,5.5c-0.5,2.1-1.9,4-4.8,3.8c-0.3,0-1,0.5-1,0.7c0,2.7-2.8,2.7-4.1,4.2c-2.7,3-6.6,3.6-10.5,4
		c-0.5,0-1.1-0.3-1.5-0.7c-1.2-1.2-0.9-4.4,0.3-5.7c1.5-1.7,2.9-3.6,4.3-5.4c2.3-2.8,4.2-5.9,7.3-8c0.4-0.2,0.7-0.5,1-0.8
		C471.9,36.3,473.3,36.1,475,37.2L475,37.2z"/>
	<path class="st1" d="M110.6,58.1c0.4,0.6,0.8,1.1,1.1,1.5c0.2-0.1,0.4-0.1,0.6-0.2c-0.2-0.6-0.5-1.3-0.6-1.9c0-1,0.2-2.1,0.3-3.1
		c0.8,0.2,1.7,0.2,2.3,0.6c1.1,0.7,2.1,1.7,3.2,2.3c0.5,0.3,1.4,0.2,1.7,0.3c0.9,0.7,1.4,1.3,2.1,1.6c2.4,1,5.1,1.5,7.3,2.8
		c2.2,1.3,4,3.4,5.8,5.3c1.1,1.1,2,2.6,3.2,3.7c0.6,0.6,1.8,1.3,2.4,1.1c1.7-0.4,2.4,0.5,3.3,1.5c0.6,0.6,1.1,1.4,1.9,1.7
		c3.3,1.3,5.2,3.8,7.3,6.4c0.5,0.6,1.6,0.9,2,1.5c0.5,0.8,0.7,1.9,1.1,3.3c4.2,0,5.1,4.1,7.2,6.9c0.9,1.1-0.8,3.5-2.6,3.7
		c-0.9,0.1-2.1,0.3-2.8,0c-4.3-2.1-8.4-4.5-11.2-8.4c-0.2-0.4-0.2-1-0.2-1.5c-0.5,0-0.9,0-1.4,0c-0.1,0-0.2-0.2-0.3-0.2
		c-0.1-1-0.2-1.9-0.3-3.1c-0.9,0.9-1.3,1.6-2,2c-0.5,0.3-1.5,0.4-1.9,0.1c-0.7-0.5-1.5-1.4-1.6-2.1c0-2.2-1.1-3.7-3.6-3.8
		c-3.3-0.2-6.1-0.9-7.4-4.3l-0.4,0.5c-0.8-0.6-1.7-1.1-2.5-1.7c-1.7-1.2-3.4-2.4-4.9-3.8c-2.5-2.3-4.9-4.8-7.3-7.1
		c-0.5-0.5-1.2-0.8-1.8-1.1C108.7,61.7,108.7,59.5,110.6,58.1z"/>
	<path class="st1" d="M199.1,22.5c-1.1-1-2.6-1.7-3.2-2.9c-0.6-1.3-0.3-2.9-0.4-4c-1.1,0.2-2.5,0.8-3.8,0.7
		c-0.7-0.1-1.1-1.5-1.9-2.7c-2.1-0.3-8.3-6.9-8.7-10.3c0.9,0.8,1.6,1.3,2.2,1.8c0.2-0.1,0.4-0.2,0.6-0.2c-0.3-0.7-0.6-1.5-1-2.1
		c-1.2-1.4-1.1-1.9,0.7-2.6c2.3-0.8,4.6-0.1,6.8,0.4c0.5,0.1,1,0.1,1.4,0.3c0.8,0.4,1.6,0.8,2.3,1.4c1.1,0.9,2,2.3,3.3,2.7
		c1.9,0.6,3.3,1.3,4.6,2.9c1.5,1.9,3.2,3.8,5.2,5.3c1.4,1.1,1.8,2.1,0.4,3.2c0.5,1.5,4.3,0.3,2.5,3.2c3.6,0.9,5,3.4,6,6.4
		c0.7,2,1.8,3.8,2.7,5.7c1,2.1,2,4.2,2.7,6.4c0.5,1.5-3.3,5.9-4.9,6.1c-0.3,0-0.6,0-0.8-0.2c-1.7-1.1-3.3-2.3-5-3.4
		c-0.1-0.1-0.3-0.1-0.4-0.2c-1-1.7-1.8-3.5-2.9-5.1c-0.6-0.9-1.6-1.5-2.3-2.4c-0.7-0.8-1.1-1.9-1.6-2.8c-0.8-1.5-0.9-3.3-2.9-4.3
		c-0.9-0.5-1.2-2.1-1.8-3.3c0.1,0,0.2,0,0.3-0.1L199.1,22.5z"/>
	<path class="st1" d="M415.7,428.5c0,0-0.5,0.2-1.3,0.6c-1.3-3.5-2.5-6.9-3.8-10.4c-1.1,0.4-1.6-0.1-2-1.4c-0.5-1.4-1.8-2.6-2.5-4
		c-1.3-2.4-2.4-4.8-3.6-7.2c-1.1-2.2-2.2-4.4-3.3-6.5c-1-1.9,0.3-5.7,2.4-6.5c0.3-0.1,0.8-0.3,1-0.2c2.7,1.5,6,1.8,7.6,5.2
		c1.8,3.7,4.4,7.1,6.6,10.6c0.1,0.2,0.3,0.4,0.3,0.6c-0.1,4.4,3.7,7,5,10.7c0.2,0.6-0.4,1.5-0.5,2.3c0,0.6,0.3,1.7,0.3,1.7
		c3.3-0.5,3.5,2.6,4.7,4.2c2.1,2.9,3.7,6.2,5.5,9.4c0.8,1.6,1.5,3.2,2,4.9c0.3,0.9,0.5,2-1,2.4c-0.4,0.1-0.8,0.9-0.8,1.3
		c0.2,1.8-1.2,2.2-2.5,2.4c-1.3,0.2-2.1-0.3-2.8-1.6c-1.1-1.9-2.7-3.6-4.4-5.1c-2.4-2.2-3.7-4.9-4.8-7.9c-0.2-0.4-0.3-0.9-0.5-1.3
		C416.9,431.3,416.3,430,415.7,428.5L415.7,428.5z"/>
	<path class="st1" d="M441.5,189c-0.7-0.1-1.1-0.2-1.6-0.3c0-0.3-0.1-0.6,0-0.7c1-3,3.8-4.9,7-5.2c1.4-0.2,2.8-1.1,4.2-1.7
		c1.3-0.5,2.7-0.9,4-1.4c0.6-0.2,1.1-0.6,1.7-0.8c0.9-0.3,2-1.1,2.6-0.8c1.6,0.9,2.8,0.1,4.2-0.2c3-0.6,5.9-1.1,8.8-1.8
		c2.8-0.7,5.7-1.5,8.6-2.3c-0.2,0.9-0.3,1.5-0.4,2.1c0.5-0.4,1.1-0.7,1.6-1c0.9-0.5,1.8-1.4,2.7-1.5c3.5-0.1,7,0,10.5,0.2
		c1.4,0,3.1,2.1,3.2,3.6c0,0.7,0.3,1.3,0.3,1.5c-1.3,1.4-2.3,3.3-3.4,3.4c-2.3,0.3-3.4,3-6,2.3c-0.6-0.2-1.5,0.3-2.2,0.6
		c-1.3,0.5-2.6,1.2-3.7-0.2c-0.9,0.6-1.8,1.1-2.7,1.5c-0.5,0.3-1.1,0.4-1.7,0.6c0-0.6-0.1-1.2-0.1-1.9c-0.3,0.4-0.6,0.6-0.8,0.9
		c-1.1,1.7-2.6,2.2-4.8,2c-2.7-0.2-5.4-0.2-8.1,0.2c-1.4,0.2-2.5,1.4-3.9,1.9c-1.1,0.4-2.5,0.9-3.6,0.6c-2.3-0.4-4.1,0.6-6,1.5
		c-0.5,0.2-1.6,0.4-1.8,0.1c-1.1-1.2-2.2-0.8-3.3-0.1c-1.1,0.7-2,0.8-3-0.2c-0.2-0.2-0.5-0.5-0.7-0.5
		C441.1,191.5,440.9,190.5,441.5,189L441.5,189z"/>
	<path class="st1" d="M293.2,438.1c-2-7.6-6-14.9-2.3-23.6c-1.2,0.1-1.9,0.1-2.9,0.2c-1.2-8.8-2-17.6-2.3-26.7
		c0.5,0.6,1,1.2,1.8,2.1c0.6-1.1,1.1-1.9,1.5-2.7c-1-1-1.9-1.9-2.9-3c1.6-0.5,2.8-1.4,3.6-1.1c1.5,0.5,3.1,1.4,3.9,2.6
		c1.1,1.6,1.4,3.7,2.3,5.5c0.8,1.5,0.4,2.4-1,3.1c4,2.3,6,15.5,3,20.7c2.3,0.1,2.3,1.5,2.3,3.2c0.1,2.2,0.9,4.4,0.9,6.6
		c0,2.3-0.8,4.5-0.9,6.7c0,1.1,1,2.3,1,3.4c0.1,1.2-0.4,2.5-0.7,3.7c-0.1,0.4-0.6,0.7-0.6,1.1c0.2,2.7-2,2.4-3.3,2
		c-1.3-0.4-2.3-1.7-3.4-2.7c-0.1-0.1,0.3-0.8,0.5-1.3C293.5,438,293.3,438.1,293.2,438.1L293.2,438.1z"/>
	<path class="st1" d="M132.9,149c1.7-0.5,3-0.4,4.1,1.1c0.6,0.7,1.9,1.1,2.9,1.1c2.1,0.1,3.5,0.9,4.8,2.5c0.9,1.3,2.7,1.9,3.7,3.1
		c1.4,1.9,2.6,4,3.6,6.1c0.1,0.2-1.6,1.7-2.4,1.7c-2.3-0.1-4.5-0.6-6.8-1c-4-0.8-7.1-2.7-9-6.3c-0.5-0.9-1.2-1.9-1.9-2.9
		c-0.5,0.2-1.4,1-2.2,1c-0.9,0-1.8-0.6-2.7-1c-2.6-1.5-5.7-2.2-7.7-4.7c-0.7-0.9-1.8-2.1-2.8-2.1c-2.1-0.2-2.9-1.7-4.2-2.8
		c-1.4-1.3-2.4-3.3-4.9-2.9c-0.2,0-0.5-0.3-0.7-0.5c-1.8-1.7-3.5-3.4-5.2-5c-1.3-1.2-2.5-6.3-1.7-7.8c0.4-0.8,0.9-1.6,1.4-2.4
		c1.1-1.6,1.8-1.5,2.9,0.2c0.3,0.4,1.4,0.8,1.9,0.6c1.3-0.4,2-0.2,2.6,1c0.4,0.8,1.3,1.5,2,2c3,2.1,4.6,5.7,8.4,6.9
		c0.5,0.2,1,0.9,1,1.4c0.1,2,1.4,2.6,3.2,3.1C127.5,142.7,131.1,144.7,132.9,149L132.9,149z"/>
	<path class="st1" d="M210.1,274.8c-0.1-1.8-0.3-3.3,2.2-3c0.2,0,0.6-1,1-1.5c0.6-0.6,1.3-1.4,2.1-1.7c1.6-0.6,3.3-0.9,4.9-1.5
		c2.8-1.1,5.6-2.2,8.3-3.4c2.1-1,4.1-2.2,6.6-1.7c0.7,0.1,1.4,0,1.9,0.2c0.7,0.2,1.6,0.6,1.9,1.1c0.3,0.6,0.2,1.7-0.3,2.1
		c-3.5,2.9-6.2,6.6-10.7,8.2c-0.2,0.1-0.5,0.1-0.6,0.2c-2.5,3.2-6.4,4.4-9.8,5.7c-2.7,1-4.2,3.2-6.8,4.2c-4.5,1.7-8.7,4.1-13,6.2
		c-2.9,1.4-5.8,2.9-8.6,4.4c-0.2,0.1-0.1,0.6-0.3,0.7c-0.7,0.4-1.4,0.9-2,0.8c-0.5,0-1.1-0.9-1.1-1.5c0-1.4-0.5-1.9-2-2.2
		c-0.7-0.2-1.7-1.2-1.8-2c-0.1-0.6,0.9-1.4,1.5-2.1c0.2-0.2,0.7-0.3,0.9-0.6c2.1-3.5,5.9-4.6,9.2-6.5c0.6-0.3,1.2-0.6,1.6-1.1
		c1.4-1.9,3.6-2.3,5.7-3c0.6-0.2,1.3-0.4,1.8-0.8c1.7-1.3,3.2-2.2,5-0.1c0.2,0.3,1.8-0.6,2.6-0.8L210.1,274.8z"/>
	<path class="st1" d="M198.4,65.1c-0.7,0.8-1.1,1.4-1.7,2.1c0.7,0,1,0,1.3,0c2.5-0.2,3.4,0.3,3.6,2.8c0.1,1.1,0.4,1.5,1.5,1.5
		c1.4,0,2.1,0.5,2.3,1.9c0.2,1,1.1,1.8,1.8,3c-0.7-0.1-1.2-0.2-1.8-0.2l-0.2,0.5c0.7,0.3,1.5,0.9,2.2,1c2.1,0.1,3.3,0.8,3.2,3.1
		c0,0.6,0.6,1.6,1.1,1.8c2.3,0.8,2.6,2.6,3.2,4.2c1.1,1.2,2.4,2.3,3.2,3.7c1.1,1.9,2.1,4.1,2.9,6.2c0.8,1.9,1.6,3.8,1.8,5.7
		c0.2,1.1-0.7,2.5-1.2,4.2c-1.1-1.1-1.9-2-2.7-2.9c-2.3,1.1-2.7,1-4.3-1.2c-1.1-1.4-2.5-2.5-3.6-3.9c-1.1-1.5-2-3.1-3-4.6
		c-0.3-0.5-0.3-1.3-0.7-1.5c-3-1.4-4.3-4.1-5.9-6.6c-0.1-0.1-0.1-0.3-0.2-0.4c-4.4-2.2-5.2-7.3-8.7-10.2c-2.3-1.9-2.5-5.3-5.6-6.8
		c-1.1-0.5-1.3-2.6-2-3.8c-0.4-0.7-1-1.5-1.8-1.7c-2.3-0.7-2.4-2.3-2.1-4c0.3-1.8,1.4-2.8,3.6-2.6c1.6,0.2,3.3-0.2,3.7,2
		c0,0.3,0.7,0.5,1.1,0.6c2.5,1.1,4.7,2.5,6.3,4.7C196.2,64.3,197.3,64.6,198.4,65.1L198.4,65.1z M195,69.8c-0.2-0.1-0.5-0.2-0.7-0.4
		c-0.1,2-1.4,1.7-2.7,1.3c-0.1,0.2-0.2,0.4-0.2,0.5l2.3,2.6c0.2,0,0.5-0.1,0.7-0.1C194.5,72.4,194.7,71.2,195,69.8L195,69.8z"/>
	<path class="st1" d="M429.9,32.1c-0.2,2,0.5,4.9-0.7,6.7c-1.4,2-1.9,3.7-1.8,6c0,0.6-1.4,1.5-2.3,1.7c-2.3,0.6-2.8,1.1-1.4,2.9
		c1.5,1.9-0.7,2.8-1.1,4.1c-0.7,2-1.4,3.9-2.3,5.8c-1,1.9-2.2,3.8-3.3,5.7c-0.7,1.1-1.1,2.3-1.7,3.5c-0.1,0.2,0,0.5-0.1,0.6
		c-2.7,2.4-2.3,6.2-4.4,8.9c-0.4,0.5-0.8,1-1.3,1.4c-1.6,1.5-3.6,2.7-4.4,4.9c-0.2,0.5-1.3,0.6-1.7,0.8c-0.5,0.9-0.9,1.9-1.6,2.7
		c-1.6,1.5-2.9,0.1-3.8-0.9c-0.5-0.5-0.5-1.8-0.2-2.6c1.1-2.8,2.3-5.5,3.5-8.2c0.2-0.5,0.9-0.8,1.4-1.3c0.5-0.6,1-1.2,1.5-1.8
		c-0.2-0.2-0.3-0.3-0.5-0.5c-0.7,0.2-1.3,0.4-2,0.6c0.2-1.6,1-2.5,2.7-3c1.8-0.5,1.8-0.8,0.6-2.5c-0.2-0.4,0-1.2,0.2-1.7
		c0.4-1,1.1-1.9,1.4-2.9c0.5-1.2,0.5-2.5,1.1-3.6c0.7-1.3,1.7-2.5,2.8-3.6c1-1,2.3-1.6,1.8-3.4c-0.2-0.8,0.7-1.9,1.1-2.9
		c1.3-2.9,2.5-5.8,3.9-8.8c0.5-1,0.4-2.7,2.4-1.6c0.2,0.1,0.9-0.2,1.1-0.4c0.2-0.4,0.2-1,0-1.3c-0.9-2.5-0.4-5.2,1.8-6.5
		c1-0.6,2.7-0.3,4.1-0.2C427.7,30.9,428.6,31.5,429.9,32.1L429.9,32.1z M423.7,44c0.3,0,0.6,0,0.9,0l-0.6-2.8
		c-0.3,0-0.6,0.1-0.9,0.2C423.3,42.2,423.5,43.1,423.7,44L423.7,44z"/>
	<path class="st1" d="M332.3,249.1c-2.4,0-3.6-3-2.7-4.6c1.5-2.7,3.2-5.1,4.9-7.7c0.9-1.4,1.8-2.9,2.7-4.3c0.4-0.5,0.8-1,1.3-1.4
		c1.4-1.2,3-2.2,4.3-3.5c0.5-0.5,0.5-1.6,1-2.2c1-1.1,2.3-2.1,3.4-3.2c1.1-1.1,2-2.3,3-3.5c1-1.1,1.4-2.5,3.2-3.2
		c1.6-0.7,2.4-2.7,3.7-4c1.2-1.2,2.7-2.1,4.1-3.2c1.6-1.2,3-2.5,4.6-3.7c1.6-1.2,3-0.3,4.1,0.7c1.1,1,2.7,2,1.2,3.8
		c-0.1,0.2-0.3,0.5-0.2,0.6c1.5,1.3,0.5,2.1-0.5,3c-0.9,0.8-1.9,1.6-2.7,2.5c-0.8,0.9-1.5,2-2.2,3c-0.5,0.6-0.7,1.5-1.3,1.9
		c-3,2.1-4.8,5.3-7.5,7.8c-2.5,2.3-5.2,4.4-7.6,6.8c-1.7,1.7-3.1,3.6-4.5,5.4c-3.1,4-7.2,6.7-11.8,8.9c-0.2,0.1-0.6,0.1-0.7,0.2
		L332.3,249.1z M346.2,228.1c0.3,0.2,0.7,0.4,1,0.6c0.7-0.9,1.3-1.8,1.9-2.7c-0.5-0.2-1.4-0.7-1.4-0.7
		C347.2,226.2,346.7,227.1,346.2,228.1L346.2,228.1z"/>
	<path class="st1" d="M416.7,501.3c-1,0.9-1.5,1.7-2.2,2c-2.3,0.8-4.1,0.2-4.9-1.5c-0.5-1.1-0.5-2.3-0.8-3.5
		c-0.2-0.6-0.4-1.3-0.8-1.7c-0.7-0.9-2.3-1.6-2.3-2.5c-0.1-1.5-1.2-2.2-1.9-3.2c-1.1-1.8-2.3-3.6-3.4-5.3c-0.4-0.6-0.6-1.4-0.9-2.3
		c0.6-0.6,1.2-1.3,2.3-2.5c-2.8,0.8-3.9,0-4.6-2.3c-0.8-2.9-2.3-5.6-3.3-8.4c-0.5-1.2-0.7-2.3-2.1-3.1c-1.8-1-2.3-7.2-0.9-8.6
		c0.2-0.2,0.7-0.5,0.9-0.5c2.5,0.4,5.1,0.4,7.4,1.3c1.2,0.4,2,2,2.9,3.2c0.8,1.2,1.3,2.5,2,3.8c0.2,0.4,0.7,1,0.6,1.3
		c-0.9,2.3,1.2,3,2.3,4.3c0.7,0.9,1.3,1.9,1.8,2.9c0.3,0.6,0.5,1.3,0.6,1.9c0.2,1.3,0.3,2.5,0.4,3.8c1-0.2,3.2,1.1,3.6,2.8
		c0.5,1.9,0.7,3.9,1.4,5.7c0.4,1.1,1.5,2,2.3,3c0.5,0.7,1,1.3,1.6,2.2c-0.8,0.3-1.4,0.5-2.3,0.8c1,0.5,1.8,0.9,2.3,1.2
		c-0.2,0.9-0.5,1.7-0.3,2.3C419.2,501.7,419.1,501.8,416.7,501.3L416.7,501.3z"/>
	<path class="st1" d="M80.8,180c-1-0.1-2-0.1-3-0.2c-2.9-0.4-5.7-0.9-8.6-1.4c-1.9-0.4-3.9-0.8-5.8-1.1c-0.2,0-0.5,0.3-0.7,0.4
		c-1.6,0.5-2.8,0.5-4.2-0.8c-0.8-0.8-2.5-1.3-3.7-1.1c-2.7,0.4-5.2-0.1-7.9-0.8c-2.3-0.6-4.5-2.5-7.3-1.1c-0.4,0.2-1.5-1.1-2.4-1.9
		c-0.5,0.2-1.3,0.5-2,0.6c-0.5,0-1-0.3-1.5-0.6c-0.1,0,0.1-0.8,0.3-0.9c0.5-0.2,1.1-0.2,1.7-0.2c0.2,0,0.5,0.1,1,0.3
		c0-1-0.3-1.9-0.1-2.7c0.2-0.6,1.1-1.2,1.6-1.2c0.9,0,2,0.4,2.7,0.9c1.5,1.1,1.8,0.2,2-0.7c1.1-0.1,2.2-0.2,3.2-0.2
		c2.5-0.1,5-0.1,7.5-0.1c0.5,0,1.1,0.4,1.5,0.2c1.8-0.8,3.1-0.4,4.2,1.1c0.2,0.3,1.1,0.5,1.5,0.3c3.9-1.6,7.5-0.4,10.9,1.1
		c0.9,0.4,1.4,0.7,2.5,0.5c1.7-0.2,3.6,0.2,5.3,0.6c1.9,0.5,3.6,1.6,5.7,0.8c0.3-0.1,1,0.2,1.1,0.4c0.7,1.6,2.2,1.1,3.4,1.5
		c2.7,0.8,5.7,1.6,7.6,3.4c1.1,1,2.3,2.7,3.2,4.2c0.7,1.3-1.6,3.1-3.5,2.8c-1.4-0.2-2.7-0.8-4.1-1.3c-0.4-0.1-0.8-0.4-1.2-0.5
		c-2.8-0.5-5.6-0.9-8.4-1.5c-0.9-0.2-1.6-0.9-2.4-1.3C80.9,179.8,80.8,179.9,80.8,180L80.8,180z"/>
	<path class="st1" d="M247.4,209.7c3-0.4,5.9,0.8,8.6,2.9c2.4,1.9,5.2,3.5,7.1,5.7c2.1,2.5,5.8,2.2,7.7,4.7c1.2,1.6,2.7,3,4.1,4.5
		c1,1.1,2,2.3,2.9,3.5c0.9,1.3,1.4,3-0.2,3.7c-0.9,0.4-2.9-0.3-3.8-1.1c-1.6-1.5-2.8-3.4-4.1-5.1c-4.1,0.7-1,2.6-0.7,4.2
		c-0.6,0.1-1.1,0.3-1.3,0.2c-3.8-3-8.9-3.7-12.4-7.4c-1.4-1.5-3.9-2-5.9-3c-0.5-0.3-0.9-0.8-1.3-1.3c-0.7-1.2-1.3-2.1-3.2-1.6
		c-2.3,0.5-3.3-1.7-4.8-2.9c-0.8-0.6-1.7-1.1-2.5-1.7c-0.7-0.4-1.4-0.8-2-1.2c-0.2-0.2-0.4-0.6-0.6-0.6c-3.4-0.4-4.4-3.4-6.1-5.5
		c-0.7-1-0.9-2.3-1.3-3.5c1.2-0.3,2.5-1.1,3.6-0.9c1.9,0.4,3.7,1.3,5.6,2.1c0.3,0.1,0.6,0.4,0.9,0.5c2.3,0.5,4.6,0.8,6.8,1.4
		C245.5,207.6,246.2,208.6,247.4,209.7z"/>
	<path class="st1" d="M89.8,230.3c-1.2-0.9-2.3-1.7-2.9-2.1c1.2-1.4,2.5-2.9,3.8-4.4l-0.4-0.5c1.2,0.2,2.4,0.3,4.1,0.6
		c-0.9-0.6-1.6-1.1-2.3-1.5c1.8-2.1,3.5-2.1,5.9-0.8c0.9,0.5,2.4,0.2,3.6,0.2c1.6-0.1,3.2-0.5,4.8-0.5c1.5,0,3,0.4,4.5,0.6
		c2.4,0.4,4.7,0.8,7.1,1.1c2,0.3,4,0.4,6,0.7c4.4,0.6,8.8,1.5,13.2,1.9c2.4,0.2,3,2.2,4.5,3.4c0.1,0.1-0.3,1.1-0.7,1.5
		c-3.1,2.4-6.7,3.5-10.6,4.1c-3.9,0.6-7.7,0.6-11.5,0.1c-1.1-0.2-2.1-1-2.7-1.3c-2.8,0.1-5.2,0.2-7.5,0.2c-2.7-0.1-5.4-0.3-8-0.8
		c-2.7-0.6-5.4-1.6-8.2-2.2C91.7,230,90.6,230.3,89.8,230.3L89.8,230.3z M110.3,223.1c0,0-0.4,0.2-0.6,0.4c0.2,0.5,0.2,1.4,0.5,1.5
		c1.3,0.4,2.6,0.5,4.2,0.8C114.1,222.9,110.7,225.3,110.3,223.1L110.3,223.1z"/>
	<path class="st1" d="M359.8,402.7c1.8-0.5,4,1.7,3.1,3.2c-0.6,1-1.4,1.9-2,2.7c-1.5-0.2-3-0.3-4.5-0.8c-0.6-0.2-1-1.1-1.3-1.8
		c-0.7-2.2-1.3-4.5-2-6.7c-0.9-2.9-2-5.8-3-8.8c-0.1-0.4-0.5-1-0.3-1.2c1.3-2.1-0.7-3.3-1.1-4.9c-0.7-2.4-1.1-4.9-1.2-7.4
		c0-1,0.9-2.1,1.6-2.9c1-1,0.5-1.5-0.4-1.9c-2.5-1-3.5-3-3-5.6c0.1-0.4-0.3-0.8-0.4-1.3c-0.5-2.2-1.7-4.4,0.6-6.3
		c-1.9-2.3,0.2-4.9,4.7-5.8c-0.1,0.6-0.2,1.1-0.2,1.4c0.8,0.5,2.2,0.9,2.2,1.3c0,0.8-0.8,1.5-1.4,2.4c3,0.8,3.6,3,3.9,5.8
		c0.4,2.7,1.6,5.3,2.3,8c0.2,0.7,1.2,1.7-0.6,1.9c0,0.4-0.1,1,0.2,1.2c0.9,0.7,1.9,1.3,2.6,1.7c-0.1,2.9-0.9,5.5,0.8,7.8
		c1.3,1.8,1.3,3.7,1,5.7c-0.3,2.1-0.6,4,0.7,6c0.5,0.8,0.5,1.9,0.7,2.9c0.2,1-0.1,1.6-1.3,1.7c-0.7,0.1-1.3,0.7-1.9,1
		C359.6,402.3,359.7,402.5,359.8,402.7L359.8,402.7z M350.1,363.9c1.6-0.8,2.6-1.2,3.5-1.6l0.2-0.7c-0.9-0.3-1.8-0.6-2.7-0.9
		C350.8,361.6,350.5,362.5,350.1,363.9z"/>
	<path class="st1" d="M463.5,102.6c0.6-1.4-0.1-3.7,3-2.9c-1.3-1.5-0.2-2.2,0.7-3.2c2.3-2.4,4.3-5,6.5-7.5c0.1-0.1,0.2-0.2,0.3-0.3
		c2.7-0.8,3.5-3.6,5.6-4.9c0.9-0.6,1.8-1,2.8-1.3c2.5-3.3,5.7-6,9.8-7.3c1.4-0.4,3.2,0.5,4.8,1c0.3,0.1,0.7,0.9,0.6,1
		c-1.1,1.6,0,3.9-2,5.3c-1.6,1.1-2.7,2.8-4.1,4.1c-0.6,0.6-1.5,0.8-1.8,1c-0.8,1.1-1.4,1.9-2,2.7c-2.1,2.3-4.1,4.6-6.2,6.7
		c-1.8,1.7-3.9,3.3-5.8,4.9c-0.2,0.2-0.5,0.3-0.7,0.5c-1.5,1.9-2.8,3.9-4.5,5.6c-1.6,1.6-3.5,2.9-5.2,4.4c-0.9,0.8-1.8,1.8-2.7,2.7
		c-1.4,1.7-3.3,1.4-5,1c-0.9-0.2-2.3-1.2-2.4-2c-0.2-1.5,0-3.2,1.8-4.2c0.7-0.4,1.4-1.4,1.6-2.3C459.4,105,460.5,102.9,463.5,102.6
		L463.5,102.6z"/>
	<path class="st1" d="M590.2,286.2c-4.8,1.1-9.7-0.4-15.2,0.3c-1.2,1-7.5-0.5-8.4-2.7c-4.4,2.7-8.7,1.6-13-0.4
		c-0.7-0.3-1.2-0.9-1.8-1.1c-1.6-0.6-3-1.7-2.3-3.2c0.5-1.1,2-2.1,3.2-2.5c1.5-0.5,3.3-0.3,4.8-0.4c0.2,0.8,0.4,1.4,0.6,2
		c0.4-0.4,0.8-0.7,1.1-1.1c1.3-1.8,3.9-1.9,5.4-0.1c0.4,0.5,0.8,0.9,1.3,1.4c1.1-2.8,2.3-3.6,4.7-3c1.8,0.4,4.2-1.7,5.3,1.5
		c1.6-2,3.3-2.3,5.5-1.3c1.5,0.7,3.4,1,5.2,0.1c0.9-0.4,2.3-0.3,3.4-0.1c2.7,0.6,5.7,0,8.2,2c1,0.8,3,0.5,4.5,0.9
		c1.2,0.4,2.4,1,3.9,1.7c-0.9,1-1.4,1.6-2,2.3c0.2,0.3,0.5,0.7,0.8,1.1c-1.7,0.5-3.2,1-4.8,1.5c0,0.2,0.1,0.4,0.1,0.6
		c0.7,0.1,1.4,0.2,2.1,0.3c0,0.2,0.1,0.3,0.1,0.5c-0.7,0.1-1.5,0.6-1.9,0.4c-2.5-1.4-4.8-0.4-7.3-0.1
		C592.5,286.9,591.3,286.4,590.2,286.2L590.2,286.2z"/>
	<path class="st1" d="M54.3,69c-0.7-1.1-2.1-2.3-2-3.3c0.1-1.6,1.7-2.5,3.6-2.4c0.2,0,0.5,0.1,0.7,0c1.2-0.5,2.9-1.7,3.5-1.4
		c2.3,1.3,4.2,3.2,6.2,4.9c0.4,0.3,0.5,1,0.9,1.1c4.2,1.6,6.6,5.2,10,7.8c2.1,1.6,4.8,2.6,7,4.1c2.2,1.5,5,2.3,5.9,5.2
		c0.1,0.2,0.4,0.4,0.7,0.5c2.8,1.6,5.5,3.4,7.4,6c0.5,0.7,0.9,1.7,0.7,2.5c-0.2,0.6-1.2,1.1-1.9,1.4c-3.4,1.3-6.2-0.1-9.1-1.8
		c-1.8-1.1-4.1-1.6-5.9-2.7c-3-1.9-5.7-4.2-8.6-6.1c-1.8-1.2-3.7-2.1-5.6-3.1c-0.4-0.2-0.9-0.4-1-0.8c-0.8-2.7-3.7-3-5.4-4.7
		c-2.2-2.1-4.5-4.2-6.6-6.3c-0.2-0.2,0.1-0.8,0.2-1.3L54.3,69L54.3,69z"/>
	<path class="st1" d="M231,468.9c0.1,0.2,0.3,0.4,0.4,0.7c0.2,0.6,0.8,1.6,0.6,1.8c-0.6,0.5-1.4,0.9-2.2,1c-1.1,0.2-2.2,0-3.6,0
		c-0.6-1.5-0.3-3.2,0.3-5.1c0.7-2.2,1-4.5,1.6-6.8c0.7-2.7,1-2.8,3.5-1.5c0.1-0.1,0.3-0.2,0.2-0.3c-2.2-3.6,0.8-6.4,1.9-9.4
		c1-2.7,3.2-4.6,6.1-5.5c0.3-0.1,0.7-0.8,0.6-1c-1.9-2.3,0.3-4.2,0.8-6.1c0.7-2.8,1.8-5.5,2.8-8.2c0.2-0.5,0.5-1,0.8-1.4
		c0.6-0.7,1.2-1.4,2-2.3c0.7,0.2,1.8,0.2,1-1.6c-0.9-2-0.2-3.6,1.6-4.8c0.5-0.3,0.9-0.8,1.1-1.3c1.8-3,2.5-3.1,5.3-0.4
		c-0.3,0.5-0.7,1-1.1,1.7c1.9,1.6,1.1,3.6,0.6,5.5c-0.4,1.8-0.4,4.2-4.1,3.6c3.3,2.9,0.5,5.3,0.2,7.8c-0.2,1.3-0.5,2.9-1.4,3.9
		c-3.4,4.1-4.6,9.1-7.1,13.7c-0.1,0.2-0.2,0.4-0.3,0.6c-3.4,4-5.5,8.6-7.5,13.3c-0.7,1.8-1.6,3.8-4.3,2.2L231,468.9z"/>
	<path class="st1" d="M565.5,75.2c-0.4,3-3,3.8-5,5.3c-2.5,1.9-5.9,2.4-8.1,4.2c-3.7,3.1-8.7,3.2-12.5,5.9c-1.6,1.2-3.5,2.4-5.5,2.6
		c-2.9,0.4-1.6-3.2-3.1-4.1c-0.5,1.5-0.8,3.2-1.7,4.5c-1.4,2.3-2.4,2.2-3.9-0.2c-0.6,0.4-1.4,0.7-1.8,1.2c-0.9,1.2-1.9,0.6-2.7,0
		c-1.4-1.1-1.4-4,0-5c2.9-1.9,5.8-3.8,8.9-5.4c3.8-2,7.7-3.8,11.6-5.6c0.4-0.2,0.7-0.4,1.1-0.6c3.3-1.3,6.7-2.3,9.9-3.8
		c2.5-1.1,4.7-2.9,7-4.3c2.5-1.5,5-2.9,7.5-4.4c0.9-0.5,3.9,1,4.6,2.3c1.7,3.2,1.4,4.3-1.9,6.4C568.5,75.3,566.9,75.6,565.5,75.2
		L565.5,75.2z"/>
	<path class="st1" d="M375.8,314.3c3.3,0.5,6.5,6.9,5,9.5c2.3,0.9,4,4.6,3.4,7.5c2.1,1.5,3.5,3.4,4.1,6c0.3,1.3,1.4,2.5,1.8,3.8
		c1.3,3.4,2.6,6.9,3.6,10.4c0.9,3.3,1.6,6.7,2.1,10.1c0.2,1.3-0.5,2.7-0.8,4c-1.7-0.9-3.1-1.7-4.5-2.3c-2.6-1.1-2.4-3.8-3.5-5.7
		c-1-1.6-1.7-3.4-2.5-5.1c-0.5-1.1-1.2-2.2-1.5-3.4c-0.2-1.1-0.2-2.3-1.4-3.1c-0.6-0.4-0.5-1.7-0.9-2.5c-0.7-1.3-2-2.4-2.3-3.8
		c-0.5-2.7-2.2-4.8-3-7.4c-0.6-1.8-1.8-3.5-2.5-5.3c-1.4-3.2-2.6-6.4-3.8-9.6c-0.3-0.8-0.4-1.7-0.5-2.5c-0.5-2.5,1.4-4.2,3.9-3.4
		C374.2,311.9,376.3,311.5,375.8,314.3L375.8,314.3z"/>
	<path class="st1" d="M414.3,233.5c-2.7,1.3-4.5,2.3-6.5,3.2c-0.4-1.1-0.7-1.8-1.2-3.1c-0.4,1-0.7,1.3-0.6,1.6
		c0.7,2.5-0.4,3.6-2.9,4c-0.6,0.1-1.3,0.3-1.6,0.7c-1.6,2.3-4.2,3-6.4,4.5c-1.4,0.9-3.2,1.2-4.9,1.7c-0.4,0.1-1-0.1-1.3,0.1
		c-1.9,1.4-2.8,0.7-2.9-0.9c-1.2-0.2-2.5-0.1-3-0.7c-0.5-0.5-0.3-1.7,0-2.6c0.2-0.8,0.7-1.6,1.4-2.1c2.3-1.7,4.2-3.7,7.3-4.3
		c1.7-0.3,3.1-2.1,4.8-2.9c3.4-1.8,7-3.5,10.4-5.3c1.2-0.6,2.3-1.5,3.6-2.4c0.1,0.6,0.2,1.2,0.3,1.8c0.2,0,0.5,0.1,0.6,0
		c0.3-0.2,0.7-0.4,0.8-0.6c1.7-2.6,3.7-4.4,7.3-3.9c0.6,0.1,1.2-1.1,2-1.4c1.4-0.7,3-1.2,4.4-1.8c0.3-0.1,0.7-0.2,0.9-0.4
		c0.7-1.1,2.2-1.3,3.1-0.4c0.5,0.5,1.4,1.2,1.7,1.1c0.9-0.4,1.5-1.2,2.5-2.1c0.6,0.4,2.9-1.8,3,1.4c0.5-0.4,0.8-0.8,1.2-0.9
		c0.4-0.1,1.1-0.1,1.2,0.1c0.5,1.3,0.9,2.6,1,4c0,0.5-1.1,1.1-1.9,1.5c-3,1.2-6.1,2.4-9.1,3.4c-0.7,0.2-1.6-0.3-2.4-0.3
		c-0.6,0-1.6,0-1.6,0.2c-0.9,3.2-4,4-6.4,5.1c-1.2,0.6-3.2-0.3-4.8-0.5c-0.7-0.1-1.5-0.2-2.2-0.4c0.3,0.8,0.6,1.5,1,2.2
		C413.1,233.3,413.6,233.3,414.3,233.5L414.3,233.5z"/>
	<path class="st1" d="M194.8,157.9c-0.8-0.7-1.6-1.4-2.5-2.1c-0.5-0.4-0.8-1-1.2-1.1c-3.2-0.7-4.9-3.1-6-5.6
		c-0.8-1.9-2.2-2.9-3.6-3.6c-2.7-1.3-3.2-4-4.8-5.9c-0.8-1-1.3-2.2-2.4-3.1c0.2-0.8,0.5-1.5,0.7-2.2c0.1-0.7,0-1.5,0.2-2.2
		c0.1-0.6,0.3-1.3,0.7-1.8c0.3-0.3,1.2-0.6,1.5-0.4c0.5,0.4,0.8,1.1,1.1,1.7c0.2,0.5,0.5,1,0.7,1.5c0.7-0.6,1.2-1.1,1.7-1.5
		c0.6,0.8,1.2,1.5,1.9,2.3c0.3,0.4,0.7,0.8,1,1.1c0.9,0.8,1.8,1.7,2.8,2.2c4.5,2.5,7.7,6.3,10.8,10.2c0.2,0.3,0.6,0.7,1,0.8
		c3.7,0.9,4.8,4.5,7.1,6.7c2.8,2.7,5.2,5.7,8,8.4c0.8,0.8,2.7,4.9,2.5,6.1c-0.3,1.6-1.5,1.9-3,1c-0.3-0.2-0.8-0.5-1.1-0.4
		c-3.3,0.9-4.9-1.7-7-3.2c-0.9-0.7-1.7-1.7-2.7-2.2c-1.4-0.7-2.7-1.2-3.1-2.9c0-0.3-0.7-0.5-1-0.8c-1.1-0.9-2.1-1.8-3.2-2.7
		C194.7,158.1,194.8,158,194.8,157.9L194.8,157.9z"/>
	<path class="st1" d="M601.2,180.7c-1.2,0.7-1.9,1.3-2.6,1.5c-1.6,0.4-3.2,0.6-4.8,0.8c-2.2,0.3-3.8-1-5.1-2.5
		c-0.1-0.1-0.2-0.3-0.2-0.4c0.4-1.3,0.5-2.9,1.4-3.9c0.6-0.8,2.2-1.1,3.4-1c2.2,0.2,4,0.1,4.9-2.2c0.1-0.2,0.4-0.5,0.6-0.5
		c2.5,0.1,4.5-1.4,6.8-2c1.4-0.4,2.9-0.2,4.3-0.4c1.9-0.3,3.9-0.6,5.8-1c1.4-0.2,2.7-0.5,4.1-0.8c0.7-0.1,1.5,0,1.9-0.3
		c2.4-2.1,5-1.1,7.5-0.7c0.3,0,0.8,0,1.1-0.1c3.1-1.6,3.2-1.6,4.8,1.5c0.3-1.2,0.6-2.1,0.9-3.2c1.4,1.4,2.8,2.5,3.8,3.9
		c0.4,0.6,0.4,1.7,0,2.4c-0.2,0.5-1.3,0.8-2,0.9c-0.7,0.1-1.4-0.3-2.2-0.3c-0.5,0-1.2,0.3-1.4,0.6c-1.4,2.8-2.5,3.5-5.6,3.4
		c-0.9,1.9-3,3-5.2,2.8c-0.9-0.1-2,0.3-2.9,0.4c-2.4,0.2-4.9,0.4-7.3,0.6c-0.3,0-0.7-0.1-1,0c-2,0.6-4.1,1.4-6.1,2
		c-1.5,0.4-3,0.8-4-1.1c-0.2-0.4-0.9-0.4-0.9-0.5L601.2,180.7z"/>
	<path class="st1" d="M362.8,79.7c0.2-0.7,0.3-1.5,0.5-2.7c1,1,1.6,1.7,2.3,2.5c-0.3-1.9,0.8-2.8,2.5-2.7c0.8,0,2,0.6,2.2,1.2
		c1,3.4,2,6.6-0.6,10c-1.2,1.6-0.9,4.2-1.4,6.4c-0.2,0.8-0.4,1.8-0.9,2.5c-0.9,1.2-2,2.2-3,3.3c-0.2,0.2-0.4,0.5-0.3,0.7
		c1.1,4.8-1.5,8.8-2.7,13c-0.2,0.8-1.3,1.3-2.1,1.8c-1,0.5-1.6,0.8-1.1,2.2c0.6,1.5,0,3.2-1.7,4.2c-1.1,0.7-2,1.7-3.1,2.6
		c-0.3,0.2-0.8,0.4-1.2,0.4c-1-0.1-3-3.2-3.2-4.2c-1-4.2,1.6-7.6,2.3-11.4c0.8-3.9,2.7-7.6,4.1-11.4c0.2-0.6,0.3-1.2,0.5-1.8
		c0.9-2.9,2-5.8,2.8-8.8c0.3-1.1,0.5-2.3,0.5-3.4C359.5,82.8,361.3,80.2,362.8,79.7L362.8,79.7z"/>
	<path class="st1" d="M508.3,209.5c0,0.2-0.2,0.9-0.5,1.8c-0.6-0.5-0.9-0.8-1.3-1.2c-0.1,0.1-0.2,0.2-0.2,0.4c0.1,1.6-0.3,2.8-2,3.5
		c-1.8,0.8-3.4,2-5.1,2.8c-1.8,0.8-4.5,0.1-5.2-1c-0.9-1.4-0.6-4,1.1-5.2c2.5-1.8,5.1-3.2,7.7-4.8c1.9-1.2,3.8-2.4,5.7-3.6
		c2.5-1.5,5-3.2,7.6-4.5c1-0.5,2.4-0.2,3.7-0.2c-0.2-0.3-0.4-0.7-0.6-1.1c2-1.9,4.3-2.9,7.1-3c0.6,0,1.1-1,1.7-1.4
		c1.2-0.9,2.2-2.6,3.6-1.2c2.9-1.5,5.5-3,8.3-4.3c2.9-1.3,5.9-2.5,8.9-3.6c1.5-0.6,2.3-0.4,2.5,1.8c0.2,2-0.5,3.6-0.7,5.4
		c0,0.4-0.6,0.8-1,1c-3.2,1.2-6.5,2.3-9.8,3.4c-0.1,0-0.2,0-0.2,0.1c-1.9,2.1-4.9,1.4-7.1,2.5c-2.8,1.4-5.2,3.4-7.9,5
		c-2.2,1.3-4.4,2.6-6.7,3.7c-2.3,1.2-4.6,2.3-7,3.3C510.3,209.3,509.4,209.4,508.3,209.5L508.3,209.5z"/>
	<path class="st1" d="M490.4,434.8c-0.2,1.3-0.3,2.5-0.5,4.4c-1.1-1-1.8-1.3-2.2-1.9c-1-1.9-2.9-2.4-4.8-2.9
		c-0.5-0.1-1.2-0.4-1.2-0.7c-0.1-2.8-2.9-3.6-4.3-5.2c-2.7-3-5.8-5.5-8.3-8.6c-1-1.3-1.9-2.6-3.4-3.4c-0.1-0.1-0.4-0.2-0.3-0.2
		c0.1-2.5-2.5-3-3.6-4.6c-1.7-2.5-2.1-5.1-1.5-7.9c0.3-1.4,1.2-2.2,2.6-1.9c1.4,0.4,3.8-0.3,3.1,2.5c5.1-1.2,15.5,8,14.2,12.2
		c1.4,0.8,2.9,1.4,4,2.3c2.1,1.7-1.3,2.4-0.9,4.2c3.6-1.4,5.3,0.4,6.8,3.3c0.9,1.6,2.8,2.8,4.5,3.9c1.4,1,1.4,1.9,0.5,3
		C493.4,435.4,492.2,435.8,490.4,434.8z"/>
	<path class="st1" d="M348.8,183.6c0.3,0.5,0.6,1.1,0.9,1.6c0.9,1.2,1.4,2.3-0.7,2.7c-0.4,0.1-0.7,0.7-1.1,1
		c-0.5,0.5-1.1,0.9-1.6,1.4c-0.5-1-2.1-1.6-0.9-3c0.2-0.2,0.3-0.5,0.6-0.8c-3-2.3-1.1-4.8-0.2-7.2c1.5-3.8,3.1-7.5,4.7-11.2
		c0.5-1.1,1-2.2,1.6-3.3c1.3-2.6,2.6-5.2,4.1-7.7c0.6-1,1.9-1.7,2.2-2.8c1.1-3.7,4.3-5.8,6.5-8.7c1.2-1.6,3-2.1,5-0.7
		c0.7,0.5,1.6,0.5,3,0.9c-1.8,1.9-3.5,3.6-5.2,5.4c0.1,0.2,0.2,0.3,0.3,0.5c0.4-0.2,0.8-0.4,1.3-0.6c0.7-0.2,1.4-0.3,2.1-0.5
		c-0.1,0.7-0.1,1.5-0.4,2c-0.5,0.8-1.3,1.4-1.6,2c-0.4,1.5-0.4,3.1-1.1,4.3c-2.3,3.5-4.5,6.9-5.7,10.9c-0.7,2.1-2.3,4.3-4,5.8
		c-1.7,1.5-0.9,3.7-2.1,5.1c-0.7,0.9-1.6,1.7-2.6,2.3c-0.7,0.5-1.7,1-2.5,1C350.5,184.2,349.7,183.8,348.8,183.6L348.8,183.6z"/>
	<path class="st1" d="M272.9,475.1c-0.3,0.1-0.7,0.3-1,0.5c0.2,3.4,1.2,7-1.8,10.1c1.6,1.7,0.7,3.9,0,6.1c-0.7,2.5-1.5,4.9-2.5,7.3
		c-1.1,2.9-2.2,5.8-3.8,8.4c-2.3,3.6-4.8,7.1-7.7,10.3c-1.7,1.9-4.3,2.3-6.9,0.5c-0.2-2-0.3-4.1,1.3-6c0.8-1,1.1-2.5,1.8-3.6
		c1.2-1.9,2.6-3.8,3.9-5.7c0.4-0.5,0.7-1.1,0.9-1.7c0.4-1.1,0.5-2.3,0.9-3.5c0.5-1.8,1.7-3.2,2.5-4.7c1.1-2,0.9-4.6,1.2-7
		c0.4-3,0.8-6,1.1-9c0.1-0.6,0.1-1.2,0-1.8c-0.2-1.4,3.2-6.6,4.6-7c1.6-0.5,3.7,1,4.3,2.9C272.1,472.3,272.5,473.6,272.9,475.1z"/>
	<path class="st1" d="M183.7,218.6c-2.3,1.5-4.8,0.9-6.7-0.9c-1.9-1.7-4.1-3.2-6.4-4.5c-2.3-1.3-2.5-1.4-1.2-3.3
		c-1.2-0.5-2.4-1.1-3.6-1.6c-0.2-0.1-0.5-0.3-0.8-0.2c-0.7,0.1-1.8,0.6-2.2,0.2c-1.1-0.9-2-2.2-3-3.3c-0.3-0.4-0.5-0.8-0.9-1
		c-1.2-0.7-2.4-3-1.7-4c0.9-1.2,2.3-1.4,3.7-0.8c0.5,0.2,1.1,0.4,1.7,0.5c2.7,0.8,3.2,1.7,2.1,4.2c-0.1,0.3-0.2,0.6,0.2,1.3
		c0.3-0.3,0.8-0.5,0.9-0.8c1.1-2.7,1.4-2.7,3.7-1c0.8,0.6,1.9,0.8,2.8,1.1c1.8,0.8,3.7,1.4,5.4,2.4c0.5,0.2,0.3,1.5,0.4,2.4
		c3.7-1.3,6.3,1.3,9,3.7c1,0.9,2.3,1.8,3.5,2c3.9,0.6,6.5,3.2,9,5.7c1.6,1.6,3.7,1.5,5.2,2.7c0.9,0.7,1.6,1.5,2.4,2.3
		c1.2,1.3,2.5,2.6,3.5,4c0.8,1.2,1.2,2.7,1.6,4.1c0.1,0.3-0.5,1-0.9,1.1c-2,0.7-3.4,0-4.5-1.7c-0.7-1-1.6-1.9-2.5-2.8
		c-0.2,0.2-0.4,0.3-0.6,0.5c0.2,0.3,0.4,0.6,0.7,0.8l-0.2,0.6c-0.7-0.3-1.6-0.5-2.2-0.9c-1.3-0.7-2.7-1.4-3.7-2.4
		c-1.1-1-1.8-2.3-3-3.8c-0.8,0.3-2.2,2.1-3.9,0.3c-1.1-1.1-2.3-2.1-3.3-3.3C185.8,222.1,183.9,221.4,183.7,218.6L183.7,218.6z"/>
	<path class="st1" d="M242.7,138.8c0.4,0.2,0.9,0.5,1.4,0.8c0.4,0.3,0.8,0.8,1.2,0.8c1.9,0,2.3,1.4,3,2.7c0.5,1,1.6,1.6,2.5,2.5
		c0.8,0.8,1.8,1.6,2.2,2.6c0.7,1.4,0.9,3,1.4,4.5c0.1,0.3,0.9,0.4,1.4,0.6c0.8,0.4,1.8,0.7,2.4,1.3c0.5,0.5,0.6,1.4,0.9,2.1
		c0.9,1.7,1.3,3.5,2.9,5c2.1,1.8,3.5,4.4,5.1,6.6c0.2,0.2,0.4,0.6,0.3,0.8c-0.8,3.1,1.4,5.2,2.9,7.4c2.4,3.4,2.8,7,2.6,10.9
		c-0.1,2-1.5,3.6-3.2,3.5c-1.4-0.1-3-1.7-3.7-3c-1.1-1.9-1.6-4.2-2.5-6.3c-0.5-1.2-1.3-2.2-1.8-3.4c-0.5-1-0.7-2.1-1.1-3.1
		c-0.4-0.9-0.9-1.7-1.5-2.4c-1.8-2.5-4.2-4.7-5.2-7.4c-0.9-2.4-3-3.8-3.8-6c-0.3-0.9-0.7-1.9-1.1-2.8c-0.3-0.8-0.7-1.3-1.3-2
		c-1.3-1.4-4.3-2.2-3.2-5.2c0.1-0.3-0.5-0.9-0.8-1.4c-0.4-0.7-0.7-1.4-1.1-2.1c-0.2-0.3-0.4-0.6-0.7-0.8c-1.6-1-1.8-4.5-0.2-5.6
		C241.9,139.1,242.2,139,242.7,138.8L242.7,138.8z"/>
	<path class="st1" d="M500.3,355.2c-0.2-0.1-0.8-0.3-1.1-0.4c0.1-2.8,0.2-5.3,0.4-8.2c2.9,0,5.9-0.1,8.4,2.3c1,1,2.3,1.7,3.5,2.5
		c1.4,0.9,2.8,1.7,3.2,3.6c0.1,0.8,1.3,1.3,1.8,2c2.2,2.8,4.3,5.5,6.4,8.4c0.5,0.6,0.5,1.5,0.5,1.8c1.1,0.8,2.1,1.2,2.9,1.9
		c1.7,1.5,3.3,3.2,4.8,4.9c2,2.1,1.8,2.8-1,3.8c0-0.6-0.1-1.1-0.1-1.6c-1.5,0.4-2.8,0.6-4.4,1c-0.9,2.8,3.2,1,3.4,3.1
		c-0.5,0-1,0.1-1.6,0.2c-0.1,0.9-0.2,1.8-0.5,3.1c-1.1-0.8-1.9-1.2-2.7-1.7c-1.5-1.1-3-2.1-4.3-3.4c-2.5-2.4-4.8-4.9-7.2-7.4
		c-0.3-0.3-0.5-0.7-0.7-1c-1.2-1.4-1.9-3.2-1.9-5.4c-1.3,1.7-2.3,0.9-3.3,0c-2-1.9-4.1-3.7-5.8-5.7c-0.7-0.8-0.5-2.1-0.8-3.6
		L500.3,355.2z"/>
	<path class="st1" d="M315.5,95.8c0.6,1.6,1,2.6,1.5,3.6c0.9,1.9,2.1,3.7,2.6,5.6c0.7,2.7,1.8,5.5,1.1,8.4c-0.2,0.8,0.5,1.7,0.6,2.6
		c0.2,0.9,0,2,0.4,2.8c2.8,5.2,2.5,10.8,2.2,16.4c-0.3,4.2-0.1,8.4-1.6,12.4c-0.4,1-1.1,2-1.8,2.8c-0.9,1-1.9,0.8-2.8-0.1
		c-0.5-0.5-1.1-0.8-2-1.5c0.4-1.7,0.8-3.8,1.2-5.9c-2.6-1.5-3.5-5.9-0.8-9.4c-0.6-0.5-1.1-1-1.2-1.1c0.2-1.9,0.3-3.2,0.5-4.6
		c0.2-1.4,0.6-2.8,0.8-4.2c0.2-1.3,0.5-2.7,0.5-4c0-0.4-0.5-0.8-1-1.4c-0.3,0.8-0.5,1.4-0.7,1.9c-2.1-0.1-2.2-1.4-2.5-3.1
		c-0.7-3.8-1.9-7.5-2.7-11.3c-0.6-2.5-1-5.1-1.3-7.7c0-0.4,1.6-1.3,1.6-1.3C311.9,98.9,313.5,97.7,315.5,95.8L315.5,95.8z"/>
	<path class="st1" d="M184.5,433c-2.1-1-3.2-4.1-2.3-6c2-4,3.6-8.2,6-11.9c2.2-3.4,2.5-7.4,4.3-11c2.2-4.2,4-8.7,6.1-12.9
		c0.5-0.9,1.4-2.1,2.3-2.3c1.5-0.3,3.5,0,4.1,1.7c0.3,0.9-0.2,2.3-0.8,3.2c-0.7,1.1-1.8,1.9-2.8,3c1.3-0.2,2.2-0.3,3.3-0.4
		c0,3.3,0,6.4,0,9.5c0,0.6-0.4,1.1-0.6,1.7c-0.4,0.9-0.7,1.9-1.2,2.6c-0.5,0.7-1.3,1.2-2.2,1.6c-0.3,0.9-1.6,1.7-0.2,3.1
		c0.4,0.4-0.6,2.4-1.1,3.5c-0.7,1.3-1.7,2.5-2.6,3.8c-1.8,2.7-3.6,5.4-5.5,8.2c-0.3,0.4-0.7,1.1-0.9,1
		C188.2,431,186.6,432.5,184.5,433L184.5,433L184.5,433z"/>
	<path class="st1" d="M246.6,17.4c1.1,0.3,2.4,0.4,3.4,0.9c1.5,0.8,2.8,1.7,4.1,2.7c0.3,0.2,0.4,0.9,0.7,1.5c0.6-0.4,1-0.7,1.4-1
		c2.5,2.7,5.1,5.1,7.4,7.8c1.4,1.7,2.5,3.6,3.7,5.4c0.8,1,1.6,2.5,2.7,2.8c2.6,0.8,3.6,2.9,4.9,4.8c1.6,2.3,3.4,4.4,4.8,6.9
		c1.1,2,3.3,3.6,3,6.3c-0.1,0.8,0.5,1.8,0.9,2.6c1.5,2.9,0.7,4.7-2.6,5.7c-2.5-3.3-5.1-6.7-7.7-10.1c-0.1-0.1-0.2-0.3-0.2-0.3
		c-2.2-0.7-2.8-2.7-3.6-4.4c-0.1-0.2-0.4-0.6-0.6-0.6c-2.7-0.1-2.9-2.7-4.2-4.1c-1-1.1-2-2.2-3-3.3c-1.1-1.3-2.1-2.6-3.2-3.9
		c-0.5-0.6-1.1-1.2-1.6-1.8c-0.4-0.4-1.1-1-1-1.4c0.1-0.5,0.8-0.9,1.2-1.3c0.3-0.3,0.6-0.5,0.9-0.7c-0.3-0.3-0.5-0.8-0.8-0.9
		c-1.4-0.4-3-0.5-4.4-0.9c-0.6-0.2-1.2-0.6-1.6-1.1c-0.8-0.9-1.4-1.9-2.1-2.8c-1.1-1.5-2.2-3-3.3-4.6c-0.2-0.3,0-0.8,0.1-1.2
		C246.1,19.3,246.4,18.1,246.6,17.4L246.6,17.4z"/>
	<path class="st1" d="M386,0.4c3.6,3.1,4.6,6.7,3,10.9c0,0.9,0,1.9,0,3c0,0.4-0.2,0.8,0,1c2,2.5,0.2,5.1,0.4,7.6
		c0.1,1.1-0.2,2.3-0.4,3.3c-0.2,0.9-0.6,1.7-0.9,2.5c-0.8,2.2-1.8,4.4-2.4,6.7c-0.7,2.8-1.6,5.3-3.7,7.5c-0.7,0.7-1,1.6-1.5,2.4
		l0.5,0.5c-1.1,0.3-2.2,0.8-3.3,0.9c-2.5,0.2-4-1.3-4-3.7c0-2.1,0.2-4.1,1.3-6.1c1-1.9,1.2-4.2,1.7-6.3c0.2-1,0.1-2.1,0.6-2.9
		c2.7-4.3,2.1-9,2.1-13.7c0-2.1-0.5-4.4,0-6.5c0.7-2.5,2.2-4.8,3.4-7.1c0.1-0.2,0.9-0.3,1.4-0.3C384.9,0.2,385.5,0.3,386,0.4
		L386,0.4z"/>
	<path class="st1" d="M114.9,425.1c-0.8-0.3-1.5-0.6-1.9-0.9c-0.9-4.8,1.7-8.1,4.4-11.8c0.3,0.8,0.5,1.5,0.9,2
		c0.2,0.2,0.7,0.3,1.1,0.2c0.2,0,0.4-0.8,0.3-0.9c-3.2-2.7-0.6-4.9,1.1-6.2c2-1.5,3-3.4,4.1-5.3c0.9-1.5,2.3-2.8,4.1-4.8
		c0.1-1.9,1.3-4.1,3.8-5.8c1.1-0.8,1.8-2.3,2.1-3.6c0.4-1.5,0.9-2.2,2.5-2.5c1.6-0.4,3-1.1,3.6-3c0.3-0.9,1.3-1.5,2.1-2.4
		c-0.8-1.6,0.8-4,2.9-3.9c0.5,0,1-0.3,1.4-0.6c0.6-0.4,1.1-0.8,1.9-1.4c0.2,2.3,0.4,4,0.6,5.6c-0.2,0.1-0.3,0.2-0.5,0.3
		c-0.6-0.8-1.3-1.6-2.1-2.7c-1-0.2-2.2,0.1-2,1.9c0,0.4,0.7,1.1,1.2,1.1c2.8,0.2,2.8,0.2,1.5,3c-0.7-0.3-1.4-0.6-2.7-1.1
		c3,4.2,0,6.5-2.3,8.8c-1.5,1.5-2.3,1.3-3-0.7c-0.2-0.4-0.4-0.9-0.9-1.4c1.3,3.4-0.8,6.2-1.4,9.4c-0.5-0.4-0.9-0.6-1.5-1
		c-0.2,0.6-0.6,1-0.5,1.5c0.5,3.9-1.9,6.4-4.5,8.8c-1,1-1.9,2.1-2.7,3.3c-1.9,2.9-3.4,6.2-5.6,8.9c-1.4,1.6-1.7,4.5-4.8,4.5
		c-0.7,0-1.2,1.5-2,2.1c-0.5,0.4-1.4,0.6-2,0.9c0.2-0.6,0.4-1.3,0.7-1.9c0.1-0.2,0.2-0.4,0.4-0.7V425.1z"/>
	<path class="st1" d="M31,269.9c1.4-2.1,1.3-2.5-1.2-3.6c0.3-0.2,0.5-0.3,0.7-0.3c3.8-0.4,7.6-0.7,11.4-1c1.1-0.1,2.2,0,3.2-0.1
		c1.6,0,3.2-0.3,4.8-0.1c3.3,0.3,6.4,0.7,9.7-0.5c2.5-0.9,5.3-0.8,8-0.7c5,0,10-0.5,15-0.9c1.9-0.2,4,0.1,5.9,0.5
		c0.9,0.2,2.3,1.1,2.3,1.6c0,0.9-0.8,2.2-1.6,2.6c-1.1,0.6-2.7,0.8-3.9,0.7c-1.5-0.1-2.7,0.1-4.1,0.8c-1.8,0.8-3.9,1.1-5.9,1.1
		c-2.5,0-4.8-0.1-7,1.3c-0.3,0.2-0.9,0.5-1.2,0.4c-3.4-1.4-6.4,1.3-9.8,0.8c-3-0.4-6.2,0.1-9.3,0.2c-2.3,0.1-4.6,0.2-7,0.2
		c-0.8,0-1.7-0.2-2.3-0.5c-0.9-0.5-1.6-0.9-2.7-0.1c-1,0.8-1.5,0.2-3.3-2.2c0.1,0.8,0.2,1.6,0.3,2.9c-1-0.6-1.7-1-2.5-1.3
		c-1.2,0.9-3.7,0.4-4.5-1.1c-0.3-0.6,0-2.2,0.5-2.5C28.7,266.7,29.6,268.9,31,269.9L31,269.9z"/>
	<path class="st1" d="M421.6,168.1c0.4,1.6,0,2.7-1.8,3.7c-2.8,1.5-5.2,3.6-8,5.1c-1.6,0.8-3.2,2-5.4,1.3c-1.9-0.6-2.5-1.5-1.4-3.3
		c0.1-0.2,0.2-0.4,0.4-0.6c3.2-2.3,6.4-4.6,9.6-6.9c0.5-0.4,1.3-0.6,1.7-1c3.2-3.4,7.4-5.1,11.4-7.2c0.7-0.4,1.6-0.9,2-1.6
		c1.8-3.1,4.8-4.8,8-6.2c2.7-1.2,5-3,7.7-4.6c0.3,0.5,0.6,1,0.9,1.5c0.3-0.2,0.5-0.2,0.5-0.3c0-1.9,0-3.4,2.7-4.2
		c2.2-0.6,3.9-2.8,5.9-4.2c1.6-1.2,3.2-2.5,4.9-3.5c0.7-0.4,1.8-0.6,2.5-0.3c2.8,1,3.4,2,2.7,3.6c-0.7,1.6-2.7,2.3-4.3,1.5
		c-0.4,2.2-1.8,3.5-3.7,4.7c-2.3,1.3-4.3,3-6.5,4.5c-1.6,1.1-3.3,1.9-5,2.9c-0.5,0.3-0.8,0.8-1.2,1.1c-0.3,0.3-0.7,0.8-1,0.8
		c-3,0-4,2.5-5.8,3.9c-1.7,1.4-3.6,2.6-5.4,3.8c-1.6,1.1-3.2,2.2-4.8,3.2c-1.3,0.8-2.5,1.7-3.9,2.2
		C423.6,168.5,422.5,168.1,421.6,168.1L421.6,168.1z"/>
	<path class="st1" d="M94.2,321.4c-1.1-0.9-1.9-1.5-3.2-2.6c-0.4,1.2-0.9,2.1-0.7,2.7c0.8,2-0.9,1.9-1.9,2.3
		c-0.7,0.4-1.8,0.3-2.4,0.8c-1.6,1.5-3.5,2.1-5.6,2.4c-0.4,0-0.8,0.5-1,0.8c-1.4,1.8-4.8,2.5-6.5,1.1c-0.4-0.3,0-1.4,0-2.3
		c-0.4,0.1-1.1,0.2-1.8,0.3c0.1-2.9,0.3-3.1,2.9-4c0.7-0.7,1.3-1.7,2.2-2.1c2.6-1.1,5.1-2.3,7.3-4.2c1.4-1.1,3.6-2.4,5.5-1
		c1.6-0.9,2.9-1.7,4.6-2.6c-0.1,1.1-0.1,1.6-0.2,2.5c1.7-1.1,3.2-2.1,4.6-3c1.4-0.8,2.9-1.5,4.4-2.1c1.8-0.8,3.6-1.4,5.3-2.3
		c1.5-0.8,2.3-0.4,2.8,1.1c0.2,0.5,0.5,1,1.2,1.3c-1-2.3-0.1-3.1,1.8-3.7c2.4-0.9,4.6-2.1,6.8-3.2c1.3-0.7,2.3-0.8,2.9,0.8
		c0.8-0.6,1.4-1.1,2.1-1.5c1.8-0.9,4.4,0.7,3.9,2.5c-0.3,1.2-1.6,2.2-2.3,3.3c-0.9,1.4-2,1.7-3.7,1.1c-0.6-0.2-1.6,0.8-2.7,1.3
		c-0.5-0.2-1.3-0.6-2.2-1.1c-0.4,1.4-0.4,3-1.1,3.6c-0.8,0.7-2.5,0.2-3.7,0.6c-3.9,1.1-7.8,2.4-11.7,3.7c-0.5,0.2-0.9,0.7-1.3,1.1
		c-1.3,1.5-2.3,1.3-2.8-0.4C96.6,319.6,95.4,320.4,94.2,321.4L94.2,321.4z"/>
	<path class="st1" d="M3.8,329.5c2,2.1,0.6,4-0.5,5.5c-1.1,1.5-2.6,0.5-3.3-0.1c0.3-2.2,0.4-4.2,0.9-6.1c0.2-0.9,1.1-1.7,1.9-2.2
		c1.3-0.8,3-1.1,4.2-1.9c1.7-1.1,3.1-2.7,4.8-3.9c0.9-0.7,2.1-1.3,3.2-1.9c1-0.6,2.1-1,3.1-1.5c0.8-0.4,1.6-0.8,2.5-1.3
		c0-0.3,0.1-0.8,0.2-1.7c0.9,0.6,1.6,1.1,2.5,1.8c-0.2-0.9-0.4-1.5-0.5-2.1c0.2-0.2,0.3-0.3,0.5-0.4c2.3-1.1,4.6-2.4,6.9-3.4
		c1.9-0.9,4-1.6,5.9-2.5c2.2-1,4.2-2.3,6.9-2.3c1.8,0,3.4-1.5,5.3-1.9c0.9-0.2,2.2,0.3,3.1,0.8c0.2,0.2-0.3,1.5-0.5,2.4
		c-0.8,3.3-3.6,4.1-6.4,4.9c-0.9,0.2-1.6,0.9-2.3,1.3c-0.5,0.3-1,0.4-1.5,0.7c-1.7,0.9-3.3,1.9-5,2.6c-3.1,1.2-4.6,4.7-8.3,5.1
		c-1.1,0.1-2.4,1-3.1,1.8c-1.8,2.1-3,2.5-5.9,1.3c-0.6,1.1-1.2,2.3-1.8,3.5c0.2,0.1,0.4,0.2,0.6,0.4c-0.8,0.3-1.6,0.6-2.5,0.9v-2.1
		c-1.3,2.6-2.7,4.2-5.3,4.6c-1.2,0.2-1.8,0.5-2.6-0.9C6.3,330.2,4.8,330,3.8,329.5L3.8,329.5z M25.6,321c0.6-1,1.1-1.6,1.3-2.2
		c0.1-0.2-0.7-0.9-0.8-0.9c-0.7,0.5-1.3,1-1.9,1.6C24.2,319.6,24.8,320.2,25.6,321L25.6,321z"/>
	<path class="st1" d="M305.4,333.2c-1.1-0.6-1.7-0.9-2.9-1.5c0.3,1.8,0.7,3,0.8,4.4c0,0.6-0.4,1.3-0.5,2c-0.2,1.1-1,2.6-0.5,3.2
		c1.2,1.5,0.5,2.7-0.2,3.8c-0.7,1.1-1.6,2.1-2.6,3.3c0.5,1.8-0.4,3.8-2.7,4.7c-1.1,0.5-1.9,0-2-1.1c-0.2-2-0.7-4-0.6-6
		c0-3.8,0.1-7.7,0.6-11.5c0.5-4,1.4-7.9,2-11.8c0.7-4.2,1.7-8.5,1.6-12.8c0-2.7,1.3-4.5,2.5-6.4c0.5-0.7,1.9-1.5,2.3-1.3
		c0.9,0.4,1.6,1.5,2.1,2.5c0.6,1.1,0.8,2.3,1.3,3.4c0.4,1,0.9,1.7,0.2,2.9c-0.6,1.2-0.3,2.9-0.3,4.4c0,1.4,0.2,2.8,0.4,4.1
		c0.4,3.2,0.5,6.4-1,9.5C305.4,330.1,305.6,331.6,305.4,333.2L305.4,333.2z M303.2,306.8c0,0,0.3-0.1,0.5-0.2v-2.5
		c-0.8,0.1-1.4,0.2-2.4,0.4C302.1,305.5,302.6,306.1,303.2,306.8z"/>
	<path class="st1" d="M423.1,107.2c-0.2-0.5-0.4-1-0.6-1.6c-0.3,0.1-0.7,0.2-0.7,0.3c0.4,2.1-1.2,4.4,0.9,6.3
		c0.4,0.4,0.5,1.5,0.2,2.1c-0.4,0.7-1.2,1.2-1.9,1.8c-0.3-0.1-0.5-0.2-0.8-0.4c0.2,1.2,0.4,2.4,0.5,3.6c0,0.5,0.1,1,0,1.4
		c-0.9,2.2-1.8,4.4-3,6.5c-0.5,1-1.7,1.5-2.5,2.4c-0.3,0.3-0.6,0.8-0.8,1.2c-0.7,1.8-1.3,3.7-2.2,5.5c-0.5,0.9-1.5,1.6-2.2,2.4
		c-1.2,1.5-2.4,2.9-3.6,4.4c-0.3,0.4-0.7,0.6-1.3,1.1c-0.1-0.7-0.1-1-0.2-1.3c-0.1-0.3-0.2-0.6-0.4-1c-0.3,0.2-0.6,0.4-0.9,0.7
		c-0.6,0.4-1.3,0.8-1.9,1.2c-0.4-0.8-1.1-1.5-1.1-2.2c0-3.2,0-6.5,1.8-9.4c1-1.7,1.6-3.7,2.5-5.5c0.7-1.3,2.5-2.1,4.4-2.3
		c0.7-0.7-1.5-3,2.1-2.3c-0.7-1.3-1.3-2.1-1.7-2.9c-0.2-0.5-0.2-1.3,0.1-1.6c1.1-1.3,2.5-2.5,4-4c-0.1-1.9-0.3-4.3,1.6-6.2
		c1-1,1.6-2.2,1.1-4c-0.4-1.3,0.3-3.1,1-4.5c0.7-1.4,3.6-1,4.5,0.9C423.5,102,424.3,104.5,423.1,107.2L423.1,107.2z"/>
	<path class="st1" d="M471.1,323.8c0.6,0.8,1.2,1.8,2.1,3c0.2,0,0.7-0.2,1.1-0.1c0.4,0.1,0.9,0.3,1,0.6c0.1,0.3-0.1,0.8-0.3,1.1
		c-0.9,1-1.8,2.3-3,2.9c-1,0.5-2.8,0.6-3.6,0.1c-1.5-1.1-2.6-2.7-3.8-4.2c-0.2-0.2-0.2-0.7-0.3-0.8c-2.3-0.3-2.8-2.1-3.4-3.9
		c-0.6-1.7-1.8-2.6-3.8-2.9c-1.1-0.2-1.9-1.8-2.8-2.7c-1-1-2-2-2.9-3c-1.3-1.5-2.5-3.1-3.8-4.6c-1.1-1.4-2.1-2.9-3.4-4.1
		c-2.6-2.6-2.3-3.5,0.1-6c1.2-1.3,2.7-0.9,3.9-1.5c0.5-0.3,2.2,0.7,2.9,1.5c1.3,1.4,2,3.2,4.3,3.8c0.9,0.2,1.6,1.4,2.3,2.1
		c0.9,0.8,2,1.5,2.9,2.4c0.8,0.8,1.4,1.7,2.1,2.5c0.2,0.3,0.4,0.8,0.6,0.8c2.9,0.8,3.2,3.9,5.2,5.4c0,0,0.2,0.1,0.2,0.2
		c0.5,2.2,0.7,4.5,3,5.9C471.8,322.2,471.3,323.2,471.1,323.8z"/>
	<path class="st1" d="M425.9,343.1c-0.9-0.2-1.6-0.2-2.3-0.4c-0.7,0.7-1.4,1.4-2,2.1c-0.2-0.1-0.3-0.2-0.5-0.4
		c0.5-1.3-0.2-3.1,1.9-3.7c2.1-0.6,5,0.8,5.9,2.6c0.2,0.4,0.7,1.1,1,1.1c2,0,2.3,1,2,2.6c-0.1,0.8,0.4,1.6,0.6,2.5
		c0.9-0.2,1.6-0.4,2.3-0.4c0.5,0,1.3,0,1.6,0.4c1,1.1,2.3,2.2,2.7,3.6c1.4,3.9,5.3,5.5,7.7,8.5c0.9,1.1,2,2.3,3,3.3
		c0.3,0.3,0.6,0.6,0.9,0.8c0.9,0.9,1.8,1.7,2.5,2.8c2.4,0.4,3,2.3,3.7,4.2c0.3,0.8,1.1,1.3,1.5,2.1c0.6,1.2,1.8,3,1.4,3.6
		c-0.8,1.1-1.4,3.6-4.1,2.4c-1.5-0.7-3.1-0.8-3.6-2.9c-0.2-0.9-1.9-1.5-2.9-2.3c-1.6-1.3-3.2-2.7-4.8-4c-2.7-2.1-3-3.1-1.6-6.2
		c-0.2,0-0.4-0.1-0.6-0.1c-2.7,1.5-2.7,1.4-4.3-1.4c-0.7-1.1-1.8-2.1-2.9-2.8c-2.2-1.3-3.3-3.2-4.6-5.2c-1.4-2-3.4-3.5-4.9-5.3
		c-0.5-0.5-0.4-1.4-0.5-2.1c0-0.2,0.2-0.5,0.2-0.6c-1.6-1.9,0.2-3.3,0.9-5L425.9,343.1z"/>
	<path class="st1" d="M124.7,352.9c-0.1-2.1-0.2-3.9-0.4-5.6c0.2,0,0.5-0.1,0.7-0.1c0.4,0.5,0.7,1,1.4,1.8c0.5-1,1-1.6,1.1-2.3
		c0.3-3.2,3-4.6,5-6.3c1.8-1.5,3.8-1.9,6.2-2.1c1.5-0.1,2.8-2,4.3-3c0.7-0.4,1.5-0.5,2.2-0.9c1.6-0.9,3.2-1.9,4.7-2.8
		c2.9-1.8,5.9-3.7,8.9-5.6c0.3,0.6,0.7,1.1,1,1.7c1.1-1.3,2.1-2.5,3.2-3.6c1.7-1.8,4.1-2.1,6.4-2.3c0.9-0.1,1.8,0.7,2.9,0.1
		c0.2-0.1,1.5,0.9,1.6,1.4c0.1,1,0,2.4-0.7,2.9c-2.6,2.3-5.4,4.4-8.3,6.3c-1.5,1-3.4,1.4-5,2.3c-0.9,0.5-1.4,1.4-2.4,2.4
		c-0.5-0.9-1-1.6-1.7-2.7c-1.4,1.5-3.7,2.2-3.2,5.4c-2.2-0.8-4.1-1.5-5.9-2.2c-1.3,1.7,1.8,4.1-1.5,5.2c-0.3-0.5-0.7-0.9-1.1-1.5
		c0.2,3,0,3-2.8,3c-0.9,0-1.7,0.9-2.5,1.8c-0.7-0.2-1.5-0.4-1.8-0.5c-0.5,1.1-0.8,2.2-1.5,2.8c-2.2,1.8-4.3,4-7.7,3.2
		C127.2,351.5,126.3,352.3,124.7,352.9z"/>
	<path class="st1" d="M564.9,223.4c0.7,0.3,1.5,0.6,2.3,0.8c0,0.2,0,0.4-0.1,0.6h-4.7c-1.8,1.7-5.4,2-8.5,0.4
		c-1-0.5-2.2-0.8-3.6-1.2c0.2-1.1,0.5-2.2,0.9-3.4c0.9,0.3,1.5,0.6,2.5,0.9c-0.9-2.7,0.9-2.4,2.5-2.8c2-0.4,4-1.3,5.9-2
		c0.7-0.2,1.6-0.7,2-0.5c1.6,0.8,2.9,0,4-0.7c2.1-1.4,4.5-1.9,6.9-2.1c1.3-0.2,2.5-0.8,3.7-0.9c2.7-0.2,5.5-0.1,8.2-0.4
		c1-0.1,1.8-1,2.9-1.5c0.6,1.2,1.4,1.9,2.9,0.9c0.4-0.3,1.4,0.4,2.3,0.6c1.7-1.1,5.2-0.6,6.1,1.3c0.4,0.8,0,2.5-0.7,3.1
		c-2.5,2.1-5.5,3.5-9,3.4c-2-0.1-4.1-0.5-5.7,1.4c-0.3,0.4-1.2,0.3-1.8,0.4c-0.7,0.1-1.6-0.2-2.1,0.2c-2,1.4-2.9,0.5-3.6-1.4
		c-1.3,0.4-2.7,1-3-1c-2.3,0.9-0.5,1.9-0.1,3.4c-1.2-0.1-2.2-0.2-3.1-0.2c-1.4-0.1-3-1.2-3.2,1.2c-1.4-0.4-2.6-0.7-3.8-1
		C565,223,564.9,223.2,564.9,223.4L564.9,223.4z"/>
	<path class="st1" d="M181.1,365.3c1.3-0.4,1.8-0.5,2.1-0.6c-0.7-0.9-2.2-2.1-2-2.6c0.5-1.2,1.8-2.1,2.8-3c0.5-0.4,1.1-0.6,1.5-1
		c2-1.9,4-3.8,6.1-5.7c0.2-0.2,0.5-0.3,0.7-0.5c2.9-2.9,6.5-5,10-7.1c1.9-1.1,3.6-2.5,5.5-3.6c1.1-0.6,2.5-0.6,3.6-1.2
		c2.8-1.5,5.5-3.2,8.3-4.6c2.6-1.3,3.6-1,5.3,1.2c-0.3,0.6-0.9,1.1-0.9,1.5c0.2,2.5-1.6,3-3.6,3.4c-0.3,0.1-0.6,0.5-0.9,0.7
		c-1.2,0.9-2.4,1.7-3.5,2.6c-1.2,1-2.5,1.9-3.6,2.9c-1.6,1.3-2.8,2.8-5.3,2.6c-0.7,0-1.5,1.3-2.3,2c-4,3.2-8,6.4-11.9,9.6
		c-1.4,1.1-2.5,2.5-3.8,3.8c-1.7,1.7-3.9,1.8-6.1,1.5C182.7,367.1,182.1,366.1,181.1,365.3z"/>
	<path class="st1" d="M337.6,445.8c-0.7-0.2-2.5-0.2-2.2-2.6c0.7,0.2,1.1,0.4,1.6,0.6c0.1-0.1,0.3-0.2,0.4-0.3c-0.5-0.7-1-1.4-1.6-2
		c-0.6-0.6-1.5-0.9-2-1.5c-0.4-0.4-0.3-1.1-0.5-1.7c0.7,0,1.4,0,2,0.1c0.4,0.1,0.8,0.5,1.4,1c-0.9-1.7-1.6-3.2-2.4-4.7
		c-2.1,0.6-3.2-0.1-3.6-2.6c0-0.1,0-0.2,0-0.2c-3.2-2.8-0.9-5.5,0-8.4c2.8-0.6,5.6,0.6,7.6,3.8c1.3,2,2.2,4.2,3.1,6.4
		c0.3,0.8,0.2,1.8,0.2,3c1.2,1.9,2.6,4.2,2.7,7c0.1,1.5-0.4,3,1.9,3.4c0.3,0,0.6,0.6,0.9,0.9c-1.6,0.6-1.9,2.2-0.9,5.1
		c0.3-0.6,0.6-1,0.9-1.5c1.6,0.8,2.3,1.6,1.8,3.4c-0.2,0.8,0.2,2,0.8,2.7c0.9,1.2,2.2,2.2,3.3,3.3c0.2,0.2,0.4,0.4,0.3,0.5
		c-1.6,3.2,2.3,4,2.7,6.3c0.2,1.2,1,2.3,0.9,3.4c-0.1,0.8-1.4,1.7-2.2,1.9c-1.8,0.2-3.6,0.1-5.3-0.2c-1-0.2-2.2-0.9-1.3-2.5
		c0.5-1,0.5-2.3,0.8-4c-1.2,0.6-1.7,0.9-2.3,1.1c-0.5-1.2-1-2.3-1.6-3.5c0.7-0.4,1.5-0.7,2.2-1.2c0.5-0.4,0.7-1,1.1-1.5
		c-0.7-0.3-1.3-0.6-1.9-1l-0.3,0.4c-0.6-1.1-1.1-2.2-1.8-3.2c-0.3-0.4-1.1-0.6-1.7-0.6c-1.5,0-2-0.7-2.2-2c-0.3-1.5-1-3-1.5-4.4
		C338.4,449.1,338.1,447.7,337.6,445.8L337.6,445.8z M343.3,452.1c0.4-2.1-1.3-2.7-2.5-3.6c-0.1-0.1-0.6,0.4-0.9,0.6
		C341.1,450.2,342.2,451,343.3,452.1L343.3,452.1z"/>
	<path class="st1" d="M551.9,153.8c0,0,0,0.2,0,0.2c-1.6,1.3-2.6,0.9-5-1.3c-1.4-1.3-0.8-2.3,0.1-3.3c0.2-0.3,0.7-0.7,1.1-0.7
		c2.5,0.2,4.1-1.7,6-2.7c0.2-0.1,0.5-0.4,0.8-0.4c2,0.3,3.4-0.8,4.8-1.7c1.9-1.1,3.8-2.3,5.8-3.2c5.7-2.7,11.4-5.4,17.2-7.9
		c0.9-0.4,2-0.2,2.8-0.6c5.1-2.7,10.2-5.3,15.4-8c0.7,1.3,1.6,2.3,1.7,3.5c0.3,2.4-1.9,4.3-4.2,5.5c-3.6,1.9-7.8,2-11.1,4.8
		c-2,1.7-5.2,2.2-7.9,3.3c-2.6,1.1-5.1,2.7-7.9,3.5c-2.9,0.9-5.1,3.1-8.2,3.6c-0.9,0.2-1.8,0.9-2.7,1.4c-1.4,0.8-2.7,1.5-4.1,2.4
		c-1.1,0.7-2,0.4-3.1-0.4c-0.7-0.5-1.9-0.3-2.9-0.4c0.3,0.8,0.7,1.5,1,2.2C551.7,153.8,551.7,153.8,551.9,153.8L551.9,153.8z"/>
	<path class="st1" d="M276.4,109.3c0.7,0.6,1.4,1,1.8,1.6c1.4,2.4,2.5,4.8,3.9,7.2c0.9,1.8-0.3,3.3-1.3,4.1
		c-0.9,0.7-2.8,0.5-4.1,0.1c-0.6-0.2-0.9-1.8-1-2.8c-0.2-1.7,0.4-3.6-2-4.4c-0.2-0.1-0.4-0.9-0.3-1.3c0.2-0.9,0.5-1.9,0.9-3.2
		c-0.7,0.8-1.1,1.3-2,2.3c-1-1.8-2.2-3.4-2.7-5.1c-0.6-2.1-2.1-3.6-3.4-4.9c-1.6-1.8-1.9-3.3-0.9-5.6c-1,0.3-1.6,0.5-2.3,0.8
		c-2.2-2.8-4.5-5.6-6.6-8.4c-2.7-3.4-5.3-6.9-7.8-10.5c-0.8-1.1-1.6-2.7-1.4-3.8c0.7-3.2,3.9-3.7,6.2-0.9c4,4.8,8.2,9.5,11.3,14.9
		c1.6,2.6,4,4.6,5.1,7.2c1.6,3.7,5.2,6.2,6.3,10.1C276.3,107.8,276.4,108.7,276.4,109.3L276.4,109.3z"/>
	<path class="st1" d="M505.1,289.9c1.2,0.4,2.1,0.9,3.1,1c2.3,0.4,4.9,0.2,7.1,0.9c2,0.7,3.6,2.3,5.4,3.4c0.8,0.5,1.7,1,2.5,1.5
		c0.1,0.1,0.3,0,0.4,0.1c3.1,3.3,7.9,4.8,10,9.1c1,2,1,2.4-1.2,3.2c-0.4,0.2-0.9,0.3-1.1,0.6c-1.3,1.3-2.6,2.3-4.4,0.6
		c-3.4,1-5.2-1.5-7.4-3.2c-1.1-0.9-3.1-0.6-4.5-1.3c-2.1-1-4.6-1.9-5.8-3.6c-1.6-2.1-4.1-2.8-5.7-4.7c-0.5-0.6-1.4-0.9-1.6-1.4
		c-0.5-1.6-1.4-3.4-0.8-4.8C501.4,290.5,503.7,290.3,505.1,289.9L505.1,289.9z"/>
	<path class="st1" d="M447.4,268.4c-1,0.4-1.7,0.8-2.6,1.1c-0.1-0.5-0.1-1-0.2-1.5c-2.1,0.3-4.4-1.5-4.8-3.2c-2.7-1.5-5-2.8-7.4-4.1
		c-0.9-0.6-1.8-1.1-2.7-1.7c-1-0.7-2.1-1.3-3.1-2c1.1-1,2.2-2.7,3.4-2.7c2.5-0.1,5.2-1,7.5,0.7c0.9,0.7,1.7,1.5,2.6,2.2
		c0.6,0.5,1.1,1.1,1.8,1.5c2.1,1,4.4,1.8,4.1,4.7c4.4,0.2,6.8,2.9,9.1,5.9c0.5,0.6,1.4,0.9,2.1,1.4c0.3,0.2,0.7,0.2,1,0.4
		c4,3.9,9.9,5.2,13.6,9.5c1.5,1.7-0.1,2.9-0.2,4.2c0,0.6-0.7,1.3-1.4,1.6c-0.7,0.3-1.8,0.4-2.3,0c-2.5-1.9-4.7-4-7.1-5.9
		c-0.8-0.6-1.9-0.7-2.7-1.3c-2.6-2-5.1-4-7.7-6.1c-0.3-0.2-0.6-0.5-0.9-0.6C447.5,272,447.3,270.5,447.4,268.4L447.4,268.4z"/>
	<path class="st1" d="M133,262.1c3,1.8,3.7-0.5,4.9-2c-0.7,0.1-1.4,0.4-1.9,0.2c-0.7-0.2-1.4-0.8-2-1.3c0.5-0.5,0.8-1.3,1.4-1.5
		c1.7-0.7,3.4-1.2,5.2-1.6c1.1-0.2,2.3,0,3.3-0.3c1-0.3,2-0.6,3-0.9c1.7-0.4,3.3-0.9,5-1.2c3.2-0.5,6.4-0.9,9.5-1.3
		c3.4-0.4,6.7-1,10.1-1.1c3-0.1,5.9,0.3,8.9,0.9c0.9,0.2,1.5,1.5,2.2,2.3c-0.7,0.5-1.4,1.1-2.2,1.4c-1.9,0.8-3.9,1.3-5.8,2
		c-0.4,0.1-1,0.3-1.3,0.1c-1.8-1.4-3.3-0.9-4.7,0.6c-0.3,0.4-1.1,0.3-1.6,0.4c-1.8,0.5-3.6,1.1-5.4,1.6c-1.1,0.3-2.3,0.8-3.4,0.7
		c-3.4-0.4-6.7,0-10,0.9c-2.8,0.8-5.7,1.3-8.5,1.9c-0.4,0.1-0.8,0.3-1.2,0.5C135.7,266.1,134.9,265.9,133,262.1L133,262.1z"/>
	<path class="st1" d="M315,210.9c-0.2,0-0.8,0.2-0.9,0.2c0.5,2.4,1.4,4.6,1.3,6.9c0,2.2-0.6,4.5-1.6,6.5c-0.4,0.8-2.7,1-4,0.7
		c-0.9-0.2-2-1.7-2-2.7c-0.3-2.8,0.2-5.6-0.3-8.3c-0.4-2.3,1.1-4.9-1.2-6.8c-0.2-0.2-0.4-0.7-0.2-1c0.7-2-0.5-3.6-1.2-5.3
		c0-0.1,0.1-0.2,0.2-0.5c0.7,0.3,1.4,0.6,2.6,1c-0.4-1.1-0.6-1.8-0.9-2.5c0-0.1-0.3-0.2-0.3-0.3c-1-3.1-3.2-5.5-5.3-7.9
		c-0.6-0.7-0.2-2.2-0.5-3.3c-0.3-1.2-1.1-2.3-1.4-3.5c-0.2-0.9-0.1-1.9-0.1-2.9c0-0.6,0.5-1.1,0.5-1.6c-0.1-1.1-0.6-2.3,1.2-2.3
		c1.4,0,2.6,0.6,2.5,2.3c0,0.1,0.1,0.3,0.1,0.4c3.9,0,3.9,3.4,5.3,5.5c-2.7,1.6-2.7,1.7-0.3,3.7c2.5,2,2.8,4.9,1.1,8.1
		c1.7,2.1,3.2,3.2,4.4,3.1C311.7,204.1,315.5,207.1,315,210.9L315,210.9z"/>
	<path class="st1" d="M5,226c0.9-2.4,3.3-2.5,5.2-3.3c2.5-0.9,4.9-1.9,7.4-2.7c3.3-1,6.6-2.2,9.9-2.9c3.5-0.8,7.2-0.9,10.7-1.5
		c2.8-0.5,4.5,1.4,6.6,2.4c0.9,0.4,0,2.3-1.2,2.9c-1.5,0.7-3,1.4-4.5,2.1c-0.2,0.1-0.6,0.3-0.8,0.2c-2.7-0.9-5,0.5-7.4,1.2
		c-1.2,0.4-2.7,0.1-4.5,0.1c-1,1.9-3.2,2.6-6,3c-2.5,0.4-4.7,2.2-7.1,3.2c-2.3,0.9-4.6,1.9-7,2.3c-1.1,0.2-2.4-1-3.2-1.3
		C3.9,229.8,4.5,227.9,5,226z"/>
	<path class="st1" d="M73.9,405c0.7-2.3,1.2-4.6,2.1-6.8c0.4-0.9,0.5-1.3-0.4-2.1c-0.8-0.8-1.3-1.9-0.2-3.2c1.2-1.3,1.9-3,3-4.4
		c0.7-0.9,1.5-1.6,2.9-1.9c1.1-0.2,1.7-2.3,2.5-3.6c0.2-0.3-0.1-0.9,0-1.2c1.6-2.4,3.1-4.8,4.9-7c1.3-1.6,2.8-3.2,4.5-4.3
		c1-0.7,2.9-0.9,4-0.5c1.4,0.6,0.9,2.1,0.3,3.4c-2.2,4-4.3,8-6.4,12c-2.8,5.1-5.5,10.3-8.4,15.3c-0.9,1.5-1.9,2.9-3,4.4
		c-0.8,1.1-1.8,1.2-3.1,0.5C76,405.5,75.1,405.3,73.9,405L73.9,405z"/>
	<path class="st1" d="M502.3,139.4c0.7,0,1.2,0.1,1.8,0.1c0.2-2,0.9-3.4,2.7-4.6c3-2,5.7-4.6,8.6-6.9c2.7-2.1,5.6-4.1,8.4-6.1
		c2.4-1.7,4.8-3.4,7.4-4.8c1.1-0.6,2.7-1,3.8-0.6c1.6,0.4,1.4,2.1,1.2,3.5c-0.3,2.5-1.6,4.5-3.9,5.5c-2,0.9-3.1,3.4-5.8,2.9
		c-0.1,0-0.4,0.2-0.5,0.4c-1.1,2.4-3.4,3.2-5.7,4c-0.7,0.2-1.6,1-1.8,1.7c-0.7,2.4-2.9,3.2-4.7,4.5c-0.9,0.7-1.7,1.6-2.3,2.6
		c-0.9,1.3-5,3.8-6.6,3.3c-1.2-0.4-3.7-0.1-2.5-2.8C502.8,141.5,502.4,140.5,502.3,139.4L502.3,139.4z"/>
	<path class="st1" d="M325.5,287.1c-0.5-0.3-0.9-0.5-1.2-0.8c-0.5-0.6-0.7-1.3-1.2-1.9c-1.4-1.3-0.6-2.7,0.1-3.6
		c0.5-0.7,2.5-1.2,3.1-0.8c3.6,2.6,6.9,5.5,7.4,10.3c0.1,0.8,1.1,1.4,1.2,2.2c0.3,1.5,2,2.7,1.1,4.6c-0.2,0.4,0.8,1.2,1.2,1.9
		c0.8,1.3,1.7,2.5,2.1,3.9c0.2,0.7-0.5,1.7-0.8,2.7c2.1,0,1.7,1.4,1.6,3.1c-0.2,1.8,0.3,3.6,0.3,5.4c0,2.2-0.1,4.4-0.5,6.5
		c-0.2,1.7-1.7,2.1-2.7,0.8c-1.2-1.5-1.9-3.4-2.7-5.2c-0.1-0.2,0.5-0.7,0.9-1c0.6-0.4,1.3-0.8,2-1.2c-0.2-0.3-0.3-0.5-0.4-0.5
		c-0.8,0-2.1,0.4-2.3,0c-0.9-1.4-1.8-2.9-2.3-4.5c-0.9-2.9-1.2-6-2.2-8.9c-0.6-1.7-1.9-3-3-4.6c-0.4-0.5-0.9-1.1-0.9-1.7
		c-0.2-1.6,0.3-3.4-1.3-4.7c-0.2-0.2,0.2-1.2,0.4-1.8H325.5z"/>
	<path class="st1" d="M396.8,286.8c-0.6,0-1.4,0.1-2.1,0c-3.2-0.6-5.7-2.3-8.2-4.2c-1.2-1-3-1.1-4.6-1.7c-0.5-0.2-1.2-0.2-1.4-0.5
		c-1.2-1.9-3.2-2.1-5.1-2.7c-1.8-0.6-1.9-1.6-0.6-2.9c-0.5-0.3-0.8-0.6-1.3-0.8c-1.1-0.6-1.4-2.6-0.3-2.9c1.6-0.4,3.6-1,4.9-0.4
		c4.7,2,9.1,4.5,13.7,6.8c2.1,1.1,6.1,4.4,6.6,6.7c0.4-0.6,0.9-1.3,1.4-2.1c1.4,1,3.9,0.9,3.7,3.6c3.2-0.5,6,0.9,6.3,3.1
		c0.2,1.6,1.1,2.5,2.7,2.7c-0.5,2.2-2.8,3.2-4.8,2.6c-2.7-0.7-5.1-1.7-7-3.6C399.2,289.3,397.9,287.9,396.8,286.8L396.8,286.8z"/>
	<path class="st1" d="M328.7,34.9c0.1-0.3,0.2-0.7,0.4-1c0.4-0.6,0.9-1.1,1.4-1.7c0.3,0.7,0.7,1.3,1,2c0.1,0.2-0.1,0.5,0,0.6
		c2.5,3.5,1,7.8,2.2,11.6c0.3,1.1,0,2.4,0,3.5c0.1,1.2,0.4,2.4,0.4,3.6c0,1-0.6,2.1-0.6,3.1c0,1.8,0,3.7,0.3,5.5
		c0.4,1.7,1.8,3.4,1.6,5.1c-0.1,1.2-1.7,2.6-3,3.5c-1.1,0.8-2,0-2.9-1.1c-2.2-2.7-2.4-5.2-0.8-8.1c0.2-0.2,0.1-0.7,0-1
		c-2.4-4.7-3.5-9.5-3.1-14.8c0.2-2.3-0.3-4.7-0.3-7c0-1.1,0.3-2.4,0.8-3.4c0.3-0.5,1.4-0.6,2.1-0.8L328.7,34.9L328.7,34.9z"/>
	<path class="st1" d="M585.9,335.7c-3.3-0.3-6.7-0.5-10-0.9c-4.6-0.5-9.1,0.1-13.6,0.9c-0.9,0.2-1.9,0.2-2.8,0.3
		c-2.4,0.2-4.8,0.3-7.1,0.4c-5.5,0.4-11,0.8-16.6,1.1c-1.1,0-2.3-0.4-3.3-0.8c-0.3-0.1-0.7-1.2-0.6-1.3c1.1-0.9,2.3-2.1,3.6-2.5
		c0.7-0.2,1.9,0.7,3,1.1c0.3-1.3,1.4-1.3,3.1-1.1c1.4,0.1,3-0.7,4.5-1.1c2.3-0.6,6.1-0.2,7.5,0.6c1.7-0.6,3-1.3,4.3-1.3
		c4.5-0.1,9,0.2,13.4,0.1c2,0,4.1-0.6,6.1-0.6c2.4-0.1,4.8,0,7.1,0.3c0.5,0,1.1,1,1.3,1.6C586,333.4,585.9,334.4,585.9,335.7
		L585.9,335.7z"/>
	<path class="st1" d="M314.1,520.3c-0.2-2.4-0.1-4.5-0.5-6.5c-0.5-2.7-1.3-5.3-1.8-8c-0.2-0.9,0.5-2,0.3-2.9
		c-0.4-1.6-1.3-3.1-1.6-4.8c-0.4-2.1-0.5-4.2-0.6-6.3c0-0.4,0.8-1.3,1-1.3c1.2,0.3,2.5,0.7,3.6,1.3c0.2,0.1,0.1,1.5-0.2,1.8
		c-1.3,1-1.1,1.8-0.3,3c1.1,1.5,2.1,3.1,2.7,4.8c0.5,1.6,0.5,3.4,0.6,5.1c0.1,1.8-0.1,3.6-0.1,5.5c0,0.5,0.5,1,0.7,1.4
		c1.2,1.9,0.9,3.1-0.9,4.3C316,518.3,315.4,519.1,314.1,520.3L314.1,520.3z"/>
	<path class="st1" d="M318.7,519.2c0.4,1.9,1.4,3.7-1.6,4.5c-0.6,0.2-0.6,2.1-0.9,3.2c0.2,0.1,0.5,0.2,0.8,0.2
		c0.3-0.4,0.6-0.9,0.9-1.5c3.5,2.1-0.5,5.4,1.6,7.6c-2.7,0.7-4.7-1.1-4.6-3.9c0-1.6,0-3.2-0.2-4.8
		C314.6,521.6,315.9,519.8,318.7,519.2L318.7,519.2z"/>
	<path class="st1" d="M184.5,432.9c-0.8,1.6-1.4,3.4-2.4,4.8c-0.8,1.1-2.5,0.4-3.6-1.5C180.4,435.2,182.5,434.1,184.5,432.9
		L184.5,432.9L184.5,432.9z"/>
	<path class="st1" d="M546.4,154.8c-0.7,0.4-1.4,1.1-2.2,1.1c-0.5,0-1-0.9-1.6-1.3c0.6-0.5,1.2-1.2,1.8-1.3c0.5-0.1,1.2,0.5,1.8,0.8
		C546.4,154.3,546.4,154.6,546.4,154.8L546.4,154.8z"/>
	<path class="st1" d="M312.9,488.2c-0.7-0.6-1.4-1.1-2.1-1.7c0.3-0.3,0.9-0.9,1-0.8c0.7,0.5,1.3,1.1,2,1.6L312.9,488.2L312.9,488.2z
		"/>
	<path class="st1" d="M5,225.9c-0.9,0.4-1.8,0.9-2.7,1.3c-0.1-0.3-0.2-0.6-0.3-0.9C2.7,225.6,3.5,224.4,5,225.9L5,225.9L5,225.9z"/>
</g>
</svg>
